<svg viewBox="0 0 20 20" fill="none" xmlns="http://www.w3.org/2000/svg">
<g id="SVG">
<path id="Vector" d="M20 10.0608C20 4.53833 15.5225 0.0608336 10 0.0608336C4.4775 0.0608336 2.38419e-07 4.53833 2.38419e-07 10.0608C2.38419e-07 15.0525 3.65667 19.1892 8.4375 19.9392V12.9517H5.89833V10.06H8.4375V7.85833C8.4375 5.3525 9.93083 3.9675 12.215 3.9675C13.3083 3.9675 14.4533 4.16333 14.4533 4.16333V6.62417H13.1917C11.9492 6.62417 11.5617 7.395 11.5617 8.18583V10.0608H14.335L13.8917 12.9525H11.5617V19.94C16.3425 19.19 19.9992 15.0533 19.9992 10.0617L20 10.0608Z" fill="var(--fill-0, white)"/>
</g>
</svg>
