<svg width="197" height="59" viewBox="0 0 196.672 58.784" fill="none" xmlns="http://www.w3.org/2000/svg">
<g id="Vector">
<path d="M152.147 0.00299964C152.276 0.0479942 152.404 0.0959885 152.536 0.131984C153.926 0.518939 154.617 1.81178 154.425 3.14063C154.24 4.41548 153.225 5.32137 151.923 5.43237C151.132 5.50135 150.396 5.35435 149.761 4.86543C148.884 4.1905 148.572 3.26961 148.758 2.20174C148.943 1.12486 149.629 0.458947 150.656 0.131984C150.788 0.0899892 150.917 0.0449948 151.045 0C151.411 0 151.779 0 152.144 0L152.147 0.00299964Z" fill="var(--fill-0, white)"/>
<path d="M196.672 28.2896C196.394 28.2836 196.112 28.2776 195.834 28.2776C194.541 28.2776 193.25 28.2776 191.957 28.2776H191.577C191.571 28.1157 191.562 27.9807 191.562 27.8457C191.562 24.2101 191.562 20.5776 191.559 16.942C191.559 16.372 191.502 15.8021 191.349 15.2502C191.023 14.0713 190.262 13.3364 189.059 13.1055C188.086 12.9195 187.11 12.9374 186.158 13.2434C185.017 13.6124 184.257 14.3833 183.843 15.5021C183.595 16.1741 183.478 16.873 183.478 17.5899C183.478 21.0095 183.478 24.4291 183.478 27.8457V28.2236C183.221 28.2926 178.727 28.3046 178.356 28.2416V8.56399H183.487V11.0027C183.508 11.0117 183.532 11.0237 183.553 11.0327C183.613 10.9697 183.679 10.9097 183.73 10.8407C184.532 9.80582 185.529 9.02592 186.756 8.55797C187.517 8.26703 188.307 8.12304 189.116 8.09002C190.086 8.05105 191.047 8.12903 191.984 8.41101C193.682 8.92094 194.933 9.9648 195.759 11.5276C196.196 12.3555 196.442 13.2464 196.586 14.1643C196.618 14.3653 196.606 14.5723 196.624 14.7762C196.63 14.8362 196.657 14.8962 196.672 14.9562V28.2896Z" fill="var(--fill-0, white)"/>
<path d="M128.819 58.7811C128.774 58.76 128.729 58.7299 128.681 58.7209C126.866 58.415 125.525 57.0742 125.286 55.2715C125.139 54.1495 125.322 53.0758 126.022 52.1458C126.813 51.0898 127.869 50.535 129.19 50.49C129.798 50.469 130.39 50.5201 130.962 50.748C132.384 51.3181 133.255 52.3497 133.525 53.8585C133.726 54.9805 133.537 56.0455 132.884 56.9991C132.237 57.944 131.339 58.4991 130.22 58.7089C130.139 58.7241 130.064 58.7571 129.986 58.7811H128.819ZM126.929 54.6023C126.929 54.6444 126.929 54.6894 126.929 54.7315C126.953 55.6793 127.352 56.4294 128.187 56.8793C129.043 57.3412 129.938 57.3322 130.765 56.7984C131.69 56.1982 131.998 55.3016 131.872 54.2275C131.684 52.6106 130.085 51.6719 128.546 52.1969C127.645 52.5057 126.881 53.4415 126.929 54.6023Z" fill="var(--fill-0, white)"/>
<path d="M167.14 58.7811C166.958 58.7361 166.772 58.6969 166.589 58.649C165.386 58.3431 164.619 57.5992 164.335 56.3782C164.314 56.2853 164.305 56.1892 164.29 56.0723H165.946C165.964 56.1111 165.985 56.1384 165.994 56.1685C166.242 56.9272 166.82 57.2034 167.56 57.2153C167.838 57.2211 168.119 57.2034 168.392 57.1522C168.694 57.0952 168.961 56.9512 169.093 56.6424C169.245 56.2882 169.149 55.9522 168.799 55.8052C168.455 55.6615 168.087 55.5716 167.724 55.4754C167.257 55.3524 166.775 55.2805 166.317 55.1274C165.946 55.0015 165.587 54.8186 165.248 54.6143C164.877 54.3893 164.662 54.0236 164.557 53.6005C164.26 52.4128 164.841 51.2281 165.976 50.7749C167.018 50.3579 168.078 50.355 169.122 50.7538C169.955 51.072 170.452 51.7139 170.676 52.5689C170.706 52.6828 170.718 52.7996 170.745 52.9408H169.074C169.059 52.9136 169.03 52.8686 169.012 52.8236C168.835 52.3976 168.509 52.1548 168.069 52.0768C167.664 52.005 167.254 51.9926 166.853 52.1127C166.569 52.1969 166.323 52.3439 166.215 52.6527C166.087 53.0188 166.186 53.3066 166.545 53.4357C166.886 53.5588 167.245 53.6368 167.599 53.7297C168.095 53.8617 168.595 53.9877 169.093 54.1284C169.287 54.1854 169.473 54.2754 169.658 54.3596C170.517 54.7526 170.868 55.4453 170.829 56.3633C170.781 57.506 170.074 58.3311 168.889 58.6399C168.694 58.6911 168.497 58.7361 168.302 58.784H167.137L167.14 58.7811Z" fill="var(--fill-0, white)"/>
<path d="M25.0317 11.7526H19.5768C19.5289 11.6686 19.475 11.5756 19.4271 11.4826C18.3942 9.47888 16.7685 8.234 14.568 7.78409C12.8136 7.4271 11.0921 7.59809 9.4664 8.37501C7.4545 9.33787 6.20004 10.9547 5.56532 13.0724C5.27492 14.0383 5.15216 15.0342 5.20006 16.0391C5.28392 17.9139 5.80183 19.6417 7.02037 21.1115C8.01436 22.3083 9.27477 23.0942 10.7747 23.4902C11.7178 23.7392 12.6818 23.8291 13.6519 23.7452C15.3793 23.5952 16.9033 22.9593 18.1457 21.7234C18.6667 21.2045 19.1008 20.6166 19.4271 19.9506C19.478 19.8456 19.5379 19.7406 19.5978 19.6237H25.0916C25.0287 19.8336 24.9778 20.0256 24.9149 20.2146C24.3611 21.8944 23.5108 23.4002 22.3132 24.7081C20.8223 26.3369 19.0169 27.4527 16.9152 28.0977C15.9871 28.3826 15.041 28.5506 14.071 28.6196C11.8016 28.7846 9.61009 28.4786 7.52036 27.5637C4.92762 26.4299 2.94566 24.6151 1.59241 22.1224C0.813999 20.6855 0.349943 19.1497 0.137376 17.5329C0.023607 16.675 -0.0362711 15.8171 0.023607 14.9592C0.143363 13.2104 0.508619 11.5126 1.26907 9.91381C1.78702 8.82794 2.42472 7.82306 3.22709 6.92617C4.22105 5.81631 5.36774 4.90142 6.69103 4.21151C8.26583 3.3896 9.93642 2.92165 11.7058 2.76867C14.1818 2.5527 16.55 2.93665 18.7864 4.02551C19.8762 4.55645 20.8552 5.25239 21.7324 6.09826C22.7593 7.08815 23.6036 8.21303 24.2114 9.49986C24.5168 10.1508 24.7413 10.8407 24.9958 11.5126C25.0197 11.5786 25.0197 11.6566 25.0317 11.7496V11.7526Z" fill="var(--fill-0, white)"/>
<path d="M36.4773 28.7096C34.8457 28.7096 33.2919 28.3736 31.8339 27.6507C29.4238 26.4508 27.7532 24.5701 26.837 22.0324C26.4837 21.0545 26.3041 20.0466 26.2442 19.0057C26.1365 17.149 26.4688 15.3852 27.2682 13.7144C27.6963 12.8145 28.2591 12.0046 28.9477 11.2787C29.7231 10.4568 30.6064 9.77585 31.6063 9.25391C32.5554 8.75896 33.5644 8.426 34.6182 8.23702C35.5343 8.07503 36.4595 8.04205 37.3815 8.11702C38.612 8.21601 39.7946 8.519 40.9173 9.04091C42.6358 9.84182 44.0281 11.0297 45.0699 12.6165C45.989 14.0173 46.5159 15.5622 46.6897 17.23C46.8363 18.6248 46.7344 20.0016 46.3602 21.3544C45.9234 22.9413 45.1479 24.3361 44.019 25.539C43.1837 26.4299 42.2167 27.1348 41.1241 27.6657C40.082 28.1697 38.9803 28.4936 37.8275 28.6196C37.3786 28.6676 36.9294 28.6856 36.4805 28.7156L36.4773 28.7096ZM41.5251 18.2228C41.5102 18.0518 41.4982 17.7279 41.4503 17.4099C41.2377 16.0391 40.6567 14.8662 39.5431 14.0053C38.4353 13.1444 37.1689 12.8265 35.7828 13.0094C34.226 13.2134 32.9985 13.9813 32.2081 15.3342C31.1932 17.074 31.1333 18.9188 31.8758 20.7695C32.3848 22.0384 33.3069 22.9323 34.5882 23.4272C35.4894 23.7751 36.4236 23.8622 37.3757 23.6912C38.6958 23.4512 39.7648 22.8063 40.5341 21.6964C41.2257 20.7005 41.5073 19.5757 41.5222 18.2228H41.5251Z" fill="var(--fill-0, white)"/>
<path d="M166.332 28.6886C164.697 28.7156 163.165 28.3766 161.718 27.6807C160.554 27.1198 159.533 26.3579 158.662 25.392C157.665 24.2851 156.952 23.0222 156.521 21.5974C156.264 20.7515 156.123 19.8846 156.072 18.9967C155.988 17.5899 156.159 16.2251 156.614 14.8992C157.452 12.4515 159.012 10.5947 161.275 9.34089C162.476 8.67797 163.763 8.288 165.129 8.14703C167.179 7.93105 169.147 8.234 170.988 9.16689C173.793 10.5887 175.577 12.8565 176.293 15.9191C176.895 18.4928 176.634 21.0035 175.398 23.3552C174.035 25.9409 171.895 27.5847 169.081 28.3466C168.242 28.5746 167.278 28.7126 166.332 28.6856V28.6886ZM161.222 18.3608C161.251 18.7148 161.263 19.0717 161.317 19.4197C161.524 20.7095 162.081 21.8194 163.102 22.6533C164.248 23.5892 165.572 23.9162 167.027 23.7092C168.943 23.4332 170.248 22.3654 170.958 20.5745C171.371 19.5307 171.452 18.4388 171.272 17.3349C171.045 15.9521 170.431 14.7823 169.293 13.9363C168.218 13.1414 167 12.8355 165.674 13.0004C164.063 13.2014 162.835 13.9993 162.006 15.3941C161.464 16.3061 161.231 17.3019 161.225 18.3608H161.222Z" fill="var(--fill-0, white)"/>
<path d="M48.5247 8.55198H53.6564V11.0027C53.6774 11.0117 53.6984 11.0207 53.7224 11.0327C53.7823 10.9697 53.848 10.9097 53.902 10.8407C54.7043 9.80582 55.7015 9.02592 56.9319 8.55797C57.7132 8.261 58.5245 8.11702 59.357 8.09002C60.3058 8.05704 61.246 8.13803 62.1623 8.41399C63.8478 8.92094 65.096 9.95583 65.9194 11.5066C66.4107 12.4305 66.6861 13.4234 66.7848 14.4613C66.8236 14.8782 66.8476 15.2982 66.8505 15.7181C66.8566 19.7527 66.8505 23.7872 66.8505 27.8217C66.8505 27.9597 66.8505 28.0977 66.8505 28.2566H61.749C61.7431 28.1396 61.7312 28.0167 61.7312 27.8937C61.7312 25.9409 61.7312 23.9882 61.7312 22.0354C61.7312 20.3316 61.737 18.6248 61.7279 16.921C61.725 16.3631 61.6713 15.8021 61.5214 15.2592C61.1981 14.0803 60.4437 13.3394 59.2401 13.1055C58.2549 12.9135 57.2701 12.9345 56.3089 13.2494C55.1804 13.6184 54.4289 14.3833 54.0156 15.4931C53.7674 16.1651 53.6476 16.864 53.6476 17.5809C53.6476 21.0005 53.6476 24.4201 53.6476 27.8397V28.2206C53.4049 28.2926 48.962 28.3136 48.5247 28.2447V8.55198Z" fill="var(--fill-0, white)"/>
<path d="M125.301 16.0421C125.13 15.5082 124.905 15.0102 124.57 14.5663C124.031 13.8554 123.325 13.3814 122.483 13.1204C121.354 12.7725 120.22 12.7575 119.088 13.1204C117.621 13.5914 116.642 14.5843 116.115 16.0061C115.534 17.5839 115.499 19.1947 116.085 20.7815C116.732 22.5333 117.993 23.5892 119.837 23.9011C120.968 24.0931 122.064 23.9522 123.1 23.4332C124.079 22.9443 124.756 22.1824 125.151 21.1655C125.202 21.0365 125.25 20.9045 125.304 20.7545H130.534C130.603 20.9405 130.519 21.1145 130.486 21.2855C130.109 23.1183 129.288 24.717 127.935 26.0159C126.663 27.2368 125.142 28.0077 123.433 28.4156C122.804 28.5656 122.169 28.6466 121.522 28.7006C120.265 28.8026 119.034 28.6766 117.822 28.3496C116.202 27.9117 114.777 27.1228 113.567 25.9499C111.858 24.2881 110.888 22.2603 110.58 19.9026C110.496 19.2727 110.448 18.6368 110.478 18.0039C110.594 15.5741 111.349 13.3784 112.957 11.5276C114.169 10.1298 115.675 9.1609 117.445 8.61196C118.247 8.363 119.067 8.21303 119.908 8.15301C122.169 7.98806 124.298 8.408 126.256 9.56586C128.441 10.8587 129.818 12.7635 130.42 15.2322C130.471 15.4422 130.51 15.6521 130.549 15.8651C130.558 15.9161 130.549 15.9701 130.549 16.0481H125.298L125.301 16.0421Z" fill="var(--fill-0, white)"/>
<path d="M146.701 22.9473C146.989 24.3421 147.267 25.7099 147.557 27.1168C147.404 27.2068 147.255 27.3057 147.099 27.3897C146.093 27.9207 145.015 28.2476 143.905 28.4756C142.875 28.6856 141.836 28.7516 140.791 28.6586C139.324 28.5296 137.977 28.0617 136.83 27.1078C135.896 26.3309 135.253 25.35 134.845 24.2101C134.471 23.1572 134.3 22.0654 134.3 20.9465C134.306 18.5738 134.3 16.2011 134.3 13.8253C134.3 13.6964 134.3 13.5704 134.3 13.4114C133.896 13.3634 133.513 13.3934 133.133 13.3874C132.747 13.3814 132.357 13.3874 131.971 13.3874C131.585 13.3874 131.199 13.3874 130.791 13.3874V8.54298H134.3V4.25948C136.01 3.89052 137.686 3.52758 139.411 3.15263C139.435 3.53358 139.42 3.88152 139.423 4.23248C139.423 4.58947 139.423 4.94341 139.423 5.30036V8.53097H146.701V13.3754H139.456C139.441 13.4894 139.423 13.5704 139.423 13.6514C139.423 15.9071 139.414 18.1598 139.426 20.4156C139.429 21.0185 139.51 21.6154 139.743 22.1824C140.127 23.1032 140.812 23.6372 141.782 23.8292C142.528 23.9761 143.264 23.8982 143.986 23.7212C144.788 23.5232 145.578 23.2712 146.372 23.0433C146.473 23.0132 146.572 22.9862 146.695 22.9503L146.701 22.9473Z" fill="var(--fill-0, white)"/>
<path d="M149.057 8.55797H154.135V28.2566H149.057V8.55797Z" fill="var(--fill-0, white)"/>
<path d="M139.56 50.6308C139.66 50.625 139.731 50.6159 139.806 50.6159C140.968 50.6159 142.13 50.6159 143.294 50.6159C143.743 50.6159 144.165 50.727 144.56 50.9429C144.974 51.1707 145.255 51.5129 145.396 51.9658C145.515 52.3649 145.536 52.7666 145.453 53.1777C145.372 53.5765 145.162 53.8886 144.833 54.1255C144.764 54.1767 144.695 54.2246 144.605 54.2906C144.668 54.3385 144.713 54.3806 144.767 54.4075C145.393 54.7286 145.677 55.2744 145.746 55.9402C145.794 56.4022 145.782 56.8641 145.587 57.3053C145.381 57.7702 145.043 58.1029 144.596 58.325C144.207 58.5202 143.788 58.6251 143.354 58.6309C142.159 58.6428 140.965 58.6341 139.77 58.6341C139.707 58.6341 139.645 58.6251 139.564 58.6222V50.6308H139.56ZM141.192 55.3074V57.0263C141.288 57.0321 141.363 57.0441 141.438 57.0441C142.018 57.0441 142.599 57.0502 143.18 57.0441C143.519 57.0412 143.821 56.9512 143.995 56.6242C144.297 56.0455 144.004 55.4453 143.363 55.3375C143.216 55.3136 143.066 55.2983 142.917 55.2954C142.456 55.2893 141.992 55.2954 141.53 55.2954C141.426 55.2954 141.321 55.3045 141.195 55.3103L141.192 55.3074ZM141.189 52.1849V53.7565C141.249 53.7685 141.291 53.7837 141.33 53.7837C141.845 53.7837 142.36 53.7924 142.875 53.7837C143.042 53.7805 143.213 53.7326 143.375 53.6847C143.626 53.6125 143.761 53.4205 143.803 53.1716C143.899 52.6436 143.635 52.2448 143.156 52.2209C143.04 52.2147 142.923 52.1879 142.806 52.1879C142.408 52.1849 142.013 52.1879 141.615 52.1879C141.477 52.1879 141.342 52.1879 141.186 52.1879L141.189 52.1849Z" fill="var(--fill-0, white)"/>
<path d="M155.839 42.814C155.829 45.1026 154.093 46.9474 151.626 46.9354C149.183 46.9234 147.459 45.0485 147.483 42.712C147.506 40.4231 149.351 38.4973 151.923 38.6323C153.982 38.7405 155.86 40.3661 155.841 42.814H155.839ZM151.623 45.3304C152.935 45.4056 154.153 44.3736 154.153 42.7868C154.153 41.2751 153.069 40.2191 151.671 40.2101C150.207 40.2014 149.156 41.3531 149.156 42.7868C149.156 44.4367 150.485 45.4117 151.623 45.3304Z" fill="var(--fill-0, white)"/>
<path d="M131.438 38.7884C131.528 38.7826 131.594 38.7702 131.657 38.7702C132.809 38.7702 133.962 38.7495 135.115 38.7764C136.025 38.7974 136.791 39.1393 137.276 39.9611C137.8 40.852 137.719 42.2769 137.1 43.0179C136.869 43.2937 136.588 43.5067 136.252 43.6417C136.132 43.6899 136.016 43.7378 135.86 43.8006C136.591 44.7847 137.309 45.7564 138.076 46.7884H137.758C137.264 46.7884 136.767 46.7823 136.273 46.7913C136.097 46.7946 135.983 46.7463 135.875 46.5903C135.294 45.7597 134.696 44.9436 134.112 44.1188C134.001 43.9628 133.887 43.8757 133.69 43.8939C133.51 43.9087 133.327 43.8968 133.112 43.8968C133.061 44.8656 133.118 45.8076 133.079 46.7674H131.438V38.7855V38.7884ZM133.109 42.4569C133.719 42.4569 134.288 42.4631 134.857 42.454C134.983 42.454 135.112 42.4181 135.234 42.3789C135.642 42.2468 135.878 41.9739 135.926 41.5389C135.992 40.9452 135.687 40.4623 135.097 40.3991C134.459 40.3302 133.812 40.3661 133.172 40.357C133.154 40.357 133.139 40.3813 133.112 40.402V42.4598L133.109 42.4569Z" fill="var(--fill-0, white)"/>
<path d="M149.291 55.7454V58.6131H147.665C147.599 58.3732 147.572 51.2731 147.635 50.6489C147.701 50.6399 147.77 50.6188 147.842 50.6188C149.003 50.6188 150.168 50.5949 151.33 50.625C152.24 50.646 153.036 50.9821 153.47 51.8279C153.979 52.8207 153.979 53.8374 153.345 54.8005C153.138 55.1154 152.826 55.3136 152.491 55.4692C152.366 55.5295 152.234 55.5745 152.063 55.6405C152.758 56.6482 153.524 57.584 154.237 58.6069C154.129 58.6222 154.06 58.637 153.991 58.637C153.485 58.637 152.979 58.628 152.473 58.6432C152.276 58.649 152.162 58.5739 152.051 58.4182C151.473 57.5992 150.881 56.7922 150.306 55.9732C150.186 55.8023 150.06 55.7243 149.854 55.7454C149.683 55.7635 149.512 55.7483 149.288 55.7483L149.291 55.7454ZM149.309 54.2634C149.354 54.2787 149.384 54.2997 149.414 54.2997C149.953 54.2997 150.488 54.3146 151.027 54.2997C151.216 54.2936 151.413 54.2395 151.587 54.1647C152.033 53.9695 152.165 53.5526 152.135 53.1567C152.096 52.6588 151.806 52.2927 151.327 52.2477C150.677 52.1878 150.018 52.2118 149.366 52.2027C149.351 52.2027 149.333 52.2299 149.312 52.2448V54.2667L149.309 54.2634Z" fill="var(--fill-0, white)"/>
<path d="M116.63 58.637V50.6431C116.735 50.6341 116.828 50.6188 116.921 50.6188C117.867 50.6188 118.816 50.6039 119.762 50.6188C121.645 50.6551 123.319 51.9868 123.591 53.9695C123.768 55.2566 123.48 56.4141 122.591 57.3772C121.974 58.043 121.193 58.4451 120.292 58.5739C120.008 58.616 119.714 58.6309 119.427 58.6309C118.618 58.6399 117.813 58.6309 117.004 58.6309H116.633L116.63 58.637ZM118.313 57.0441C118.744 57.0441 119.148 57.0441 119.555 57.0441C120.804 57.0441 121.723 56.2973 121.938 55.0766C122.151 53.8676 121.573 52.5416 120.115 52.2568C119.543 52.1458 118.941 52.1849 118.313 52.1519V57.0441Z" fill="var(--fill-0, white)"/>
<path d="M164.2 43.8997C163.967 43.8997 163.73 43.8997 163.494 43.8997C163.452 43.8997 163.413 43.9149 163.344 43.9298V46.7253C163.087 46.7975 162.159 46.8124 161.727 46.7554V38.8003C161.793 38.7913 161.862 38.7702 161.934 38.7702C163.087 38.7702 164.236 38.7495 165.389 38.7764C166.284 38.7974 167.066 39.1182 167.527 39.9343C168.03 40.828 168.036 41.7639 167.59 42.6881C167.377 43.1289 167.006 43.4287 166.56 43.6268C166.434 43.6838 166.302 43.7288 166.129 43.7948C166.859 44.7785 167.578 45.7506 168.323 46.7554C168.212 46.7703 168.144 46.7884 168.078 46.7884C167.56 46.7884 167.045 46.7823 166.527 46.7946C166.359 46.7975 166.254 46.7434 166.155 46.6023C165.545 45.7416 164.925 44.8896 164.308 44.0347C164.278 43.9929 164.24 43.9508 164.2 43.9029V43.8997ZM163.353 42.454C163.985 42.454 164.575 42.478 165.165 42.4449C165.521 42.4268 165.859 42.3071 166.06 41.9591C166.44 41.3052 166.113 40.492 165.368 40.3991C164.724 40.3182 164.063 40.3632 163.41 40.3541C163.392 40.3541 163.377 40.3781 163.35 40.3991V42.454H163.353Z" fill="var(--fill-0, white)"/>
<path d="M139.818 38.7913C141.147 38.7913 142.45 38.7855 143.749 38.7974C143.968 38.7974 144.195 38.8725 144.405 38.9473C145.046 39.1752 145.515 39.5983 145.767 40.2373C146.048 40.9543 146.066 41.6829 145.806 42.4119C145.593 43.003 145.177 43.4018 144.602 43.6449C144.495 43.6899 144.384 43.7317 144.234 43.7919C144.56 44.3166 144.956 44.7818 145.309 45.2706C145.662 45.7597 146.025 46.2365 146.408 46.7554C146.303 46.7703 146.234 46.7913 146.165 46.7913C145.647 46.7913 145.132 46.7855 144.614 46.7975C144.426 46.8033 144.321 46.7286 144.219 46.5816C143.635 45.7564 143.037 44.9375 142.459 44.1098C142.345 43.9479 142.219 43.8848 142.03 43.8968C141.848 43.9087 141.665 43.8968 141.438 43.8968C141.405 44.8598 141.438 45.8014 141.417 46.7674H139.815V38.7913H139.818ZM141.444 42.4598C141.977 42.4598 142.471 42.466 142.965 42.4598C143.147 42.4598 143.33 42.442 143.507 42.4029C143.863 42.3219 144.156 42.1271 144.237 41.7551C144.321 41.3712 144.327 40.9841 144.004 40.672C143.755 40.4321 143.447 40.3512 143.121 40.3451C142.635 40.3331 142.15 40.3421 141.668 40.3451C141.596 40.3451 141.525 40.3661 141.441 40.3781V42.466L141.444 42.4598Z" fill="var(--fill-0, white)"/>
<path d="M169.35 44.2237H171C171.02 44.2567 171.053 44.2868 171.065 44.3257C171.257 44.9226 171.667 45.2466 172.281 45.3395C172.787 45.4175 173.287 45.4266 173.763 45.1987C174.002 45.0848 174.152 44.9077 174.206 44.6406C174.263 44.3438 174.176 44.0829 173.901 43.9748C173.533 43.8307 173.146 43.7288 172.763 43.6268C172.317 43.51 171.856 43.4406 171.419 43.297C171.056 43.1768 170.694 43.0117 170.374 42.8078C169.691 42.3731 169.491 41.6891 169.566 40.9271C169.676 39.8113 170.35 39.1302 171.383 38.8152C172.335 38.5246 173.299 38.5423 174.227 38.9263C175.176 39.3192 175.664 40.0722 175.817 41.098H174.155C174.155 41.098 174.137 41.0831 174.134 41.074C173.859 40.402 173.323 40.1622 172.637 40.1952C172.392 40.2072 172.14 40.2191 171.904 40.2794C171.601 40.357 171.365 40.537 171.266 40.861C171.167 41.1851 171.263 41.4489 171.577 41.5752C171.856 41.6862 172.149 41.758 172.44 41.8361C173.03 41.995 173.628 42.1271 174.215 42.3038C174.616 42.4239 174.993 42.6068 175.311 42.904C175.64 43.2128 175.808 43.588 175.88 44.0318C175.936 44.3797 175.913 44.7187 175.829 45.0547C175.613 45.9335 175.012 46.4524 174.188 46.7286C173.218 47.0522 172.239 47.0316 171.278 46.6923C170.248 46.3294 169.64 45.5855 169.407 44.5267C169.389 44.4429 169.377 44.3587 169.353 44.2328L169.35 44.2237Z" fill="var(--fill-0, white)"/>
<path d="M160.536 50.6341C161.527 53.2855 162.515 55.9344 163.518 58.6131H161.749C161.533 58.0129 161.311 57.4011 161.084 56.7774H157.871C157.647 57.3833 157.419 58.0042 157.189 58.6251H155.491C155.5 58.3881 158.123 51.285 158.44 50.6341H160.536ZM160.491 55.1575C160.15 54.2184 159.826 53.3247 159.503 52.4306C159.479 52.4306 159.455 52.4339 159.431 52.4368C159.12 53.3396 158.766 54.2275 158.464 55.1604H160.491V55.1575Z" fill="var(--fill-0, white)"/>
<path d="M129.175 43.5158H125.786V45.1897H129.465C129.474 45.7354 129.471 46.2423 129.465 46.7736C127.672 46.7736 125.911 46.7736 124.151 46.7736C124.079 46.5544 124.055 39.2383 124.13 38.7913H129.453V40.3302C128.244 40.3541 127.034 40.3273 125.83 40.3451C125.756 40.582 125.738 41.4402 125.798 41.938H129.175V43.5158Z" fill="var(--fill-0, white)"/>
<path d="M118.394 46.7674V40.3422H116.1V38.7884H122.319V40.3302H120.049C120.022 40.7863 120.037 41.2119 120.034 41.6379C120.031 42.0581 120.034 42.478 120.034 42.8978V45.4535C120.034 45.8827 120.034 46.3145 120.034 46.7674H118.394Z" fill="var(--fill-0, white)"/>
<path d="M176.61 50.637H178.233V57.0321C178.625 57.0593 178.999 57.0412 179.371 57.0441C179.748 57.0441 180.125 57.0441 180.502 57.0441H181.646V58.583C181.424 58.649 177.044 58.6672 176.61 58.6011V50.637Z" fill="var(--fill-0, white)"/>
<path d="M172.667 50.6279H174.266C174.335 50.8681 174.35 58.2502 174.281 58.616H172.667V50.6279Z" fill="var(--fill-0, white)"/>
<path d="M157.782 38.7822H159.383C159.452 39.0315 159.479 45.9694 159.419 46.7315C159.2 46.8033 158.18 46.8185 157.782 46.7525V38.7822Z" fill="var(--fill-0, white)"/>
<path d="M94.2449 19.7376H109.337C109.415 18.9517 109.394 18.2228 109.331 17.4909C109.286 16.978 109.203 16.471 109.086 15.9731C108.984 15.5201 108.852 15.0732 108.7 14.6293C108.134 12.9885 107.223 11.5726 105.912 10.4298C104.268 8.99892 102.331 8.279 100.182 8.11404C98.694 8.00003 97.2236 8.14703 95.7929 8.61799C94.0983 9.17292 92.6519 10.1088 91.4755 11.4496C90.6493 12.3885 90.0295 13.4564 89.6191 14.6412C89.4816 15.0342 89.3499 15.5201 89.257 15.9731C89.2541 15.9761 89.2541 15.9791 89.2541 15.9821H87.3349V15.4301H87.332C87.3229 14.4073 87.1552 13.4114 86.8051 12.4485C85.9549 10.0998 84.293 8.69898 81.8502 8.22501C80.8951 8.03904 79.9281 8.03305 78.964 8.16804C78.1167 8.28502 77.3082 8.53398 76.5538 8.94794C75.6706 9.43389 74.9521 10.1028 74.3353 10.8917C74.2874 10.9517 74.2275 10.9997 74.1259 11.1077V8.56399H69.0062V28.2386C69.3716 28.3016 73.8683 28.2896 74.1288 28.2206V27.8457C74.1288 24.5341 74.1288 21.2225 74.1288 17.9109C74.1288 17.197 74.1948 16.489 74.4042 15.8051C74.8023 14.5123 75.6078 13.6094 76.9221 13.2104C77.7484 12.9585 78.5956 12.9464 79.4429 13.0544C80.0507 13.1324 80.6135 13.3334 81.0896 13.7384C81.6854 14.2483 81.9518 14.9292 82.0955 15.6731C82.1016 15.7061 82.1227 15.8231 82.1405 15.9731C82.1706 16.1981 82.2032 16.498 82.2032 16.696V28.3526H87.332V19.7376H89.0236C89.0534 20.1366 89.1343 20.5236 89.2033 20.8325C89.6521 22.8543 90.5861 24.5971 92.1131 26.0129C93.0082 26.8438 94.0232 27.4737 95.1579 27.9177C96.8317 28.5686 98.5652 28.7666 100.346 28.6286C101.34 28.5536 102.302 28.3586 103.238 28.0287C104.433 27.6087 105.505 26.9818 106.43 26.1209C107.619 25.02 108.412 23.6672 108.93 22.1434C108.951 22.0894 108.948 22.0264 108.957 21.9574H103.658C103.631 22.0024 103.613 22.0294 103.601 22.0594C103.152 22.9713 102.439 23.5922 101.511 23.9792C100.349 24.4651 99.1577 24.5371 97.9425 24.2581C96.8317 24.0031 95.9213 23.4302 95.2297 22.5153C94.6731 21.7744 94.3857 20.9255 94.242 20.0196C94.23 19.9386 94.242 19.8576 94.242 19.7406L94.2449 19.7376ZM94.5054 15.9161C94.6611 15.3432 94.9064 14.8062 95.2508 14.3233C96.1967 13.0004 97.4991 12.3765 99.1131 12.3495C99.9331 12.3375 100.718 12.4725 101.457 12.8445C102.385 13.3124 103.047 14.0413 103.49 14.9742C103.631 15.2712 103.739 15.5892 103.87 15.9221C103.739 15.9491 102.814 15.9641 101.589 15.9731C100.364 15.9821 98.8377 15.9821 97.5172 15.9731C95.9064 15.9671 94.598 15.9461 94.5054 15.9161Z" fill="var(--fill-0, white)"/>
<path d="M109.337 19.8156L82.2061 19.8186V16.648C82.2061 16.441 82.1735 16.1291 82.1434 15.8951H109.086C109.203 16.4141 109.286 16.942 109.331 17.4759C109.394 18.2378 109.415 18.9967 109.337 19.8156Z" fill="var(--fill-0, white)"/>
</g>
</svg>
