<svg viewBox="0 0 20 20" fill="none" xmlns="http://www.w3.org/2000/svg">
<g id="SVG">
<path id="Vector" d="M19.5817 5.155C19.4687 4.7294 19.2459 4.34095 18.9355 4.02855C18.6252 3.71616 18.2382 3.49078 17.8133 3.375C16.2542 2.95417 10 2.95417 10 2.95417C10 2.95417 3.74583 2.95417 2.18583 3.375C1.76117 3.49099 1.37441 3.71644 1.06423 4.02882C0.754051 4.34119 0.531326 4.72953 0.418334 5.155C2.38419e-07 6.725 2.38419e-07 10 2.38419e-07 10C2.38419e-07 10 2.38419e-07 13.275 0.418334 14.845C0.531322 15.2706 0.754146 15.6591 1.06449 15.9714C1.37484 16.2838 1.76182 16.5092 2.18667 16.625C3.74583 17.0458 10 17.0458 10 17.0458C10 17.0458 16.2542 17.0458 17.8142 16.625C18.2391 16.5093 18.6261 16.2839 18.9364 15.9715C19.2468 15.6591 19.4696 15.2706 19.5825 14.845C20 13.275 20 10 20 10C20 10 20 6.725 19.5817 5.155ZM7.95417 12.9733V7.02667L13.1817 10L7.95417 12.9733Z" fill="var(--fill-0, white)"/>
</g>
</svg>
