<svg viewBox="0 0 514.4 610.695" fill="none" xmlns="http://www.w3.org/2000/svg">
<path id="Vector" opacity="0.99" d="M204.204 110.655C267.732 108.518 311.817 47.6726 373.552 39.7746C402.663 36.0534 438.85 47.5754 450.918 76.5223C455.864 88.388 456.485 111.185 439.755 113.442C431.991 114.488 415.149 109.594 406.227 108.503C356.56 102.458 302.261 108.069 255.373 125.577C244.016 129.821 220.463 139.079 227.211 155.263C233.958 171.448 267.209 164.828 280.562 161.973C319.215 153.709 348.341 130.023 388.361 127.803C437.132 125.098 497.82 143.061 511.845 195.672C522.829 236.873 497.835 294.864 447.645 283.036C409.321 274.002 387.166 222.893 355.238 201.344C331.08 185.032 300.176 180.048 272.036 187.834C259.714 191.241 238.008 203.122 244.187 218.993C251.331 237.344 279.471 220.906 291.037 217.297C307.416 212.186 330.49 211.805 346.159 219.389C360.961 226.555 368.471 241.521 352.839 252.953C339.808 262.488 317.683 267.808 301.715 266.822C277.961 265.357 254.17 250.712 230.379 258.266C199.579 268.047 199.601 301.343 231.261 310.376C266.2 320.344 305.488 290.456 340.682 285.636C398.74 277.686 437.565 318.514 455.267 369.563C484.131 452.787 377.691 466.82 330.117 425.223C310.301 407.895 302.918 377.76 285.613 358.392C271.916 343.067 230.424 332.173 212.177 342.447C205.31 346.317 197.367 359.767 206.423 364.347C223.662 373.067 250.531 361.344 261.949 378.35C272.41 393.937 264.9 413.723 246.803 418.161C221.323 424.408 223.781 401.506 209.046 390.119C190.74 375.967 161.322 390.47 151.01 408.298C143.075 422.025 148.111 426.851 162.189 429.497C175.736 432.045 187.661 430.289 200.834 436.431C216.444 443.716 237.373 465.512 228.989 484.028C224.439 494.078 212.693 498.546 202.478 494.564C191.382 490.245 187.414 475.36 178.059 468.172C162.473 456.202 139.182 464.302 131.702 481.629C126.995 492.546 128.198 498.188 141.065 499.181C156.749 500.399 170.782 488.78 176.767 511.301C179.576 521.859 175.526 531.446 164.789 534.891C150.853 539.359 145.645 525.095 133.683 532.178C129.169 534.853 128.191 538.664 128.721 543.655C130.253 558.211 160.836 582.518 172.567 590.961C179.195 595.728 191.285 600.421 177.297 607.923C160.276 617.054 136.701 601.654 123.879 590.333C101.171 570.286 110.721 553.01 103.264 528.009C102.315 524.826 97.9585 515.493 93.6172 517.473C88.1028 519.991 80.2945 541.391 75.6618 547.391C68.1299 557.135 54.852 562.582 46.6476 550.253C33.6237 530.691 61.3228 506.235 77.9183 499.577C85.114 496.693 93.2137 496.006 100.096 492.613C116.011 484.753 140.676 447.968 113.194 439.629C92.9522 433.479 74.3467 454.528 53.5369 457.263C32.7271 459.998 2.18863 450.77 18.5675 423.788C32.1443 401.424 64.7077 398.293 87.789 405.257C97.3159 408.134 107.022 416.63 116.968 414.59C129.184 412.087 124.813 389.043 125.927 380.211C126.98 371.827 132.226 362.591 134.325 354.238C142.903 320.098 119.837 320.561 97.5475 335.393C79.1064 347.67 74.78 368.457 53.2305 377.752C30.0521 387.757 -3.42291 381.69 0.283246 350.21C3.0255 326.89 50.2492 294.476 71.0066 287.183C93.3333 279.337 110.123 286.578 127.585 300.461C134.392 305.878 148.149 321.809 155.994 322.16C173.823 322.952 164.931 299.953 158.931 291.539C132.495 254.493 71.2607 276.192 48.3961 248.149C34.0272 230.53 47.0212 205.192 68.6604 202.644C106.701 198.161 123.633 247.529 157.1 254.523C191.15 261.636 198.496 223.835 170.587 208.905C144.965 195.187 120.741 197.017 100.775 169.625C84.576 147.41 85.4502 109.026 116.624 101.165C162.219 89.6732 157.802 162.384 194.304 167.248C202.075 168.287 203.748 167.376 204.189 159.59C205.983 127.811 169.855 106.934 160.649 78.3679C153.693 56.781 157.093 28.4842 172.097 10.9248C179.232 2.57846 189.962 -1.59097 194.528 11.6122C199.848 26.9898 185.741 35.493 178.627 46.5966C172.687 55.8769 170.953 70.0515 182.939 74.744C189.006 66.0016 194.999 57.0351 201.664 48.7112C218.222 28.021 247.221 0.217282 275.563 0.000590771C288.654 -0.0965465 303.591 11.799 296.41 25.3982C289.229 38.9975 245.57 52.7162 230.416 62.5196C221.779 68.1087 204.204 86.1987 204.204 96.8315V110.655Z" fill="var(--fill-0, #956A47)"/>
</svg>
