<svg viewBox="0 0 321.764 381.998" fill="none" xmlns="http://www.w3.org/2000/svg">
<path id="Vector" opacity="0.99" d="M172.372 0.5C176.33 0.47064 180.581 2.26133 183.283 5.07715C185.964 7.87116 187.092 11.6291 184.967 15.6533C183.91 17.6538 181.463 19.7267 178.131 21.8184C174.819 23.8975 170.711 25.9482 166.429 27.9336C162.139 29.9224 157.72 31.8252 153.739 33.6328C149.778 35.4315 146.262 37.1317 143.857 38.6875C141.102 40.4703 136.966 44.2114 133.521 48.335C131.795 50.3995 130.231 52.5745 129.096 54.6631C127.966 56.7415 127.232 58.7834 127.232 60.5693V69.7334L127.749 69.7158C147.768 69.0424 164.704 59.1171 181.381 48.8242C198.097 38.5072 214.547 27.8296 233.726 25.376C242.747 24.2229 252.868 25.4323 261.661 29.1699C270.452 32.9067 277.882 39.1546 281.594 48.0586C283.109 51.6929 283.962 57.0167 283.156 61.5801C282.754 63.857 281.945 65.913 280.631 67.4775C279.325 69.0325 277.5 70.1274 275.006 70.4639C273.855 70.619 272.335 70.5568 270.59 70.3525C268.851 70.1491 266.919 69.8094 264.954 69.4258C261.048 68.6631 256.975 67.7181 254.161 67.374C223.02 63.5838 188.973 67.1002 159.564 78.0811V78.082C156.019 79.4068 150.493 81.54 146.384 84.6348C144.327 86.1838 142.586 88.0011 141.64 90.1162C140.684 92.251 140.554 94.6546 141.662 97.3115C142.785 100.005 145.006 101.724 147.768 102.765C150.521 103.802 153.845 104.18 157.26 104.184C164.09 104.191 171.425 102.698 175.6 101.806C187.748 99.2084 198.403 94.1849 209.084 89.6719C219.782 85.1516 230.528 81.1314 242.953 80.4424C258.142 79.6 275.174 81.9782 289.484 88.6475C303.787 95.3133 315.345 106.248 319.684 122.524C323.084 135.28 320.912 150.65 314.011 161.896C310.564 167.514 305.948 172.085 300.278 174.799C294.614 177.509 287.868 178.382 280.123 176.557C268.311 173.772 258.946 164.49 249.985 154.103C245.527 148.934 241.147 143.467 236.664 138.485C232.172 133.493 227.529 128.933 222.486 125.529C207.254 115.244 187.771 112.102 170.029 117.011C166.123 118.091 160.729 120.511 156.785 123.937C152.844 127.359 150.231 131.909 152.276 137.164C153.453 140.186 155.52 141.807 158.064 142.462C160.574 143.107 163.515 142.806 166.476 142.09C169.445 141.372 172.491 140.222 175.231 139.118C177.993 138.007 180.414 136.956 182.197 136.399C192.359 133.229 206.654 133.007 216.31 137.681C220.864 139.886 224.219 143.257 225.275 146.868C225.8 148.664 225.762 150.528 225.017 152.371C224.269 154.219 222.799 156.076 220.411 157.822H220.41C216.4 160.756 210.966 163.058 205.278 164.548C199.592 166.037 193.689 166.706 188.758 166.401C181.388 165.947 174.041 163.453 166.543 161.624C159.086 159.805 151.532 158.666 143.954 161.072C134.165 164.181 129.157 171.079 129.23 178.027C129.304 184.979 134.461 191.756 144.52 194.626C155.616 197.792 167.361 194.617 178.992 190.345C181.905 189.275 184.818 188.133 187.716 187.001C190.615 185.868 193.499 184.743 196.363 183.706C202.093 181.631 207.718 179.912 213.169 179.165C249.146 174.239 273.269 199.508 284.304 231.331C288.784 244.25 287.99 254.407 283.905 261.99C279.817 269.58 272.385 274.677 263.42 277.375C245.465 282.778 221.562 278.495 206.821 265.606C200.701 260.254 196.485 252.909 192.426 245.323C188.382 237.767 184.489 229.959 179.027 223.846C174.644 218.941 165.896 214.809 156.868 212.7C152.342 211.643 147.716 211.088 143.493 211.204C139.54 211.313 135.908 212.012 133.038 213.468L132.475 213.77C130.216 215.043 127.827 217.848 126.719 220.708C126.163 222.143 125.909 223.643 126.2 225.001C126.497 226.383 127.349 227.568 128.896 228.351C131.675 229.757 134.822 230.329 138.054 230.577C141.271 230.824 144.653 230.752 147.838 230.84C154.286 231.018 160.021 231.853 163.437 236.942C169.791 246.41 165.235 258.388 154.26 261.08C150.34 262.041 147.562 261.865 145.448 261.012C143.334 260.158 141.813 258.599 140.461 256.646C139.784 255.67 139.155 254.604 138.516 253.487C137.879 252.376 137.23 251.209 136.524 250.059C135.11 247.754 133.441 245.463 131.067 243.629C125.157 239.06 117.493 239.149 110.56 241.74C103.627 244.331 97.3165 249.457 94.0264 255.146V255.146C91.5372 259.452 90.9367 262.593 92.3672 264.89C93.073 266.022 94.2351 266.877 95.7422 267.55C97.2496 268.223 99.1407 268.731 101.358 269.147C105.621 269.949 109.666 270.079 113.574 270.479C117.504 270.882 121.366 271.559 125.413 273.446C130.217 275.688 135.863 280.18 139.65 285.534C143.443 290.896 145.296 297.004 142.78 302.56C140.049 308.593 132.988 311.289 126.835 308.891H126.834C123.522 307.601 121.241 304.722 119.02 301.492C116.83 298.308 114.69 294.762 111.684 292.452C101.637 284.736 86.7106 289.976 81.9229 301.067V301.068C81.1796 302.792 80.657 304.335 80.4297 305.692C80.2024 307.05 80.2637 308.261 80.7324 309.29C81.6835 311.378 84.1571 312.431 88.1992 312.743C90.7143 312.938 93.1521 312.618 95.417 312.264C97.7043 311.905 99.7827 311.519 101.674 311.538C103.543 311.557 105.167 311.974 106.552 313.183C107.949 314.402 109.164 316.481 110.087 319.954V319.955C110.941 323.165 110.743 326.189 109.552 328.655C108.364 331.115 106.165 333.066 102.925 334.105C98.7729 335.437 95.947 333.999 93.0977 332.667C91.6835 332.006 90.2338 331.357 88.6484 331.177C87.0386 330.994 85.3228 331.296 83.3652 332.455C81.871 333.341 80.9302 334.437 80.4199 335.75C79.9779 336.887 79.8721 338.153 79.9668 339.523L80.0195 340.117C80.2736 342.529 81.7156 345.275 83.7715 348.081C85.8379 350.901 88.5707 353.843 91.4912 356.653C97.3332 362.274 103.97 367.411 107.651 370.061C108.693 370.81 109.988 371.583 111.108 372.327C112.263 373.094 113.261 373.849 113.863 374.625C114.16 375.007 114.344 375.373 114.413 375.728C114.481 376.073 114.446 376.436 114.261 376.835C113.876 377.663 112.832 378.662 110.666 379.823H110.665C105.541 382.572 99.3736 381.657 93.4072 379.101C87.4532 376.549 81.8065 372.407 77.8193 368.887C70.8219 362.709 68.8098 356.989 67.958 350.862C67.5271 347.762 67.3975 344.601 67.0762 341.156C66.7567 337.732 66.2515 334.088 65.0723 330.134C64.7621 329.094 63.9104 327.086 62.7803 325.482C62.2166 324.683 61.5573 323.946 60.8291 323.49C60.0865 323.026 59.2268 322.832 58.3516 323.231C57.8291 323.47 57.3202 323.91 56.832 324.455C56.3386 325.006 55.8378 325.697 55.3359 326.477C54.3323 328.036 53.2974 329.994 52.2891 332.003C51.2709 334.031 50.2973 336.074 49.374 337.889C48.4529 339.7 47.6233 341.199 46.9316 342.095C44.6252 345.078 41.4677 347.363 38.3145 347.982C36.7457 348.291 35.1827 348.187 33.7129 347.562C32.2429 346.936 30.8329 345.775 29.5947 343.914C25.7049 338.071 27.8386 331.441 32.4043 325.624C36.9602 319.819 43.8151 315.007 48.9248 312.957C51.1365 312.071 53.4888 311.521 55.8711 310.919C58.2378 310.321 60.6273 309.672 62.832 308.585H62.833C65.4009 307.317 68.2813 304.905 70.8838 301.947C73.4904 298.984 75.8476 295.439 77.3486 291.871C78.8454 288.313 79.516 284.67 78.6582 281.549C77.7892 278.387 75.3804 275.86 70.9502 274.516C64.4155 272.53 58.1784 274.951 52.0576 277.977C48.9686 279.503 45.9359 281.171 42.8232 282.583C39.724 283.989 36.6071 285.11 33.4229 285.528C26.9855 286.374 19.0889 285.358 14.1006 282.106C11.6204 280.49 9.89152 278.344 9.37012 275.624C8.88026 273.068 9.44035 269.921 11.5898 266.115L12.042 265.345C16.1962 258.502 23.2708 254.574 31.1387 252.899C39.008 251.225 47.6238 251.817 54.7686 253.973C56.2191 254.411 57.6873 255.066 59.1855 255.794C60.6687 256.515 62.208 257.322 63.7324 258.021C66.7892 259.422 69.9892 260.493 73.2656 259.821C75.3579 259.392 76.7315 258.075 77.6133 256.312C78.4853 254.568 78.8882 252.371 79.0693 250.104C79.2509 247.831 79.2128 245.438 79.1738 243.289C79.1345 241.119 79.0962 239.226 79.2646 237.89C79.5856 235.336 80.5487 232.633 81.6162 229.878C82.6751 227.146 83.8404 224.354 84.5068 221.702C85.858 216.325 85.9838 212.239 85.1328 209.286C84.2725 206.302 82.4163 204.492 79.9072 203.722C77.4329 202.962 74.378 203.227 71.1006 204.24C67.8146 205.256 64.2551 207.038 60.7402 209.377C54.8876 213.273 51.2718 218.526 47.4902 223.436C43.6966 228.36 39.7149 232.976 33.0986 235.83C25.945 238.918 17.2229 239.512 10.6113 236.94C7.31418 235.658 4.55668 233.596 2.76074 230.679C0.966091 227.764 0.105096 223.951 0.673828 219.12C1.08645 215.611 3.18608 211.698 6.37793 207.701C9.56154 203.715 13.7913 199.696 18.3848 195.979C27.5801 188.538 38.1609 182.364 44.5811 180.108C51.4731 177.687 57.4853 177.6 63.1172 179.175C68.4091 180.655 73.3944 183.61 78.4775 187.536L79.4951 188.334C80.5386 189.164 81.8577 190.406 83.3437 191.824C84.8228 193.235 86.459 194.812 88.1152 196.29C89.7704 197.767 91.4609 199.159 93.0557 200.197C94.6352 201.226 96.1881 201.953 97.5547 202.015C100.449 202.143 102.383 201.306 103.501 199.766C104.596 198.256 104.819 196.189 104.581 194.043C104.104 189.745 101.732 184.752 99.8203 182.071C91.4097 170.285 77.4747 167.877 64.0674 166.184C57.3305 165.333 50.7309 164.664 44.9121 163.119C39.1025 161.576 34.142 159.175 30.6602 154.904C26.3014 149.56 26.088 143.051 28.6162 137.666C31.1485 132.272 36.4226 128.028 43.0068 127.253C54.6498 125.881 63.0902 132.729 71.334 140.65C75.4338 144.59 79.4939 148.801 83.8252 152.286C88.1649 155.778 92.8243 158.581 98.166 159.697C103.581 160.828 107.989 160.184 111.269 158.377C114.55 156.569 116.659 153.62 117.505 150.232C119.17 143.564 115.946 135.258 107.354 130.458L106.94 130.232C102.901 128.07 98.9218 126.523 95.043 125.152C91.1517 123.778 87.3934 122.59 83.7285 121.131C76.4345 118.226 69.6133 114.277 63.4404 105.808C58.4491 98.9628 56.0888 89.6192 57.375 81.4014C58.6573 73.2094 63.5503 66.1667 73.0723 63.7656C80.0572 62.0051 85.0692 63.4702 89.0498 66.668C93.0687 69.8966 96.0701 74.9164 98.9355 80.3447C101.782 85.7376 104.497 91.5411 107.925 96.1611C111.365 100.798 115.58 104.327 121.474 105.112C122.693 105.275 123.708 105.367 124.542 105.326C125.378 105.286 126.085 105.11 126.648 104.692C127.217 104.271 127.572 103.652 127.804 102.86C128.033 102.076 128.153 101.08 128.223 99.8535C128.795 89.712 123.31 81.3453 117.08 73.3613C113.947 69.3466 110.641 65.4478 107.736 61.4092C104.839 57.3805 102.38 53.2629 100.964 48.8672C96.655 35.4964 98.7777 17.9855 108.029 7.1582C110.227 4.58795 112.913 2.74394 115.319 2.49121C116.503 2.36696 117.619 2.6253 118.608 3.37598C119.607 4.13356 120.514 5.42296 121.207 7.42676C122.801 12.0339 121.504 15.6015 119.212 18.9238C118.057 20.5969 116.661 22.1904 115.254 23.8232C113.855 25.4467 112.447 27.1067 111.312 28.877C109.412 31.8458 108.168 35.6176 108.378 39.0566C108.589 42.5285 110.291 45.6693 114.248 47.2188L114.616 47.3633L114.842 47.0381C118.644 41.5594 122.379 35.9715 126.534 30.7822C131.695 24.3331 138.789 16.7835 146.79 10.834C154.55 5.06401 163.11 0.837443 171.556 0.518555L172.372 0.5Z" stroke="#956A47"/>
</svg>