<svg viewBox="0 0 411.015 487.957" fill="none" xmlns="http://www.w3.org/2000/svg">
<path id="Vector" opacity="0.99" d="M163.163 88.4153C213.923 86.7078 249.148 38.0913 298.475 31.7806C321.735 28.8074 350.65 38.0137 360.292 61.1428C364.244 70.6237 364.74 88.8392 351.372 90.6422C345.169 91.4781 331.712 87.5675 324.583 86.6958C284.898 81.8658 241.512 86.3496 204.048 100.338C194.973 103.729 176.154 111.126 181.546 124.058C186.937 136.99 213.505 131.7 224.174 129.42C255.059 122.816 278.331 103.89 310.308 102.117C349.276 99.956 397.768 114.309 408.974 156.346C417.75 189.266 397.78 235.602 357.677 226.151C327.055 218.933 309.353 178.096 283.842 160.877C264.539 147.844 239.846 143.862 217.362 150.083C207.517 152.805 190.173 162.298 195.11 174.979C200.818 189.642 223.302 176.508 232.544 173.624C245.631 169.54 264.068 169.236 276.588 175.296C288.415 181.021 294.415 192.98 281.925 202.115C271.513 209.733 253.835 213.984 241.076 213.195C222.096 212.025 203.087 200.323 184.077 206.359C159.467 214.175 159.485 240.778 184.782 247.997C212.699 255.961 244.091 232.08 272.211 228.229C318.601 221.876 349.623 254.498 363.767 295.288C386.83 361.785 301.782 372.998 263.769 339.761C247.936 325.916 242.037 301.837 228.21 286.362C217.266 274.117 184.113 265.412 169.533 273.621C164.047 276.714 157.7 287.461 164.936 291.12C178.71 298.088 200.179 288.72 209.302 302.309C217.66 314.763 211.66 330.572 197.2 334.119C176.841 339.11 178.805 320.811 167.032 311.712C152.404 300.404 128.899 311.993 120.66 326.238C114.32 337.205 118.344 341.062 129.592 343.176C140.416 345.212 149.945 343.809 160.47 348.716C172.942 354.537 189.665 371.953 182.967 386.747C179.331 394.778 169.945 398.348 161.784 395.166C152.918 391.715 149.748 379.822 142.273 374.078C129.819 364.514 111.209 370.986 105.233 384.831C101.471 393.554 102.433 398.061 112.714 398.855C125.245 399.828 136.458 390.545 141.24 408.539C143.485 416.975 140.249 424.635 131.669 427.388C120.535 430.958 116.373 419.56 106.815 425.22C103.209 427.358 102.427 430.403 102.851 434.391C104.074 446.021 128.511 465.443 137.885 472.189C143.18 475.998 152.84 479.747 141.664 485.742C128.063 493.037 109.227 480.733 98.9818 471.687C80.8379 455.669 88.468 441.866 82.5096 421.889C81.7514 419.346 78.2707 411.889 74.8019 413.471C70.3958 415.483 64.1568 432.582 60.4552 437.376C54.437 445.161 43.8277 449.514 37.2723 439.663C26.866 424.032 48.9981 404.491 62.2582 399.172C68.0076 396.867 74.4795 396.318 79.9782 393.607C92.695 387.327 112.403 357.935 90.4442 351.272C74.2705 346.358 59.4044 363.177 42.777 365.362C26.1496 367.547 1.74876 360.173 14.8358 338.614C25.6839 320.745 51.7026 318.244 70.145 323.808C77.7572 326.107 85.5127 332.895 93.4592 331.265C103.221 329.265 99.7281 310.852 100.618 303.795C101.459 297.097 105.651 289.717 107.328 283.043C114.182 255.764 95.7518 256.134 77.9423 267.985C63.2075 277.795 59.7507 294.404 42.5322 301.831C24.0122 309.825 -2.73497 304.978 0.226319 279.825C2.41743 261.191 40.15 235.292 56.7356 229.465C74.575 223.196 87.9904 228.981 101.943 240.074C107.382 244.402 118.373 257.131 124.642 257.412C138.888 258.045 131.783 239.668 126.989 232.945C105.866 203.344 56.9386 220.682 38.6694 198.276C27.1884 184.198 37.5708 163.952 54.8609 161.916C85.256 158.334 98.7848 197.78 125.526 203.368C152.733 209.052 158.602 178.848 136.302 166.919C115.83 155.958 96.4742 157.421 80.5215 135.533C67.5778 117.783 68.2763 87.1138 93.1846 80.833C129.616 71.6506 126.087 129.748 155.252 133.635C161.461 134.465 162.799 133.736 163.151 127.515C164.584 102.123 135.717 85.4421 128.362 62.6174C122.803 45.3691 125.52 22.7594 137.508 8.72911C143.21 2.06024 151.784 -1.27121 155.431 9.27839C159.682 21.5654 148.41 28.3596 142.726 37.2315C137.98 44.6467 136.595 55.9724 146.171 59.7218C151.019 52.7365 155.808 45.5721 161.133 38.9211C174.363 22.3893 197.534 0.173612 220.18 0.000472037C230.64 -0.0771424 242.575 9.42764 236.837 20.2937C231.1 31.1597 196.215 42.1212 184.107 49.9543C177.205 54.4202 163.163 68.8744 163.163 77.3702V88.4153Z" fill="var(--fill-0, #956A47)"/>
</svg>
