<svg viewBox="0 0 173 53" fill="none" xmlns="http://www.w3.org/2000/svg">
<g id="Vector">
<path d="M133.834 0.0027045C133.947 0.0432719 134.06 0.0865439 134.176 0.118998C135.398 0.467878 136.007 1.63352 135.838 2.83161C135.675 3.98102 134.782 4.79778 133.636 4.89784C132.941 4.96004 132.293 4.82752 131.735 4.38669C130.963 3.77818 130.689 2.9479 130.853 1.9851C131.016 1.01419 131.619 0.413788 132.522 0.118998C132.638 0.0811349 132.752 0.0405674 132.865 0C133.186 0 133.51 0 133.831 0L133.834 0.0027045Z" fill="white"/>
<path d="M173 25.5061C172.755 25.5007 172.508 25.4953 172.263 25.4953C171.125 25.4953 169.99 25.4953 168.852 25.4953H168.518C168.512 25.3492 168.505 25.2275 168.505 25.1058C168.505 21.828 168.505 18.5528 168.502 15.275C168.502 14.7611 168.452 14.2473 168.318 13.7497C168.031 12.6868 167.362 12.0242 166.303 11.8159C165.447 11.6483 164.588 11.6645 163.751 11.9403C162.748 12.273 162.079 12.9681 161.715 13.9768C161.497 14.5826 161.394 15.2128 161.394 15.8592C161.394 18.9423 161.394 22.0254 161.394 25.1058V25.4466C161.167 25.5088 157.215 25.5196 156.888 25.4628V7.72133H161.402V9.92009C161.42 9.9282 161.441 9.93902 161.46 9.94713C161.512 9.89034 161.57 9.83625 161.615 9.77405C162.321 8.841 163.198 8.13783 164.278 7.71593C164.947 7.45359 165.642 7.32377 166.353 7.29402C167.206 7.25887 168.052 7.32918 168.876 7.58341C170.369 8.04317 171.47 8.98433 172.197 10.3934C172.581 11.1398 172.797 11.9431 172.924 12.7706C172.953 12.9518 172.942 13.1384 172.958 13.3223C172.963 13.3764 172.987 13.4305 173 13.4846V25.5061Z" fill="white"/>
<path d="M113.313 52.9973C113.274 52.9784 113.234 52.9513 113.192 52.9432C111.596 52.6673 110.416 51.4584 110.206 49.833C110.077 48.8216 110.237 47.8533 110.854 47.015C111.549 46.063 112.478 45.5626 113.64 45.5221C114.174 45.5031 114.696 45.5491 115.199 45.7547C116.45 46.2685 117.216 47.1989 117.453 48.5592C117.63 49.5707 117.464 50.5308 116.89 51.3908C116.321 52.2427 115.531 52.7431 114.546 52.9324C114.475 52.9459 114.409 52.9757 114.34 52.9973H113.313ZM111.652 49.2299C111.652 49.2678 111.652 49.3084 111.652 49.3462C111.673 50.2008 112.023 50.877 112.758 51.2826C113.511 51.6991 114.298 51.691 115.025 51.2096C115.839 50.6687 116.11 49.8601 116 48.8919C115.834 47.4342 114.427 46.5876 113.074 47.0609C112.281 47.3395 111.609 48.1833 111.652 49.2299Z" fill="var(--fill-0, #FFF5EC)"/>
<path d="M147.023 52.9973C146.862 52.9567 146.699 52.9216 146.538 52.8783C145.479 52.6024 144.805 51.9317 144.555 50.831C144.537 50.7472 144.529 50.6606 144.516 50.5551H145.972C145.988 50.5903 146.006 50.6146 146.014 50.6417C146.233 51.3259 146.741 51.5747 147.391 51.5856C147.636 51.591 147.884 51.5747 148.124 51.5288C148.39 51.4774 148.624 51.3476 148.74 51.069C148.874 50.7499 148.79 50.447 148.482 50.3144C148.179 50.1846 147.855 50.1035 147.536 50.0169C147.125 49.9061 146.701 49.8412 146.298 49.7032C145.972 49.5896 145.656 49.4247 145.358 49.2408C145.032 49.0379 144.842 48.708 144.75 48.3266C144.489 47.2557 145 46.1874 145.998 45.779C146.915 45.4031 147.847 45.4004 148.766 45.7601C149.498 46.0467 149.935 46.6255 150.133 47.3963C150.159 47.4991 150.17 47.6045 150.193 47.7316H148.724C148.711 47.7073 148.684 47.6667 148.669 47.6262C148.513 47.2421 148.226 47.0231 147.839 46.9528C147.484 46.8878 147.123 46.877 146.77 46.9852C146.52 47.0609 146.304 47.1935 146.209 47.472C146.096 47.802 146.183 48.0616 146.499 48.1779C146.799 48.2888 147.115 48.3591 147.426 48.4429C147.863 48.5619 148.303 48.6755 148.74 48.8026C148.911 48.854 149.074 48.9351 149.238 49.0109C149.993 49.3652 150.301 49.9899 150.267 50.8175C150.225 51.8479 149.604 52.5916 148.561 52.8702C148.39 52.9162 148.216 52.9567 148.045 53H147.02L147.023 52.9973Z" fill="var(--fill-0, #FFF5EC)"/>
<path d="M22.0188 10.5962H17.2205C17.1783 10.5205 17.1309 10.4366 17.0888 10.3528C16.1802 8.54621 14.7502 7.42384 12.8145 7.01817C11.2713 6.69633 9.75699 6.85049 8.32697 7.55095C6.55723 8.4191 5.45377 9.87682 4.89546 11.7862C4.64001 12.657 4.53203 13.5549 4.57417 14.4609C4.64791 16.1512 5.10351 17.709 6.17536 19.0342C7.0497 20.1133 8.15843 20.8219 9.47783 21.1789C10.3074 21.4034 11.1554 21.4845 12.0087 21.4088C13.5282 21.2736 14.8687 20.7002 15.9616 19.586C16.4199 19.1181 16.8017 18.588 17.0888 17.9876C17.1336 17.8929 17.1862 17.7983 17.2389 17.6928H22.0715C22.0161 17.8821 21.9714 18.0552 21.9161 18.2256C21.4289 19.7401 20.6809 21.0978 19.6275 22.2769C18.316 23.7455 16.728 24.7515 14.8792 25.333C14.0628 25.5899 13.2306 25.7414 12.3774 25.8036C10.3811 25.9523 8.45338 25.6765 6.61517 24.8516C4.33452 23.8293 2.59111 22.1931 1.40074 19.9457C0.716022 18.6502 0.307822 17.2655 0.12084 15.8078C0.0207656 15.0343 -0.0319054 14.2608 0.0207656 13.4873C0.126107 11.9106 0.4474 10.3799 1.11632 8.93836C1.57192 7.95933 2.13287 7.05332 2.83866 6.24468C3.713 5.24402 4.72165 4.41915 5.88567 3.79711C7.27092 3.05608 8.74044 2.63418 10.2969 2.49625C12.4748 2.30153 14.5579 2.6477 16.5252 3.62943C17.4838 4.10813 18.345 4.73557 19.1166 5.49824C20.0199 6.39072 20.7626 7.40491 21.2972 8.56514C21.5658 9.15201 21.7633 9.77405 21.9872 10.3799C22.0082 10.4394 22.0082 10.5097 22.0188 10.5935V10.5962Z" fill="white"/>
<path d="M32.0868 25.8847C30.6515 25.8847 29.2847 25.5818 28.0022 24.93C25.8822 23.8482 24.4127 22.1525 23.6068 19.8645C23.296 18.9829 23.138 18.0741 23.0854 17.1357C22.9906 15.4616 23.2829 13.8714 23.986 12.365C24.3626 11.5536 24.8577 10.8234 25.4635 10.1689C26.1455 9.42787 26.9224 8.81395 27.802 8.34337C28.6369 7.89713 29.5244 7.59693 30.4514 7.42655C31.2573 7.2805 32.071 7.25075 32.8822 7.31837C33.9645 7.40761 35.0048 7.68077 35.9924 8.15135C37.504 8.87345 38.7286 9.94443 39.6451 11.3751C40.4536 12.6381 40.9171 14.0309 41.0699 15.5346C41.1989 16.7922 41.1094 18.0336 40.7802 19.2533C40.3957 20.684 39.7136 21.9416 38.7207 23.0261C37.986 23.8293 37.1353 24.4649 36.1741 24.9436C35.2576 25.3979 34.2885 25.69 33.2746 25.8036C32.8795 25.8469 32.4845 25.8631 32.0895 25.8901L32.0868 25.8847ZM36.527 16.4298C36.5138 16.2757 36.5033 15.9836 36.4611 15.6969C36.2742 14.4609 35.7633 13.4035 34.7836 12.6273C33.8092 11.8511 32.6952 11.5644 31.4758 11.7294C30.1064 11.9133 29.0266 12.6057 28.3314 13.8254C27.4386 15.394 27.3859 17.0573 28.0391 18.7259C28.4868 19.8699 29.2979 20.6759 30.4251 21.1221C31.2178 21.4358 32.0394 21.5143 32.8769 21.3601C34.0383 21.1437 34.9785 20.5623 35.6553 19.5616C36.2636 18.6637 36.5112 17.6495 36.5244 16.4298H36.527Z" fill="white"/>
<path d="M146.312 25.8658C144.874 25.8901 143.525 25.5845 142.253 24.9571C141.229 24.4513 140.331 23.7644 139.565 22.8936C138.688 21.8956 138.061 20.757 137.682 19.4724C137.455 18.7097 137.331 17.9281 137.287 17.1276C137.213 15.8592 137.363 14.6286 137.763 13.4332C138.501 11.2264 139.873 9.55228 141.864 8.4218C142.92 7.82411 144.052 7.47252 145.253 7.34541C147.057 7.15069 148.787 7.42384 150.407 8.26494C152.874 9.54687 154.444 11.5915 155.073 14.3528C155.603 16.6732 155.374 18.9369 154.286 21.0572C153.088 23.3885 151.205 24.8705 148.729 25.5575C147.992 25.763 147.144 25.8874 146.312 25.8631V25.8658ZM141.816 16.5542C141.843 16.8733 141.853 17.1952 141.9 17.5089C142.082 18.6718 142.572 19.6725 143.47 20.4244C144.479 21.2682 145.643 21.5629 146.923 21.3763C148.608 21.1275 149.756 20.1647 150.38 18.5501C150.744 17.609 150.815 16.6245 150.657 15.6293C150.457 14.3825 149.917 13.3278 148.916 12.5651C147.971 11.8484 146.899 11.5725 145.732 11.7213C144.315 11.9025 143.236 12.6219 142.506 13.8795C142.03 14.7016 141.824 15.5995 141.819 16.5542H141.816Z" fill="white"/>
<path d="M42.6842 7.71052H47.1981V9.92009C47.2166 9.9282 47.235 9.93632 47.2561 9.94714C47.3087 9.89034 47.3667 9.83625 47.4141 9.77405C48.1199 8.841 48.9968 8.13783 50.0792 7.71593C50.7666 7.44818 51.4803 7.31836 52.2124 7.29402C53.0472 7.26427 53.8742 7.3373 54.68 7.58611C56.1627 8.04317 57.2609 8.97622 57.9851 10.3744C58.417 11.2074 58.6593 12.1026 58.7462 13.0384C58.7805 13.4143 58.8015 13.7929 58.8042 14.1716C58.8094 17.8091 58.8042 21.4467 58.8042 25.0842C58.8042 25.2086 58.8042 25.333 58.8042 25.4764H54.3166C54.3113 25.3709 54.3008 25.26 54.3008 25.1491C54.3008 23.3885 54.3008 21.6279 54.3008 19.8672C54.3008 18.3311 54.3061 16.7922 54.2982 15.2561C54.2955 14.753 54.2481 14.2473 54.1165 13.7578C53.832 12.6949 53.1684 12.0269 52.1097 11.8159C51.2432 11.6429 50.3768 11.6618 49.5314 11.9458C48.5386 12.2784 47.8776 12.9681 47.5141 13.9687C47.2956 14.5745 47.1902 15.2047 47.1902 15.8511C47.1902 18.9342 47.1902 22.0173 47.1902 25.1004V25.4439C46.9769 25.5088 43.0687 25.5277 42.6842 25.4655V7.71052Z" fill="white"/>
<path d="M110.219 14.4636C110.069 13.9822 109.871 13.5333 109.576 13.133C109.102 12.4921 108.481 12.0648 107.741 11.8295C106.748 11.5157 105.75 11.5022 104.754 11.8295C103.464 12.2541 102.603 13.1493 102.139 14.4312C101.628 15.8537 101.597 17.3061 102.113 18.7367C102.682 20.3162 103.79 21.2681 105.413 21.5494C106.408 21.7225 107.372 21.5954 108.283 21.1275C109.144 20.6867 109.74 19.9997 110.087 19.0829C110.132 18.9666 110.174 18.8476 110.222 18.7124H114.822C114.883 18.8801 114.809 19.0369 114.78 19.1911C114.448 20.8435 113.727 22.285 112.536 23.4561C111.417 24.5568 110.079 25.2519 108.576 25.6197C108.023 25.7549 107.464 25.8279 106.895 25.8766C105.789 25.9686 104.707 25.855 103.64 25.5602C102.216 25.1653 100.962 24.454 99.898 23.3966C98.3942 21.8983 97.541 20.0701 97.2697 17.9443C97.196 17.3764 97.1539 16.803 97.1802 16.2324C97.2829 14.0417 97.9466 12.062 99.3608 10.3934C100.427 9.13308 101.752 8.25953 103.308 7.76461C104.014 7.54013 104.736 7.40491 105.476 7.35082C107.464 7.20207 109.337 7.5807 111.059 8.62464C112.981 9.79027 114.193 11.5076 114.722 13.7334C114.767 13.9227 114.801 14.1121 114.835 14.3041C114.843 14.3501 114.835 14.3987 114.835 14.469H110.216L110.219 14.4636Z" fill="white"/>
<path d="M129.043 20.6894C129.296 21.947 129.541 23.1802 129.797 24.4486C129.662 24.5298 129.531 24.619 129.394 24.6948C128.509 25.1735 127.561 25.4682 126.584 25.6738C125.678 25.8631 124.764 25.9226 123.845 25.8388C122.554 25.7225 121.369 25.3006 120.361 24.4405C119.539 23.7401 118.973 22.8557 118.615 21.828C118.285 20.8787 118.135 19.8943 118.135 18.8855C118.141 16.7462 118.135 14.607 118.135 12.465C118.135 12.3487 118.135 12.2351 118.135 12.0918C117.78 12.0485 117.443 12.0756 117.108 12.0702C116.769 12.0648 116.426 12.0702 116.086 12.0702C115.747 12.0702 115.407 12.0702 115.049 12.0702V7.7024H118.135V3.84038C119.639 3.50773 121.114 3.18049 122.631 2.84242C122.652 3.1859 122.639 3.49962 122.641 3.81604C122.641 4.13788 122.641 4.45701 122.641 4.77884V7.69159H129.043V12.0593H122.67C122.657 12.1621 122.641 12.2351 122.641 12.3082C122.641 14.3419 122.633 16.373 122.644 18.4068C122.647 18.9504 122.718 19.4886 122.923 19.9997C123.26 20.83 123.863 21.3114 124.717 21.4845C125.372 21.617 126.02 21.5467 126.655 21.3872C127.361 21.2087 128.056 20.9815 128.754 20.7759C128.843 20.7489 128.93 20.7246 129.038 20.6921L129.043 20.6894Z" fill="white"/>
<path d="M131.116 7.71593H135.583V25.4764H131.116V7.71593Z" fill="white"/>
<path d="M122.762 45.6492C122.849 45.6438 122.913 45.6357 122.978 45.6357C124 45.6357 125.022 45.6357 126.047 45.6357C126.442 45.6357 126.813 45.7357 127.161 45.9304C127.524 46.136 127.771 46.4443 127.895 46.8527C128.001 47.2124 128.019 47.5748 127.945 47.9453C127.874 48.305 127.69 48.5863 127.4 48.7999C127.34 48.8459 127.279 48.8892 127.2 48.9487C127.255 48.9919 127.295 49.0298 127.342 49.0541C127.893 49.3435 128.143 49.8357 128.203 50.4361C128.246 50.8526 128.235 51.2691 128.064 51.6667C127.882 52.0859 127.585 52.3861 127.192 52.5862C126.85 52.762 126.481 52.8567 126.099 52.8621C125.048 52.8729 123.998 52.8648 122.947 52.8648C122.892 52.8648 122.836 52.8567 122.765 52.854V45.6492H122.762ZM124.198 49.8655V51.4152C124.282 51.4206 124.348 51.4314 124.414 51.4314C124.925 51.4314 125.436 51.4368 125.946 51.4314C126.244 51.4287 126.51 51.3475 126.663 51.0528C126.929 50.5308 126.671 49.9899 126.107 49.8925C125.978 49.8709 125.846 49.8574 125.715 49.8547C125.309 49.8493 124.901 49.8547 124.495 49.8547C124.403 49.8547 124.311 49.8628 124.2 49.8682L124.198 49.8655ZM124.195 47.0501V48.4673C124.248 48.4781 124.285 48.4916 124.319 48.4916C124.772 48.4916 125.225 48.4997 125.678 48.4916C125.825 48.4889 125.975 48.4456 126.118 48.4024C126.339 48.3375 126.457 48.1644 126.494 47.9399C126.578 47.4639 126.347 47.1042 125.925 47.0826C125.823 47.0772 125.72 47.0528 125.617 47.0528C125.267 47.0501 124.919 47.0528 124.569 47.0528C124.448 47.0528 124.329 47.0528 124.192 47.0528L124.195 47.0501Z" fill="var(--fill-0, #FFF5EC)"/>
<path d="M137.081 38.6013C137.073 40.6648 135.546 42.3281 133.376 42.3172C131.227 42.3064 129.71 40.6161 129.731 38.5093C129.752 36.4458 131.374 34.7095 133.636 34.8312C135.448 34.9286 137.1 36.3944 137.084 38.6013H137.081ZM133.373 40.8703C134.527 40.938 135.598 40.0076 135.598 38.5769C135.598 37.2139 134.645 36.2619 133.415 36.2538C132.127 36.2457 131.203 37.2842 131.203 38.5769C131.203 40.0644 132.372 40.9434 133.373 40.8703Z" fill="var(--fill-0, #FFF5EC)"/>
<path d="M115.618 34.9718C115.697 34.9664 115.755 34.9556 115.81 34.9556C116.824 34.9556 117.838 34.9367 118.852 34.961C119.652 34.9799 120.326 35.2883 120.753 36.0293C121.214 36.8325 121.143 38.1172 120.598 38.7852C120.395 39.034 120.147 39.226 119.852 39.3477C119.747 39.391 119.644 39.4342 119.507 39.491C120.15 40.3781 120.782 41.2544 121.456 42.1847H121.177C120.743 42.1847 120.305 42.1793 119.871 42.1874C119.715 42.1901 119.615 42.1469 119.521 42.0062C119.01 41.2571 118.483 40.5215 117.969 39.7777C117.872 39.6371 117.772 39.5587 117.598 39.5749C117.44 39.5884 117.279 39.5776 117.09 39.5776C117.045 40.4511 117.095 41.3004 117.061 42.1658H115.618V34.9691V34.9718ZM117.087 38.2794C117.624 38.2794 118.125 38.2848 118.625 38.2767C118.736 38.2767 118.849 38.2443 118.957 38.2091C119.315 38.0901 119.523 37.844 119.565 37.4519C119.623 36.9164 119.355 36.4809 118.836 36.4241C118.275 36.3619 117.706 36.3944 117.142 36.3863C117.127 36.3863 117.114 36.4079 117.09 36.4268V38.2821L117.087 38.2794Z" fill="var(--fill-0, #FFF5EC)"/>
<path d="M131.321 50.2604V52.8459H129.891C129.834 52.6295 129.81 46.228 129.865 45.6654C129.923 45.6573 129.984 45.6384 130.047 45.6384C131.069 45.6384 132.093 45.6167 133.115 45.6438C133.916 45.6627 134.616 45.9656 134.998 46.7283C135.446 47.6235 135.446 48.5403 134.887 49.4084C134.706 49.6924 134.432 49.8709 134.137 50.0115C134.026 50.0656 133.91 50.1062 133.76 50.1657C134.371 51.0744 135.045 51.9182 135.672 52.8404C135.577 52.854 135.517 52.8675 135.456 52.8675C135.011 52.8675 134.566 52.8594 134.121 52.8729C133.947 52.8783 133.847 52.8107 133.75 52.6701C133.241 51.9317 132.72 51.2042 132.214 50.4659C132.109 50.3117 131.998 50.2414 131.817 50.2604C131.666 50.2766 131.516 50.2631 131.319 50.2631L131.321 50.2604ZM131.337 48.9243C131.377 48.9379 131.403 48.9568 131.429 48.9568C131.903 48.9568 132.375 48.9703 132.849 48.9568C133.015 48.9514 133.189 48.9027 133.341 48.8351C133.734 48.6593 133.85 48.2834 133.823 47.9264C133.789 47.4774 133.534 47.1475 133.112 47.1069C132.541 47.0528 131.961 47.0745 131.387 47.0663C131.374 47.0663 131.358 47.0907 131.34 47.1042V48.927L131.337 48.9243Z" fill="var(--fill-0, #FFF5EC)"/>
<path d="M102.592 52.8675V45.66C102.684 45.6519 102.766 45.6384 102.848 45.6384C103.68 45.6384 104.515 45.6249 105.347 45.6384C107.003 45.6708 108.475 46.8716 108.715 48.6593C108.871 49.8195 108.618 50.8635 107.836 51.7316C107.293 52.332 106.606 52.6944 105.813 52.8107C105.563 52.8486 105.305 52.8621 105.052 52.8621C104.341 52.8702 103.632 52.8621 102.921 52.8621H102.595L102.592 52.8675ZM104.072 51.4314C104.451 51.4314 104.807 51.4314 105.165 51.4314C106.263 51.4314 107.072 50.758 107.261 49.6573C107.448 48.5673 106.94 47.372 105.658 47.115C105.155 47.015 104.625 47.0501 104.072 47.0204V51.4314Z" fill="var(--fill-0, #FFF5EC)"/>
<path d="M144.437 39.5803C144.231 39.5803 144.023 39.5803 143.815 39.5803C143.778 39.5803 143.744 39.5938 143.683 39.6073V42.1279C143.457 42.1928 142.64 42.2064 142.261 42.155V34.9826C142.319 34.9745 142.38 34.9556 142.443 34.9556C143.457 34.9556 144.468 34.9367 145.482 34.961C146.27 34.9799 146.957 35.2693 147.362 36.0049C147.805 36.8109 147.81 37.6547 147.418 38.4877C147.231 38.8852 146.904 39.1557 146.512 39.3342C146.401 39.3856 146.285 39.4261 146.133 39.4856C146.775 40.3727 147.407 41.249 148.063 42.155C147.966 42.1685 147.905 42.1847 147.847 42.1847C147.391 42.1847 146.938 42.1793 146.483 42.1901C146.335 42.1928 146.243 42.1442 146.156 42.017C145.619 41.2409 145.074 40.4728 144.531 39.702C144.505 39.6641 144.471 39.6263 144.437 39.583V39.5803ZM143.691 38.2767C144.247 38.2767 144.766 38.2984 145.285 38.2686C145.598 38.2524 145.896 38.1442 146.072 37.8305C146.406 37.2409 146.119 36.508 145.464 36.4241C144.897 36.3511 144.315 36.3917 143.741 36.3836C143.726 36.3836 143.712 36.4052 143.689 36.4241V38.2767H143.691Z" fill="var(--fill-0, #FFF5EC)"/>
<path d="M122.989 34.9745C124.158 34.9745 125.304 34.9691 126.447 34.9799C126.639 34.9799 126.839 35.0476 127.024 35.1152C127.587 35.3207 128.001 35.702 128.222 36.2781C128.469 36.9245 128.485 37.5817 128.256 38.2389C128.069 38.7716 127.703 39.1313 127.197 39.3504C127.103 39.391 127.005 39.4288 126.873 39.4829C127.16 39.9562 127.508 40.3754 127.819 40.8162C128.13 41.2571 128.448 41.6871 128.785 42.155C128.693 42.1685 128.633 42.1874 128.572 42.1874C128.116 42.1874 127.664 42.182 127.208 42.1928C127.042 42.1982 126.95 42.1306 126.86 41.9981C126.347 41.2544 125.82 40.516 125.312 39.7696C125.212 39.6236 125.101 39.5668 124.935 39.5776C124.774 39.5884 124.614 39.5776 124.414 39.5776C124.385 40.4457 124.414 41.2949 124.395 42.1658H122.986V34.9745H122.989ZM124.419 38.2821C124.888 38.2821 125.322 38.2875 125.757 38.2821C125.917 38.2821 126.078 38.2659 126.233 38.2307C126.547 38.1577 126.805 37.9819 126.876 37.6466C126.95 37.3004 126.955 36.9515 126.671 36.6703C126.452 36.4539 126.181 36.3809 125.894 36.3755C125.467 36.3646 125.04 36.3728 124.616 36.3755C124.553 36.3755 124.49 36.3944 124.416 36.4052V38.2875L124.419 38.2821Z" fill="var(--fill-0, #FFF5EC)"/>
<path d="M148.966 39.8724H150.417C150.436 39.9021 150.465 39.9292 150.475 39.9643C150.644 40.5025 151.005 40.7946 151.545 40.8785C151.99 40.9488 152.429 40.9569 152.848 40.7513C153.059 40.6486 153.19 40.489 153.238 40.2483C153.288 39.9806 153.212 39.7453 152.969 39.6479C152.645 39.5181 152.306 39.4261 151.969 39.3342C151.576 39.2287 151.171 39.1665 150.786 39.0367C150.467 38.9285 150.149 38.7798 149.867 38.5959C149.266 38.2037 149.09 37.5871 149.156 36.9001C149.253 35.8941 149.846 35.2801 150.754 34.9962C151.592 34.7338 152.44 34.7501 153.256 35.0962C154.091 35.4505 154.52 36.1294 154.655 37.0543H153.193C153.193 37.0543 153.177 37.0408 153.175 37.0327C152.932 36.4269 152.461 36.2105 151.858 36.2402C151.642 36.2511 151.421 36.2619 151.213 36.316C150.947 36.3863 150.739 36.5486 150.652 36.8406C150.565 37.1327 150.649 37.3707 150.926 37.4843C151.171 37.5844 151.429 37.6493 151.684 37.7196C152.203 37.8629 152.73 37.9819 153.246 38.1415C153.599 38.2497 153.93 38.4147 154.21 38.6824C154.499 38.961 154.647 39.299 154.71 39.6993C154.76 40.013 154.739 40.3186 154.665 40.6215C154.476 41.4139 153.946 41.8818 153.222 42.1306C152.369 42.4227 151.508 42.4038 150.662 42.0982C149.756 41.7709 149.222 41.1002 149.016 40.1455C149.001 40.0698 148.99 39.9941 148.969 39.8805L148.966 39.8724Z" fill="var(--fill-0, #FFF5EC)"/>
<path d="M141.213 45.6519C142.085 48.0427 142.954 50.4307 143.836 52.8458H142.28C142.09 52.3049 141.895 51.7532 141.695 51.1907H138.869C138.672 51.737 138.472 52.2968 138.269 52.8567H136.776C136.783 52.643 139.09 46.2388 139.37 45.6519H141.213ZM141.174 49.7303C140.873 48.8838 140.589 48.0778 140.305 47.2719C140.283 47.2719 140.262 47.2746 140.241 47.2773C139.967 48.0913 139.657 48.8919 139.391 49.733H141.174V49.7303Z" fill="var(--fill-0, #FFF5EC)"/>
<path d="M113.627 39.2341H110.646V40.7432H113.882C113.89 41.2354 113.887 41.6925 113.882 42.1712C112.305 42.1712 110.756 42.1712 109.208 42.1712C109.144 41.9738 109.123 35.3775 109.189 34.9745H113.872V36.3619C112.808 36.3836 111.744 36.3592 110.685 36.3755C110.619 36.5891 110.603 37.3626 110.656 37.8116H113.627V39.2341Z" fill="var(--fill-0, #FFF5EC)"/>
<path d="M104.143 42.1658V36.3728H102.126V34.9718H107.596V36.3619H105.6C105.576 36.773 105.589 37.1571 105.586 37.5411C105.584 37.9197 105.586 38.2984 105.586 38.677V40.9812C105.586 41.368 105.586 41.7574 105.586 42.1658H104.143Z" fill="var(--fill-0, #FFF5EC)"/>
<path d="M155.353 45.6546H156.78V51.4206C157.125 51.4449 157.454 51.4287 157.781 51.4314C158.113 51.4314 158.444 51.4314 158.776 51.4314H159.782V52.8188C159.587 52.8783 155.734 52.8945 155.353 52.835V45.6546Z" fill="var(--fill-0, #FFF5EC)"/>
<path d="M151.884 45.6465H153.291C153.351 45.8628 153.364 52.5186 153.304 52.8486H151.884V45.6465Z" fill="var(--fill-0, #FFF5EC)"/>
<path d="M138.79 34.9664H140.199C140.26 35.1909 140.283 41.4464 140.231 42.1333C140.039 42.1982 139.14 42.2118 138.79 42.1523V34.9664Z" fill="var(--fill-0, #FFF5EC)"/>
<path d="M82.9011 17.7956H96.1768C96.2453 17.087 96.2269 16.4298 96.1716 15.7699C96.1321 15.3074 96.0583 14.8504 95.9556 14.4014C95.8661 13.9931 95.7502 13.5901 95.6159 13.1898C95.1181 11.7105 94.3175 10.4339 93.164 9.40353C91.7182 8.11349 90.0143 7.46441 88.1234 7.31566C86.8146 7.21289 85.5215 7.34541 84.2627 7.77002C82.7721 8.27035 81.5001 9.11415 80.4651 10.3231C79.7382 11.1696 79.1931 12.1324 78.8323 13.2006C78.7111 13.5549 78.5953 13.9931 78.5136 14.4014C78.511 14.4041 78.511 14.4068 78.511 14.4096H76.8229V13.9119H76.8203C76.8124 12.9897 76.6649 12.0918 76.3568 11.2237C75.6088 9.10604 74.1472 7.84304 71.9982 7.41573C71.1581 7.24805 70.3075 7.24264 69.4595 7.36434C68.7142 7.46982 68.0031 7.69429 67.3395 8.06751C66.5626 8.50564 65.9305 9.10874 65.388 9.82002C65.3459 9.87411 65.2932 9.91739 65.2037 10.0147V7.72134H60.7003V25.4601C61.0216 25.5169 64.9772 25.5061 65.2063 25.4439V25.1058C65.2063 22.1201 65.2063 19.1343 65.2063 16.1485C65.2063 15.5049 65.2643 14.8666 65.4486 14.25C65.7989 13.0844 66.5073 12.2703 67.6634 11.9106C68.3903 11.6834 69.1356 11.6726 69.8809 11.77C70.4155 11.8403 70.9106 12.0215 71.3293 12.3866C71.8534 12.8464 72.0878 13.4603 72.2142 14.131C72.2194 14.1607 72.2379 14.2662 72.2537 14.4014C72.28 14.6043 72.309 14.8747 72.309 15.0532V25.5629H76.8203V17.7956H78.3082C78.3345 18.1553 78.4057 18.5042 78.4662 18.7827C78.8613 20.6056 79.6829 22.1769 81.026 23.4534C81.8135 24.2025 82.7062 24.7705 83.7043 25.1707C85.1765 25.7576 86.7013 25.9361 88.2683 25.8117C89.1426 25.7441 89.988 25.5683 90.8123 25.2708C91.8631 24.8922 92.8059 24.3269 93.6196 23.5507C94.6652 22.5582 95.3631 21.3385 95.8187 19.9646C95.8371 19.9159 95.8345 19.8591 95.8424 19.7969H91.181C91.1573 19.8375 91.1415 19.8618 91.131 19.8889C90.7359 20.711 90.1091 21.2709 89.2927 21.6197C88.2709 22.0579 87.2228 22.1228 86.1536 21.8713C85.1765 21.6414 84.3759 21.1248 83.7676 20.2999C83.2777 19.6319 83.0249 18.8666 82.8985 18.0498C82.8879 17.9768 82.8985 17.9038 82.8985 17.7983L82.9011 17.7956ZM83.1302 14.3501C83.2672 13.8335 83.4831 13.3494 83.786 12.914C84.6182 11.7213 85.7638 11.1587 87.1833 11.1344C87.9049 11.1236 88.5948 11.2453 89.2453 11.5807C90.0617 12.0026 90.6437 12.6597 91.0335 13.5008C91.1573 13.7686 91.2521 14.0553 91.368 14.3555C91.2521 14.3798 90.4383 14.3933 89.3612 14.4014C88.2841 14.4096 86.941 14.4096 85.7796 14.4014C84.3627 14.396 83.2119 14.3771 83.1302 14.3501Z" fill="white"/>
<path d="M96.1768 17.8659L72.3116 17.8686V15.01C72.3116 14.8233 72.2826 14.5421 72.2563 14.3311H95.9556C96.0583 14.799 96.132 15.275 96.1715 15.7564C96.2268 16.4433 96.2453 17.1276 96.1768 17.8659Z" fill="var(--fill-0, #FFF5EC)"/>
</g>
</svg>
