<svg viewBox="0 0 3145.91 3734.81" fill="none" xmlns="http://www.w3.org/2000/svg">
<path id="Vector" d="M1248.85 676.729C1637.36 663.66 1906.97 291.55 2284.52 243.248C2462.56 220.491 2683.87 290.956 2757.67 467.986C2787.92 540.553 2791.71 679.974 2689.4 693.774C2641.92 700.172 2538.92 670.24 2484.36 663.569C2180.61 626.6 1848.53 660.918 1561.78 767.986C1492.32 793.942 1348.28 850.56 1389.55 949.54C1430.81 1048.52 1634.16 1008.03 1715.82 990.576C1952.21 940.035 2130.34 795.176 2375.09 781.604C2673.36 765.062 3044.51 874.917 3130.28 1196.67C3197.46 1448.64 3044.6 1803.3 2737.65 1730.96C2503.27 1675.71 2367.78 1363.14 2172.52 1231.35C2024.78 1131.6 1835.78 1101.12 1663.68 1148.73C1588.33 1169.57 1455.58 1242.23 1493.37 1339.29C1537.06 1451.52 1709.15 1350.99 1779.89 1328.92C1880.06 1297.66 2021.17 1295.33 2117 1341.71C2207.52 1385.53 2253.45 1477.07 2157.85 1546.98C2078.16 1605.29 1942.85 1637.83 1845.19 1631.8C1699.92 1622.84 1554.42 1533.27 1408.92 1579.47C1220.56 1639.29 1220.7 1842.91 1414.32 1898.16C1627.99 1959.12 1868.27 1776.33 2083.5 1746.86C2438.57 1698.24 2676.01 1947.93 2784.26 2260.13C2960.79 2769.1 2309.84 2854.92 2018.89 2600.52C1897.7 2494.55 1852.55 2310.26 1746.72 2191.81C1662.95 2098.09 1409.2 2031.46 1297.61 2094.29C1255.61 2117.96 1207.03 2200.22 1262.42 2228.23C1367.84 2281.56 1532.17 2209.86 1601.99 2313.87C1665.97 2409.19 1620.04 2530.2 1509.37 2557.34C1353.54 2595.54 1368.57 2455.48 1278.46 2385.84C1166.5 2299.29 986.593 2387.99 923.531 2497.02C875.001 2580.97 905.8 2610.49 991.893 2626.66C1074.74 2642.25 1147.67 2631.51 1228.24 2669.07C1323.7 2713.62 1451.7 2846.92 1400.42 2960.16C1372.59 3021.62 1300.76 3048.95 1238.29 3024.59C1170.43 2998.18 1146.17 2907.15 1088.95 2863.19C993.63 2789.98 851.193 2839.52 805.45 2945.49C776.661 3012.25 784.018 3046.75 862.708 3052.83C958.626 3060.28 1044.44 2989.22 1081.05 3126.95C1098.23 3191.52 1073.46 3250.15 1007.8 3271.22C922.571 3298.54 890.72 3211.31 817.56 3254.63C789.959 3270.99 783.972 3294.3 787.217 3324.82C796.585 3413.84 983.622 3562.49 1055.37 3614.13C1095.9 3643.28 1169.84 3671.98 1084.29 3717.86C980.195 3773.7 836.021 3679.52 757.605 3610.29C618.732 3487.68 677.133 3382.03 631.527 3229.13C625.724 3209.66 599.083 3152.59 572.533 3164.7C538.808 3180.1 491.055 3310.97 462.723 3347.67C416.66 3407.26 335.457 3440.57 285.282 3365.17C205.632 3245.54 375.03 3095.97 476.523 3055.25C520.53 3037.62 570.065 3033.41 612.152 3012.66C709.486 2964.59 860.332 2739.63 692.259 2688.63C568.466 2651.02 454.68 2779.75 327.414 2796.47C200.148 2813.2 13.385 2756.76 113.553 2591.75C196.584 2454.98 395.731 2435.83 536.889 2478.42C595.153 2496.02 654.513 2547.97 715.336 2535.5C790.05 2520.19 763.317 2379.26 770.126 2325.25C776.569 2273.97 808.649 2217.49 821.489 2166.4C873.95 1957.61 732.883 1960.45 596.569 2051.16C483.789 2126.24 457.331 2253.36 325.541 2310.21C183.789 2371.4 -20.9334 2334.29 1.73224 2141.77C18.503 1999.15 307.308 1800.92 434.254 1756.32C570.796 1708.34 673.477 1752.62 780.271 1837.52C821.901 1870.65 906.029 1968.08 954.011 1970.23C1063.04 1975.07 1008.66 1834.42 971.969 1782.96C810.294 1556.4 435.807 1689.1 295.975 1517.6C208.1 1409.85 287.567 1254.89 419.905 1239.3C652.548 1211.89 756.097 1513.81 960.774 1556.58C1169.01 1600.08 1213.93 1368.9 1043.26 1277.6C886.562 1193.7 738.412 1204.89 616.31 1037.37C517.239 901.513 522.586 666.767 713.233 618.694C992.076 548.412 965.069 993.089 1188.3 1022.84C1235.82 1029.19 1246.06 1023.61 1248.76 975.999C1259.72 781.65 1038.78 653.972 982.48 479.273C939.936 347.255 960.728 174.2 1052.49 66.8125C1096.13 15.7691 1161.75 -9.72983 1189.67 71.0166C1222.21 165.061 1135.93 217.064 1092.43 284.97C1056.1 341.725 1045.5 428.412 1118.79 457.11C1155.9 403.645 1192.55 348.808 1233.31 297.902C1334.57 171.367 1511.92 1.32882 1685.25 0.00361297C1765.31 -0.590447 1856.66 72.1591 1812.75 155.327C1768.83 238.496 1501.83 322.395 1409.15 382.35C1356.33 416.531 1248.85 527.163 1248.85 592.19V676.729Z" fill="var(--fill-0, #1C1F21)"/>
</svg>
