<svg viewBox="0 0 935.998 282.029" fill="none" xmlns="http://www.w3.org/2000/svg">
<g id="Vector">
<path d="M724.094 0.0143914C724.707 0.230263 725.32 0.460526 725.947 0.633223C732.558 2.48972 735.849 8.69242 734.937 15.0678C734.054 21.1842 729.224 25.5304 723.026 26.0629C719.264 26.3939 715.759 25.6887 712.738 23.3429C708.563 20.1048 707.081 15.6867 707.965 10.5633C708.848 5.39679 712.111 2.20189 716.998 0.633223C717.625 0.431743 718.238 0.215871 718.851 0C720.589 0 722.342 0 724.08 0L724.094 0.0143914Z" fill="white"/>
<path d="M935.998 135.726C934.673 135.697 933.334 135.668 932.009 135.668C925.853 135.668 919.712 135.668 913.557 135.668H911.747C911.719 134.891 911.676 134.243 911.676 133.596C911.676 116.153 911.676 98.7252 911.662 81.2828C911.662 78.5484 911.391 75.814 910.664 73.166C909.111 67.5102 905.492 63.9843 899.764 62.8761C895.134 61.9839 890.489 62.0702 885.958 63.5381C880.529 65.3083 876.91 69.0069 874.943 74.3749C873.761 77.5986 873.205 80.9518 873.205 84.3913C873.205 100.798 873.205 117.204 873.205 133.596V135.409C871.98 135.74 850.593 135.797 848.826 135.495V41.0875H873.248V52.7877C873.348 52.8309 873.462 52.8885 873.561 52.9317C873.846 52.6294 874.16 52.3416 874.402 52.0106C878.221 47.0456 882.965 43.3038 888.807 41.0587C892.426 39.6628 896.188 38.972 900.035 38.8137C904.652 38.6266 909.225 39.0008 913.685 40.3536C921.764 42.8001 927.72 47.8083 931.653 55.3062C933.733 59.2783 934.901 63.5525 935.585 67.9563C935.742 68.9205 935.685 69.9135 935.77 70.8922C935.799 71.18 935.927 71.4678 935.998 71.7556V135.726Z" fill="white"/>
<path d="M613.07 282.014C612.856 281.914 612.642 281.77 612.414 281.727C603.78 280.259 597.396 273.826 596.256 265.176C595.558 259.794 596.427 254.642 599.762 250.181C603.523 245.115 608.553 242.452 614.836 242.236C617.729 242.136 620.55 242.38 623.272 243.474C630.04 246.209 634.186 251.159 635.468 258.398C636.423 263.78 635.525 268.889 632.419 273.466C629.342 277.999 625.067 280.662 619.738 281.669C619.353 281.741 618.997 281.899 618.627 282.014H613.07ZM604.079 261.967C604.079 262.169 604.079 262.384 604.079 262.586C604.193 267.134 606.088 270.732 610.063 272.89C614.138 275.107 618.399 275.063 622.331 272.502C626.734 269.623 628.202 265.32 627.603 260.168C626.705 252.411 619.097 247.907 611.773 250.425C607.484 251.908 603.851 256.398 604.079 261.967Z" fill="var(--fill-0, white)"/>
<path d="M795.451 282.014C794.582 281.799 793.698 281.611 792.829 281.381C787.101 279.913 783.454 276.344 782.1 270.487C782 270.041 781.958 269.58 781.886 269.019H789.766C789.851 269.206 789.951 269.336 789.994 269.479C791.176 273.12 793.926 274.445 797.446 274.502C798.771 274.531 800.11 274.445 801.407 274.2C802.846 273.926 804.114 273.236 804.741 271.753C805.468 270.055 805.012 268.443 803.345 267.738C801.706 267.047 799.953 266.616 798.229 266.155C796.007 265.565 793.713 265.22 791.533 264.486C789.766 263.881 788.056 263.003 786.446 262.025C784.679 260.945 783.653 259.19 783.154 257.16C781.744 251.461 784.508 245.777 789.908 243.604C794.867 241.603 799.911 241.589 804.883 243.503C808.845 245.028 811.21 248.108 812.278 252.21C812.421 252.757 812.478 253.318 812.606 253.994H804.655C804.584 253.865 804.442 253.649 804.356 253.433C803.516 251.389 801.962 250.224 799.868 249.85C797.944 249.504 795.992 249.447 794.083 250.022C792.729 250.425 791.561 251.13 791.048 252.613C790.435 254.368 790.906 255.75 792.615 256.369C794.24 256.959 795.95 257.333 797.631 257.779C799.996 258.412 802.376 259.017 804.741 259.693C805.667 259.967 806.55 260.398 807.434 260.801C811.523 262.687 813.19 266.011 813.005 270.415C812.777 275.898 809.414 279.856 803.772 281.338C802.846 281.583 801.906 281.799 800.979 282.029H795.437L795.451 282.014Z" fill="var(--fill-0, white)"/>
<path d="M119.13 56.3856H93.1695C92.9415 55.9826 92.685 55.5365 92.4571 55.0904C87.5413 45.4769 79.8044 39.5045 69.3317 37.3458C60.9821 35.6332 52.7892 36.4535 45.0522 40.1809C35.4772 44.8005 29.5071 52.5575 26.4864 62.7178C25.1043 67.3519 24.5201 72.1298 24.7481 76.951C25.147 85.9456 27.612 94.2351 33.4112 101.287C38.1417 107.029 44.1403 110.8 51.2788 112.699C55.7671 113.894 60.3551 114.325 64.9716 113.923C73.1931 113.203 80.4456 110.152 86.3587 104.223C88.8379 101.733 90.904 98.9123 92.4571 95.7174C92.6993 95.2137 92.9843 94.71 93.2692 94.1487H119.415C119.116 95.1561 118.874 96.0772 118.575 96.9838C115.939 105.043 111.892 112.268 106.193 118.542C99.0969 126.357 90.505 131.71 80.5025 134.805C76.0855 136.172 71.583 136.978 66.9664 137.309C56.1661 138.1 45.7361 136.632 35.7907 132.243C23.4514 126.803 14.0189 118.096 7.57858 106.137C3.87396 99.2433 1.66544 91.8749 0.653794 84.1179C0.11235 80.0019 -0.172621 75.886 0.11235 71.77C0.682291 63.3798 2.42061 55.2343 6.03974 47.5637C8.50473 42.354 11.5397 37.5328 15.3583 33.2298C20.0888 27.905 25.546 23.5156 31.8438 20.2056C39.3386 16.2623 47.2892 14.0173 55.7101 13.2833C67.4936 12.2471 78.7642 14.0892 89.4079 19.3133C94.5943 21.8606 99.2536 25.1994 103.428 29.2578C108.316 34.0069 112.334 39.4037 115.226 45.5776C116.68 48.7006 117.748 52.0106 118.959 55.2343C119.073 55.5509 119.073 55.9251 119.13 56.3712V56.3856Z" fill="white"/>
<path d="M173.602 137.74C165.837 137.74 158.442 136.128 151.503 132.66C140.033 126.904 132.082 117.88 127.722 105.705C126.041 101.013 125.186 96.1779 124.901 91.1841C124.388 82.2758 125.97 73.8136 129.774 65.7976C131.811 61.4802 134.49 57.5945 137.767 54.1118C141.458 50.1685 145.661 46.9017 150.42 44.3976C154.937 42.023 159.739 40.4255 164.754 39.5189C169.114 38.7417 173.517 38.5834 177.905 38.9432C183.762 39.4181 189.39 40.8717 194.733 43.3758C202.912 47.2183 209.537 52.9173 214.496 60.5303C218.87 67.2511 221.378 74.6627 222.204 82.6644C222.902 89.3564 222.418 95.962 220.637 102.453C218.557 110.066 214.866 116.758 209.494 122.529C205.519 126.803 200.917 130.185 195.716 132.732C190.758 135.15 185.514 136.704 180.029 137.309C177.891 137.539 175.754 137.625 173.617 137.769L173.602 137.74ZM197.625 87.4279C197.554 86.6076 197.497 85.0533 197.269 83.5278C196.258 76.951 193.493 71.3239 188.193 67.1936C182.921 63.0632 176.894 61.5377 170.297 62.4156C162.888 63.3942 157.046 67.0784 153.284 73.569C148.454 81.916 148.169 90.7667 151.702 99.6462C154.125 105.734 158.513 110.022 164.612 112.397C168.9 114.066 173.346 114.484 177.877 113.663C184.161 112.512 189.247 109.418 192.909 104.093C196.201 99.3152 197.54 93.9184 197.611 87.4279H197.625Z" fill="white"/>
<path d="M791.604 137.64C783.824 137.769 776.529 136.143 769.647 132.804C764.104 130.113 759.246 126.457 755.099 121.823C750.354 116.513 746.963 110.454 744.911 103.618C743.686 99.5599 743.016 95.4008 742.774 91.1409C742.375 84.3913 743.187 77.8432 745.353 71.4822C749.343 59.7388 756.766 50.8305 767.538 44.8149C773.252 41.6344 779.379 39.7635 785.876 39.0871C795.636 38.0509 804.998 39.5045 813.76 43.9802C827.111 50.8017 835.603 61.6817 839.009 76.3753C841.873 88.7231 840.633 100.769 834.748 112.052C828.265 124.457 818.078 132.344 804.684 135.999C800.694 137.093 796.106 137.755 791.604 137.625V137.64ZM767.282 88.0899C767.424 89.7881 767.481 91.5007 767.738 93.1701C768.721 99.3584 771.371 104.683 776.23 108.684C781.687 113.174 787.985 114.743 794.91 113.75C804.029 112.426 810.241 107.302 813.618 98.7108C815.584 93.7026 815.969 88.4641 815.114 83.168C814.031 76.5336 811.11 70.9209 805.696 66.8626C800.581 63.0488 794.781 61.5809 788.469 62.3724C780.804 63.3367 774.962 67.1648 771.015 73.8568C768.436 78.2318 767.324 83.0098 767.296 88.0899H767.282Z" fill="white"/>
<path d="M230.939 41.03H255.361V52.7878C255.46 52.8309 255.56 52.8741 255.674 52.9317C255.959 52.6295 256.272 52.3416 256.529 52.0106C260.347 47.0456 265.092 43.3038 270.948 41.0587C274.667 39.634 278.529 38.9432 282.49 38.8137C287.006 38.6554 291.481 39.0439 295.841 40.368C303.862 42.8001 309.804 47.7651 313.722 55.2055C316.059 59.6381 317.37 64.4016 317.84 69.3811C318.026 71.3815 318.139 73.3963 318.154 75.4111C318.182 94.7676 318.154 114.124 318.154 133.48C318.154 134.142 318.154 134.805 318.154 135.567H293.874C293.846 135.006 293.789 134.416 293.789 133.826C293.789 124.457 293.789 115.088 293.789 105.719C293.789 97.5451 293.817 89.3564 293.775 81.182C293.76 78.5052 293.504 75.814 292.791 73.2092C291.253 67.5534 287.662 63.9987 281.934 62.8761C277.246 61.9551 272.558 62.0558 267.985 63.5669C262.613 65.3371 259.037 69.0069 257.07 74.3317C255.888 77.5554 255.318 80.9086 255.318 84.3482C255.318 100.754 255.318 117.161 255.318 133.567V135.395C254.164 135.74 233.019 135.841 230.939 135.51V41.03Z" fill="white"/>
<path d="M596.328 76.9653C595.516 74.4037 594.447 72.0147 592.851 69.8848C590.286 66.474 586.924 64.2001 582.92 62.9481C577.548 61.2787 572.148 61.2067 566.762 62.9481C559.78 65.2075 555.121 69.9711 552.613 76.7926C549.849 84.3625 549.678 92.0907 552.471 99.7038C555.548 108.108 561.547 113.174 570.324 114.671C575.71 115.592 580.925 114.916 585.855 112.426C590.514 110.08 593.734 106.425 595.615 101.546C595.857 100.927 596.086 100.294 596.342 99.5743H621.234C621.562 100.467 621.163 101.301 621.006 102.122C619.211 110.915 615.307 118.585 608.866 124.817C602.811 130.674 595.573 134.373 587.437 136.33C584.444 137.05 581.424 137.438 578.346 137.697C572.362 138.186 566.506 137.582 560.735 136.013C553.026 133.912 546.244 130.127 540.488 124.5C532.352 116.527 527.735 106.799 526.268 95.4871C525.869 92.4649 525.641 89.4139 525.783 86.3773C526.339 74.7203 529.93 64.1857 537.581 55.3062C543.352 48.5998 550.519 43.9514 558.94 41.3178C562.758 40.1233 566.662 39.4037 570.666 39.1159C581.424 38.3244 591.554 40.3392 600.873 45.8943C611.274 52.097 617.829 61.2355 620.693 73.0797C620.935 74.087 621.12 75.0944 621.305 76.1162C621.348 76.3609 621.305 76.6199 621.305 76.9941H596.313L596.328 76.9653Z" fill="white"/>
<path d="M698.176 110.094C699.544 116.786 700.869 123.349 702.251 130.099C701.525 130.53 700.812 131.005 700.071 131.408C695.284 133.955 690.154 135.524 684.868 136.618C679.967 137.625 675.022 137.942 670.05 137.496C663.068 136.877 656.656 134.632 651.199 130.055C646.753 126.328 643.69 121.622 641.752 116.153C639.971 111.102 639.159 105.863 639.159 100.495C639.187 89.1117 639.159 77.7281 639.159 66.3301C639.159 65.7113 639.159 65.1068 639.159 64.3441C637.235 64.1138 635.411 64.2577 633.602 64.2289C631.764 64.2002 629.912 64.2289 628.073 64.2289C626.235 64.2289 624.397 64.2289 622.46 64.2289V40.9868H639.159V20.4358C647.295 18.6657 655.274 16.9243 663.481 15.1254C663.595 16.9531 663.524 18.6225 663.538 20.3063C663.538 22.0189 663.538 23.7171 663.538 25.4297V40.9292H698.176V64.1714H663.695C663.624 64.7183 663.538 65.1068 663.538 65.4954C663.538 76.3177 663.495 87.1257 663.552 97.9481C663.567 100.841 663.951 103.705 665.063 106.425C666.886 110.843 670.149 113.404 674.766 114.326C678.314 115.031 681.819 114.657 685.253 113.807C689.071 112.858 692.833 111.649 696.609 110.555C697.093 110.411 697.564 110.282 698.148 110.109L698.176 110.094Z" fill="white"/>
<path d="M709.39 41.0587H733.555V135.567H709.39V41.0587Z" fill="white"/>
<path d="M664.194 242.913C664.664 242.884 665.006 242.841 665.362 242.841C670.89 242.841 676.419 242.841 681.961 242.841C684.099 242.841 686.108 243.373 687.989 244.41C689.955 245.503 691.294 247.144 691.964 249.317C692.534 251.231 692.634 253.16 692.235 255.131C691.85 257.045 690.853 258.542 689.285 259.679C688.958 259.924 688.63 260.154 688.202 260.47C688.502 260.701 688.715 260.902 688.972 261.032C691.95 262.572 693.303 265.191 693.631 268.386C693.859 270.602 693.802 272.818 692.876 274.934C691.893 277.164 690.283 278.762 688.16 279.827C686.307 280.762 684.312 281.266 682.246 281.295C676.561 281.352 670.876 281.309 665.191 281.309C664.892 281.309 664.593 281.266 664.208 281.252V242.913H664.194ZM671.959 265.349V273.595C672.415 273.624 672.771 273.682 673.127 273.682C675.892 273.682 678.656 273.711 681.42 273.682C683.03 273.667 684.469 273.236 685.296 271.667C686.735 268.889 685.338 266.011 682.289 265.493C681.591 265.378 680.879 265.306 680.166 265.292C677.972 265.263 675.763 265.292 673.569 265.292C673.07 265.292 672.572 265.335 671.973 265.363L671.959 265.349ZM671.945 250.368V257.909C672.23 257.966 672.429 258.038 672.614 258.038C675.065 258.038 677.516 258.081 679.967 258.038C680.765 258.024 681.577 257.794 682.346 257.563C683.543 257.218 684.184 256.297 684.384 255.102C684.84 252.57 683.586 250.655 681.306 250.54C680.75 250.512 680.195 250.382 679.639 250.382C677.744 250.368 675.863 250.382 673.968 250.382C673.313 250.382 672.671 250.382 671.93 250.382L671.945 250.368Z" fill="var(--fill-0, white)"/>
<path d="M741.663 205.409C741.62 216.39 733.356 225.24 721.615 225.183C709.988 225.125 701.781 216.13 701.895 204.92C702.009 193.939 710.786 184.7 723.026 185.347C732.829 185.865 741.762 193.665 741.677 205.409H741.663ZM721.601 217.483C727.842 217.843 733.641 212.892 733.641 205.279C733.641 198.026 728.483 192.96 721.829 192.917C714.861 192.874 709.86 198.4 709.86 205.279C709.86 213.195 716.186 217.872 721.601 217.483Z" fill="var(--fill-0, white)"/>
<path d="M625.537 186.096C625.965 186.067 626.278 186.009 626.577 186.009C632.063 186.009 637.549 185.908 643.034 186.038C647.366 186.139 651.014 187.779 653.322 191.723C655.815 195.997 655.431 202.833 652.481 206.387C651.384 207.711 650.045 208.733 648.449 209.381C647.879 209.611 647.323 209.841 646.582 210.144C650.059 214.864 653.479 219.527 657.126 224.477H655.616C653.265 224.477 650.9 224.449 648.549 224.492C647.708 224.506 647.167 224.276 646.654 223.528C643.889 219.541 641.04 215.627 638.261 211.669C637.734 210.921 637.193 210.503 636.252 210.59C635.397 210.662 634.528 210.604 633.502 210.604C633.26 215.253 633.531 219.771 633.345 224.377H625.537V186.081V186.096ZM633.488 203.696C636.395 203.696 639.102 203.725 641.809 203.682C642.408 203.682 643.02 203.509 643.604 203.322C645.542 202.689 646.668 201.379 646.896 199.292C647.209 196.443 645.756 194.126 642.949 193.824C639.914 193.493 636.836 193.665 633.787 193.622C633.702 193.622 633.63 193.737 633.502 193.838V203.711L633.488 203.696Z" fill="var(--fill-0, white)"/>
<path d="M710.501 267.45V281.209H702.764C702.451 280.057 702.322 245.993 702.622 242.999C702.935 242.956 703.263 242.855 703.605 242.855C709.133 242.855 714.676 242.74 720.204 242.884C724.536 242.985 728.326 244.597 730.392 248.655C732.814 253.419 732.814 258.297 729.794 262.917C728.81 264.428 727.329 265.378 725.733 266.126C725.134 266.414 724.507 266.63 723.695 266.947C727.001 271.782 730.648 276.272 734.04 281.18C733.527 281.252 733.199 281.324 732.871 281.324C730.463 281.324 728.055 281.28 725.647 281.352C724.707 281.381 724.165 281.021 723.638 280.273C720.888 276.344 718.067 272.473 715.331 268.544C714.761 267.724 714.163 267.35 713.18 267.45C712.368 267.537 711.555 267.465 710.487 267.465L710.501 267.45ZM710.587 260.341C710.8 260.413 710.943 260.514 711.085 260.514C713.65 260.514 716.201 260.586 718.765 260.514C719.663 260.485 720.603 260.226 721.43 259.866C723.553 258.931 724.18 256.93 724.037 255.031C723.852 252.642 722.47 250.886 720.19 250.67C717.098 250.382 713.963 250.497 710.857 250.454C710.786 250.454 710.701 250.584 710.601 250.656V260.355L710.587 260.341Z" fill="var(--fill-0, white)"/>
<path d="M555.064 281.324V242.971C555.563 242.927 556.004 242.855 556.446 242.855C560.949 242.855 565.465 242.783 569.968 242.855C578.93 243.028 586.895 249.418 588.192 258.931C589.032 265.105 587.665 270.66 583.433 275.279C580.498 278.474 576.779 280.403 572.49 281.021C571.136 281.223 569.74 281.295 568.372 281.295C564.525 281.338 560.692 281.295 556.845 281.295H555.078L555.064 281.324ZM563.072 273.682C565.123 273.682 567.047 273.682 568.985 273.682C574.926 273.682 579.301 270.098 580.327 264.241C581.338 258.441 578.588 252.08 571.649 250.713C568.928 250.181 566.064 250.368 563.072 250.209V273.682Z" fill="var(--fill-0, white)"/>
<path d="M781.459 210.619C780.348 210.619 779.222 210.619 778.096 210.619C777.897 210.619 777.712 210.69 777.384 210.762V224.175C776.158 224.521 771.741 224.593 769.69 224.319V186.153C770.003 186.11 770.331 186.009 770.673 186.009C776.158 186.009 781.63 185.908 787.116 186.038C791.376 186.139 795.095 187.679 797.289 191.593C799.683 195.882 799.711 200.372 797.588 204.804C796.577 206.92 794.81 208.359 792.687 209.309C792.088 209.582 791.461 209.798 790.635 210.115C794.112 214.835 797.531 219.498 801.079 224.319C800.552 224.391 800.224 224.477 799.911 224.477C797.446 224.477 794.995 224.449 792.53 224.506C791.732 224.521 791.233 224.262 790.763 223.585C787.856 219.455 784.907 215.368 781.972 211.266C781.829 211.065 781.644 210.863 781.459 210.633V210.619ZM777.427 203.682C780.433 203.682 783.24 203.797 786.047 203.639C787.743 203.552 789.353 202.977 790.307 201.307C792.117 198.17 790.564 194.27 787.016 193.824C783.952 193.435 780.804 193.651 777.697 193.608C777.612 193.608 777.541 193.723 777.412 193.824V203.682H777.427Z" fill="var(--fill-0, white)"/>
<path d="M665.419 186.11C671.745 186.11 677.943 186.081 684.127 186.139C685.167 186.139 686.25 186.498 687.248 186.858C690.297 187.952 692.534 189.981 693.731 193.047C695.07 196.486 695.156 199.983 693.916 203.48C692.904 206.315 690.924 208.23 688.188 209.395C687.675 209.611 687.148 209.813 686.435 210.1C687.989 212.619 689.869 214.85 691.551 217.195C693.232 219.541 694.956 221.829 696.78 224.319C696.281 224.391 695.953 224.492 695.626 224.492C693.161 224.492 690.71 224.463 688.245 224.521C687.347 224.549 686.849 224.19 686.364 223.484C683.586 219.527 680.736 215.598 677.986 211.626C677.445 210.849 676.846 210.547 675.948 210.604C675.079 210.662 674.21 210.604 673.127 210.604C672.971 215.224 673.127 219.743 673.028 224.377H665.405V186.11H665.419ZM673.156 203.711C675.692 203.711 678.043 203.739 680.394 203.711C681.263 203.711 682.132 203.624 682.973 203.437C684.669 203.049 686.065 202.113 686.45 200.329C686.849 198.487 686.877 196.63 685.338 195.133C684.156 193.982 682.688 193.593 681.135 193.565C678.827 193.507 676.518 193.55 674.224 193.565C673.882 193.565 673.54 193.665 673.142 193.723V203.739L673.156 203.711Z" fill="var(--fill-0, white)"/>
<path d="M805.966 212.173H813.817C813.917 212.331 814.074 212.475 814.131 212.662C815.043 215.526 816.995 217.08 819.916 217.526C822.324 217.901 824.703 217.944 826.969 216.85C828.109 216.303 828.821 215.454 829.077 214.173C829.348 212.748 828.935 211.496 827.624 210.978C825.872 210.288 824.033 209.798 822.21 209.309C820.087 208.748 817.892 208.417 815.812 207.726C814.088 207.15 812.364 206.359 810.839 205.38C807.591 203.293 806.636 200.012 806.992 196.357C807.519 191.003 810.725 187.736 815.641 186.225C820.172 184.829 824.76 184.915 829.177 186.758C833.694 188.643 836.016 192.255 836.743 197.177H828.835C828.835 197.177 828.75 197.105 828.735 197.062C827.425 193.838 824.874 192.687 821.611 192.845C820.443 192.903 819.246 192.96 818.12 193.248C816.681 193.622 815.556 194.486 815.085 196.04C814.615 197.594 815.071 198.861 816.567 199.465C817.892 199.998 819.289 200.343 820.671 200.717C823.478 201.48 826.328 202.113 829.12 202.962C831.03 203.538 832.825 204.416 834.335 205.841C835.902 207.323 836.7 209.122 837.042 211.252C837.313 212.921 837.199 214.547 836.8 216.159C835.774 220.376 832.91 222.866 828.992 224.19C824.375 225.744 819.716 225.643 815.142 224.017C810.241 222.276 807.349 218.707 806.237 213.626C806.152 213.223 806.095 212.82 805.981 212.216L805.966 212.173Z" fill="var(--fill-0, white)"/>
<path d="M764.019 242.927C768.735 255.649 773.437 268.357 778.21 281.208H769.789C768.763 278.33 767.709 275.394 766.626 272.401H751.337C750.269 275.308 749.186 278.287 748.089 281.266H740.01C740.053 280.129 752.534 246.05 754.045 242.927H764.019ZM763.805 264.63C762.181 260.125 760.642 255.836 759.103 251.548C758.989 251.548 758.875 251.562 758.761 251.577C757.279 255.908 755.598 260.168 754.159 264.644H763.805V264.63Z" fill="var(--fill-0, white)"/>
<path d="M614.765 208.776H598.636V216.807H616.147C616.19 219.426 616.176 221.858 616.147 224.406C607.613 224.406 599.234 224.406 590.856 224.406C590.514 223.355 590.4 188.254 590.757 186.11H616.09V193.493C610.334 193.608 604.578 193.478 598.85 193.565C598.494 194.702 598.408 198.818 598.693 201.207H614.765V208.776Z" fill="var(--fill-0, white)"/>
<path d="M563.456 224.377V193.55H552.542V186.096H582.136V193.493H571.336C571.208 195.68 571.279 197.724 571.265 199.767C571.25 201.782 571.265 203.797 571.265 205.812V218.073C571.265 220.131 571.265 222.204 571.265 224.377H563.456Z" fill="var(--fill-0, white)"/>
<path d="M840.519 242.942H848.242V273.624C850.108 273.754 851.889 273.667 853.656 273.682C855.451 273.682 857.247 273.682 859.042 273.682H864.485V281.065C863.431 281.381 842.585 281.468 840.519 281.151V242.942Z" fill="var(--fill-0, white)"/>
<path d="M821.754 242.899H829.362C829.69 244.05 829.761 279.467 829.434 281.223H821.754V242.899Z" fill="var(--fill-0, white)"/>
<path d="M750.91 186.067H758.533C758.861 187.261 758.989 220.549 758.704 224.204C757.664 224.549 752.805 224.621 750.91 224.305V186.067Z" fill="var(--fill-0, white)"/>
<path d="M448.528 94.6956H520.355C520.725 90.925 520.625 87.4279 520.326 83.9164C520.112 81.4555 519.713 79.0233 519.158 76.6344C518.673 74.4612 518.046 72.3169 517.32 70.187C514.627 62.3149 510.295 55.5221 504.054 50.039C496.232 43.1743 487.013 39.7203 476.783 38.9288C469.701 38.3819 462.705 39.0871 455.894 41.3466C447.83 44.009 440.948 48.4991 435.348 54.9321C431.415 59.4366 428.466 64.5599 426.514 70.2446C425.858 72.1298 425.231 74.4612 424.79 76.6344C424.775 76.6487 424.775 76.6631 424.775 76.6775H415.642V74.0295H415.628C415.585 69.122 414.787 64.3441 413.12 59.7244C409.074 48.4559 401.166 41.7351 389.539 39.4613C384.994 38.569 380.391 38.5402 375.803 39.1879C371.771 39.7491 367.924 40.9436 364.333 42.9296C360.13 45.261 356.71 48.4703 353.775 52.2553C353.547 52.5431 353.262 52.7734 352.778 53.2915V41.0875H328.413V135.481C330.151 135.783 351.552 135.726 352.792 135.395V133.596C352.792 117.707 352.792 101.819 352.792 85.9312C352.792 82.5061 353.105 79.1097 354.103 75.8284C355.998 69.6257 359.831 65.2939 366.086 63.3798C370.018 62.171 374.051 62.1134 378.083 62.6315C380.976 63.0057 383.654 63.9699 385.92 65.9127C388.755 68.3593 390.023 71.6261 390.707 75.1952C390.736 75.3535 390.835 75.9148 390.921 76.6344C391.063 77.7137 391.22 79.1529 391.22 80.1027V136.028H415.628V94.6956H423.678C423.821 96.6096 424.206 98.4661 424.533 99.9485C426.671 109.648 431.116 118.01 438.383 124.802C442.643 128.789 447.473 131.811 452.874 133.941C460.839 137.064 469.088 138.014 477.566 137.352C482.297 136.992 486.871 136.057 491.33 134.473C497.016 132.459 502.116 129.451 506.519 125.321C512.176 120.039 515.952 113.548 518.417 106.238C518.517 105.978 518.502 105.676 518.545 105.345H493.325C493.197 105.561 493.111 105.691 493.054 105.835C490.917 110.21 487.526 113.189 483.109 115.045C477.581 117.376 471.91 117.722 466.125 116.383C460.839 115.16 456.507 112.411 453.216 108.022C450.565 104.467 449.197 100.395 448.514 96.0484C448.457 95.6598 448.514 95.2712 448.514 94.71L448.528 94.6956ZM449.767 76.3609C450.508 73.6121 451.677 71.0361 453.315 68.7191C457.818 62.3724 464.016 59.379 471.696 59.2495C475.6 59.1919 479.333 59.8396 482.853 61.6241C487.27 63.8692 490.419 67.3663 492.527 71.842C493.197 73.2668 493.71 74.7922 494.337 76.3897C493.71 76.5192 489.307 76.5912 483.479 76.6344C477.652 76.6775 470.385 76.6775 464.101 76.6344C456.436 76.6056 450.209 76.5048 449.767 76.3609Z" fill="white"/>
<path d="M520.355 95.0698L391.234 95.0842V79.8724C391.234 78.8794 391.078 77.3827 390.935 76.2602H519.158C519.713 78.7499 520.112 81.2828 520.326 83.8444C520.625 87.4999 520.725 91.1409 520.355 95.0698Z" fill="var(--fill-0, white)"/>
</g>
</svg>
