<svg viewBox="0 0 3145.91 3734.81" fill="none" xmlns="http://www.w3.org/2000/svg">
<path id="Vector" opacity="0.1" d="M1685.26 0.503906C1725.15 0.207985 1767.87 18.1918 1795.13 46.6006C1822.37 74.9879 1834.14 113.738 1812.31 155.094C1801.39 175.76 1776.57 196.539 1743.93 217.032C1711.3 237.513 1670.93 257.659 1629.02 277.09C1587.11 296.524 1543.7 315.22 1504.93 332.824C1466.18 350.419 1432.08 366.918 1408.88 381.93C1382.41 399.055 1342.3 435.297 1308.81 475.382C1292.06 495.427 1276.95 516.449 1266.03 536.537C1255.11 556.615 1248.35 575.811 1248.35 592.19V677.246L1248.86 677.229C1443.27 670.69 1607.91 574.319 1771.06 473.627C1934.25 372.91 2095.94 267.878 2284.59 243.744C2373.52 232.376 2473.27 244.293 2559.99 281.157C2646.71 318.02 2720.37 379.813 2757.21 468.179C2772.3 504.385 2780.79 557.285 2772.75 602.83C2768.73 625.598 2760.59 646.497 2747.1 662.556C2733.62 678.605 2714.79 689.846 2689.33 693.279C2677.52 694.87 2662.23 694.205 2645.06 692.195C2627.89 690.187 2608.88 686.84 2589.63 683.082C2551.15 675.571 2511.72 666.411 2484.42 663.072H2484.42C2180.59 626.095 1848.43 660.42 1561.6 767.518C1526.88 780.493 1473.44 801.158 1433.84 830.979C1414.04 845.892 1397.66 863.122 1388.83 882.861C1379.98 902.621 1378.72 924.861 1389.09 949.732C1399.47 974.64 1420.05 990.748 1446.28 1000.63C1472.5 1010.51 1504.41 1014.19 1537.54 1014.22C1603.8 1014.29 1675.1 999.792 1715.93 991.064C1834.18 965.781 1937.87 916.906 2042.52 872.687C2147.18 828.462 2252.84 788.884 2375.12 782.104C2524.19 773.836 2691.46 797.156 2832.16 862.729C2972.86 928.299 3086.96 1036.1 3129.8 1196.8C3163.35 1322.65 3141.95 1474.17 3073.84 1585.17C3039.78 1640.66 2994.07 1686.01 2937.72 1712.98C2881.39 1739.94 2814.4 1748.53 2737.77 1730.47C2620.75 1702.89 2528.38 1611.06 2440.8 1509.53C2397.03 1458.79 2354.43 1405.61 2310.61 1356.91C2267.46 1308.96 2223.07 1265.3 2175.09 1232.49L2172.8 1230.94C2024.94 1131.1 1835.79 1100.6 1663.55 1148.25C1625.82 1158.68 1573.72 1182.09 1535.77 1215.05C1497.82 1248.01 1473.9 1290.65 1492.91 1339.47C1503.89 1367.68 1522.96 1382.55 1546.5 1388.6C1570 1394.65 1597.91 1391.89 1626.6 1384.95C1655.31 1378.01 1684.84 1366.87 1711.61 1356.09C1738.4 1345.31 1762.38 1334.9 1780.04 1329.39C1880.12 1298.16 2021.1 1295.85 2116.78 1342.16C2161.97 1364.04 2195.95 1397.78 2206.74 1434.7C2212.13 1453.15 2211.74 1472.4 2204.06 1491.39C2196.5 1510.08 2181.87 1528.55 2158.67 1545.76L2157.56 1546.58C2117.77 1575.68 2064.09 1598.37 2008.13 1613.03C1952.17 1627.69 1893.99 1634.31 1845.22 1631.3C1772.65 1626.82 1700.04 1602.22 1627.26 1584.46C1554.52 1566.72 1481.66 1555.85 1408.77 1579C1314.43 1608.95 1267.18 1674.98 1267.88 1740.54C1268.57 1806.1 1317.21 1870.97 1414.18 1898.64C1521.19 1929.17 1634.81 1898.66 1748.5 1856.89C1776.92 1846.45 1805.36 1835.3 1833.71 1824.22C1862.05 1813.15 1890.3 1802.14 1918.36 1791.98C1974.48 1771.65 2029.81 1754.72 2083.57 1747.36C2438.29 1698.78 2675.57 1948.2 2783.79 2260.29C2827.89 2387.44 2820.29 2488.08 2779.62 2563.58C2738.95 2639.07 2665.17 2689.5 2576.74 2716.11C2399.85 2769.34 2164.55 2727.22 2019.21 2600.15C1958.7 2547.23 1917.15 2474.74 1877.48 2400.61C1837.83 2326.51 1800.05 2250.76 1747.09 2191.48C1705.11 2144.5 1620.61 2104.38 1532.71 2083.86C1488.75 2073.59 1443.91 2068.22 1403.06 2069.34C1362.87 2070.45 1326.51 2077.86 1298.68 2093.12L1297.36 2093.86C1276.25 2105.76 1253.54 2132.33 1243.03 2159.45C1237.77 2173.02 1235.55 2186.77 1238.16 2198.92C1240.77 2211.09 1248.22 2221.61 1262.19 2228.68C1288.63 2242.05 1318.75 2247.58 1350.1 2249.98C1381.43 2252.39 1414.08 2251.67 1445.54 2252.54C1508.53 2254.29 1566.82 2262.37 1601.58 2314.15C1665.36 2409.19 1619.58 2529.8 1509.25 2556.86C1470.35 2566.39 1442.19 2564.79 1420.41 2555.99C1398.62 2547.19 1383.15 2531.18 1369.68 2511.75C1362.95 2502.03 1356.72 2491.47 1350.47 2480.53C1344.21 2469.6 1337.92 2458.3 1331.07 2447.13C1317.57 2425.13 1301.86 2403.59 1279.82 2386.27L1278.76 2385.44C1222.6 2342.03 1149.43 2342.6 1082.48 2367.62C1015.53 2392.64 954.694 2442.14 923.098 2496.77C898.825 2538.76 894.246 2567.36 906.804 2587.52C913.073 2597.58 923.576 2605.47 937.863 2611.84C952.151 2618.22 970.261 2623.11 991.801 2627.15C1033.25 2634.95 1072.26 2636.17 1110.87 2640.12C1149.51 2644.08 1187.82 2650.78 1228.03 2669.52C1275.68 2691.76 1331.47 2736.17 1368.95 2789.15C1406.42 2842.13 1425.5 2903.57 1399.97 2959.95C1372.47 3020.68 1301.82 3047.96 1239.93 3024.69L1238.47 3024.13C1204.7 3010.98 1181.74 2981.75 1160.04 2950.19C1138.37 2918.68 1117.94 2884.84 1089.26 2862.79C993.637 2789.36 850.843 2839.07 804.991 2945.29V2945.29C797.787 2962 792.831 2976.72 790.692 2989.49C788.554 3002.27 789.225 3013.14 793.319 3022.13C801.521 3040.13 823.306 3050.29 862.669 3053.33C886.711 3055.2 910.109 3052.14 932.219 3048.68C954.351 3045.22 975.159 3041.35 994.116 3041.54C1013.05 3041.73 1030.08 3045.97 1044.65 3058.69C1059.24 3071.42 1071.43 3092.7 1080.56 3127.08C1089.13 3159.27 1087.23 3189.95 1075.04 3215.18C1062.85 3240.41 1040.36 3260.25 1007.64 3270.74C965.238 3284.34 936.136 3269.46 908.365 3256.47C894.49 3249.99 880.918 3243.96 866.221 3242.29C851.499 3240.62 835.682 3243.32 817.305 3254.2V3254.2C803.422 3262.43 794.942 3272.43 790.355 3284.23C785.917 3295.65 785.14 3308.73 786.574 3323.44L786.72 3324.87C789.076 3347.26 802.589 3373.33 822.575 3400.61C842.572 3427.91 869.094 3456.47 897.554 3483.85C954.474 3538.62 1019.19 3588.71 1055.07 3614.53C1065.21 3621.83 1077.48 3629.12 1088.74 3636.6C1100.03 3644.11 1110.34 3651.82 1116.71 3660.03C1119.9 3664.13 1122.08 3668.33 1122.93 3672.66C1123.78 3676.99 1123.3 3681.48 1121.11 3686.19C1116.72 3695.63 1105.42 3705.96 1084.06 3717.42H1084.06C1032.21 3745.23 970.32 3735.71 911.516 3710.52C852.724 3685.33 797.121 3644.51 757.937 3609.91C688.605 3548.7 668.532 3491.76 660.086 3431C655.858 3400.59 654.547 3369.26 651.436 3335.91C648.326 3302.57 643.421 3267.26 632.007 3228.99C629.092 3219.21 620.958 3200.02 610.219 3184.79C604.85 3177.17 598.804 3170.5 592.4 3166.5C585.983 3162.48 579.159 3161.13 572.325 3164.24V3164.24C568.018 3166.21 563.528 3170 558.921 3175.14C554.308 3180.29 549.55 3186.84 544.711 3194.35C535.034 3209.39 525.008 3228.36 515.159 3247.97C505.301 3267.61 495.637 3287.86 486.646 3305.54C477.936 3322.66 469.895 3337.29 462.991 3346.49L462.327 3347.36C439.345 3377.09 407.625 3400.23 375.448 3406.55C359.368 3409.71 343.177 3408.67 327.893 3402.17C312.608 3395.66 298.197 3383.68 285.698 3364.89C246.057 3305.35 268.332 3238.3 313.367 3180.93C358.392 3123.56 426.043 3076.04 476.709 3055.72C498.673 3046.91 522.019 3041.46 545.18 3035.61C567.601 3029.94 589.842 3023.9 610.39 3014.08L612.373 3013.11C636.786 3001.06 664.514 2977.93 689.742 2949.25C714.974 2920.57 737.735 2886.31 752.194 2851.94C766.649 2817.58 772.832 2783.05 764.817 2753.88C756.791 2724.67 734.555 2700.94 692.404 2688.15C630.304 2669.28 570.747 2692.16 510.917 2721.73C480.973 2736.53 450.989 2752.99 420.497 2766.82C390.019 2780.65 359.096 2791.81 327.35 2795.98C263.788 2804.33 185.413 2794.4 135.469 2761.84C110.51 2745.57 92.6841 2723.68 87.3047 2695.61C81.9241 2667.54 88.9781 2633.2 113.98 2592.01C155.404 2523.78 225.808 2484.86 303.527 2468.32C381.249 2451.78 466.239 2457.63 536.744 2478.9C551.271 2483.29 565.877 2489.82 580.579 2496.97C595.267 2504.11 610.077 2511.87 624.944 2518.69C654.686 2532.33 684.858 2542.26 715.436 2535.99C734.296 2532.12 746.747 2520.32 754.906 2504.01C763.056 2487.71 766.939 2466.9 768.694 2444.93C770.45 2422.95 770.08 2399.77 769.699 2378.72C769.33 2358.32 768.95 2339.95 770.469 2326.59L770.622 2325.31C773.835 2299.74 783.444 2272.85 793.875 2245.94C804.297 2219.04 815.544 2192.11 821.975 2166.53C835.099 2114.29 836.14 2075.22 828.127 2047.42C820.105 2019.59 803.01 2003.07 779.967 1995.99C756.958 1988.92 728.072 1991.28 696.45 2001.06C664.819 2010.83 630.4 2028.04 596.292 2050.74C539.817 2088.34 504.951 2138.97 467.787 2187.22C430.902 2235.1 391.731 2280.66 326.88 2309.08L325.343 2309.75C254.562 2340.31 168.082 2346.3 102.161 2320.67C69.2094 2307.85 41.4095 2287.14 23.2568 2257.65C5.1055 2228.17 -3.42713 2189.87 2.22852 2141.83C6.40508 2106.31 27.5319 2067.27 58.9277 2027.96C90.3154 1988.66 131.927 1949.14 176.992 1912.68C267.131 1839.74 371.019 1779.07 434.42 1756.79C502.6 1732.83 562.301 1731.91 618.283 1747.57C674.278 1763.23 726.586 1795.48 779.959 1837.91V1837.91C790.345 1846.18 803.393 1858.46 817.888 1872.29C832.376 1886.12 848.301 1901.48 864.426 1915.87C880.549 1930.26 896.887 1943.69 912.203 1953.66C927.265 1963.47 941.405 1969.98 953.418 1970.7L953.988 1970.73C981.353 1971.94 998.589 1964.03 1008.38 1950.54C1018.15 1937.08 1020.42 1918.2 1018.13 1897.65C1013.57 1856.55 990.76 1808.45 972.377 1782.67C891.397 1669.19 757.131 1645.71 625.844 1629.13C560.167 1620.84 495.24 1614.27 437.983 1599.07C381.183 1583.99 332 1560.41 297.182 1518.28L296.362 1517.28C252.56 1463.57 250.46 1398.1 275.813 1344.1C301.169 1290.09 353.978 1247.57 419.963 1239.8H419.964C536.031 1226.12 619.923 1294.58 700.48 1371.98C740.737 1410.66 780.169 1451.58 822.317 1485.49C864.474 1519.41 909.395 1546.35 960.672 1557.07C1012.82 1567.96 1054.8 1561.67 1085.76 1544.62C1116.71 1527.57 1136.6 1499.77 1144.59 1467.76C1160.58 1403.74 1129.01 1322.9 1043.49 1277.16C1004.29 1256.16 965.62 1241.12 927.778 1227.75C889.924 1214.38 852.928 1202.69 816.996 1188.38C745.168 1159.77 677.694 1120.74 616.715 1037.08H616.714C567.253 969.25 543.859 876.732 556.621 795.19C569.379 713.675 618.259 643.158 713.355 619.179C782.921 601.645 833.354 616.231 873.395 648.398C913.473 680.596 943.174 730.435 971.179 783.488C999.165 836.506 1025.46 892.741 1058.71 937.555C1091.96 982.386 1132.24 1015.87 1188.23 1023.33C1200.12 1024.92 1209.71 1025.77 1217.44 1025.39C1225.17 1025.02 1231.11 1023.42 1235.64 1020.06C1240.17 1016.7 1243.23 1011.62 1245.33 1004.44C1247.43 997.263 1248.58 987.94 1249.25 976.027V976.026C1254.75 878.65 1202.14 798.011 1141.24 719.96C1110.77 680.912 1078.24 642.53 1049.78 602.966C1021.34 563.411 997.008 522.723 982.956 479.119C940.455 347.233 961.241 174.368 1052.87 67.1367C1074.65 41.655 1101.86 22.6326 1127.03 19.9902C1139.59 18.6712 1151.64 21.4324 1162.29 29.5146C1172.95 37.6038 1182.24 51.054 1189.2 71.1797C1205.4 117.999 1192.04 154.344 1169.15 187.511C1157.7 204.106 1143.87 219.889 1130.17 235.79C1116.48 251.682 1102.9 267.69 1092.01 284.7C1073.8 313.144 1062.02 349.108 1064 381.592C1065.98 414.108 1081.75 443.144 1118.61 457.575L1118.98 457.72L1119.2 457.396C1156.32 403.92 1192.95 349.104 1233.7 298.215V298.214C1284.31 234.968 1353.94 160.859 1432.56 102.4C1511.18 43.9349 1598.75 1.16533 1685.26 0.503906Z" stroke="var(--stroke-0, #956A47)"/>
</svg>
