<svg width="37" height="37" viewBox="0 0 37 37" fill="none" xmlns="http://www.w3.org/2000/svg">
<g id="Frame">
<path id="Vector" d="M5 5H8L8.6 8M8.6 8H32L26 20H11M8.6 8L11 20M11 20L7.5605 23.4395C6.6155 24.3845 7.2845 26 8.621 26H26M26 26C25.2044 26 24.4413 26.3161 23.8787 26.8787C23.3161 27.4413 23 28.2044 23 29C23 29.7956 23.3161 30.5587 23.8787 31.1213C24.4413 31.6839 25.2044 32 26 32C26.7956 32 27.5587 31.6839 28.1213 31.1213C28.6839 30.5587 29 29.7956 29 29C29 28.2044 28.6839 27.4413 28.1213 26.8787C27.5587 26.3161 26.7956 26 26 26ZM14 29C14 29.7956 13.6839 30.5587 13.1213 31.1213C12.5587 31.6839 11.7956 32 11 32C10.2044 32 9.44129 31.6839 8.87868 31.1213C8.31607 30.5587 8 29.7956 8 29C8 28.2044 8.31607 27.4413 8.87868 26.8787C9.44129 26.3161 10.2044 26 11 26C11.7956 26 12.5587 26.3161 13.1213 26.8787C13.6839 27.4413 14 28.2044 14 29Z" stroke="var(--stroke-0, #956A47)" stroke-width="2.25" stroke-linecap="round" stroke-linejoin="round"/>
</g>
</svg>
