<svg width="36" height="36" viewBox="0 0 36 36" fill="none" xmlns="http://www.w3.org/2000/svg">
<g id="Frame">
<path id="Vector" d="M31.5 18C31.5 21.5804 30.0777 25.0142 27.5459 27.5459C25.0142 30.0777 21.5804 31.5 18 31.5M31.5 18C31.5 14.4196 30.0777 10.9858 27.5459 8.45406C25.0142 5.92232 21.5804 4.5 18 4.5M31.5 18H4.5M18 31.5C14.4196 31.5 10.9858 30.0777 8.45406 27.5459C5.92232 25.0142 4.5 21.5804 4.5 18M18 31.5C20.4855 31.5 22.5 25.455 22.5 18C22.5 10.545 20.4855 4.5 18 4.5M18 31.5C15.5145 31.5 13.5 25.455 13.5 18C13.5 10.545 15.5145 4.5 18 4.5M18 4.5C14.4196 4.5 10.9858 5.92232 8.45406 8.45406C5.92232 10.9858 4.5 14.4196 4.5 18" stroke="var(--stroke-0, #956A47)" stroke-width="2.25" stroke-linecap="round" stroke-linejoin="round"/>
</g>
</svg>
