<svg width="36" height="36" viewBox="0 0 36 36" fill="none" xmlns="http://www.w3.org/2000/svg">
<g id="Frame">
<path id="Vector" d="M18 6.531C18.8062 5.61705 19.8715 4.97026 21.0543 4.67669C22.2371 4.38312 23.4813 4.45669 24.6212 4.8876C25.7612 5.31852 26.7429 6.08636 27.4357 7.08894C28.1286 8.09152 28.4997 9.28132 28.4997 10.5C28.4997 11.7187 28.1286 12.9085 27.4357 13.9111C26.7429 14.9136 25.7612 15.6815 24.6212 16.1124C23.4813 16.5433 22.2371 16.6169 21.0543 16.3233C19.8715 16.0297 18.8062 15.3829 18 14.469M22.5 31.5H4.5V30C4.5 27.6131 5.44821 25.3239 7.13604 23.636C8.82387 21.9482 11.1131 21 13.5 21C15.8869 21 18.1761 21.9482 19.864 23.636C21.5518 25.3239 22.5 27.6131 22.5 30V31.5ZM22.5 31.5H31.5V30C31.5002 28.4201 31.0845 26.8679 30.2947 25.4996C29.5049 24.1312 28.3688 22.9949 27.0005 22.2048C25.6323 21.4148 24.0803 20.9988 22.5003 20.9987C20.9204 20.9987 19.3683 21.4145 18 22.2045M19.5 10.5C19.5 12.0913 18.8679 13.6174 17.7426 14.7426C16.6174 15.8679 15.0913 16.5 13.5 16.5C11.9087 16.5 10.3826 15.8679 9.25736 14.7426C8.13214 13.6174 7.5 12.0913 7.5 10.5C7.5 8.9087 8.13214 7.38258 9.25736 6.25736C10.3826 5.13214 11.9087 4.5 13.5 4.5C15.0913 4.5 16.6174 5.13214 17.7426 6.25736C18.8679 7.38258 19.5 8.9087 19.5 10.5Z" stroke="var(--stroke-0, #956A47)" stroke-width="2.25" stroke-linecap="round" stroke-linejoin="round"/>
</g>
</svg>
