<svg width="36" height="36" viewBox="0 0 36 36" fill="none" xmlns="http://www.w3.org/2000/svg">
<g id="Frame">
<path id="Vector" d="M25.5 12H28.5C29.2956 12 30.0587 12.3161 30.6213 12.8787C31.1839 13.4413 31.5 14.2044 31.5 15V24C31.5 24.7956 31.1839 25.5587 30.6213 26.1213C30.0587 26.6839 29.2956 27 28.5 27H25.5V33L19.5 27H13.5C13.106 27.0004 12.7158 26.923 12.3518 26.7721C11.9878 26.6213 11.6572 26.4 11.379 26.121M11.379 26.121L16.5 21H22.5C23.2956 21 24.0587 20.6839 24.6213 20.1213C25.1839 19.5587 25.5 18.7956 25.5 18V9C25.5 8.20435 25.1839 7.44129 24.6213 6.87868C24.0587 6.31607 23.2956 6 22.5 6H7.5C6.70435 6 5.94129 6.31607 5.37868 6.87868C4.81607 7.44129 4.5 8.20435 4.5 9V18C4.5 18.7956 4.81607 19.5587 5.37868 20.1213C5.94129 20.6839 6.70435 21 7.5 21H10.5V27L11.379 26.121Z" stroke="var(--stroke-0, #956A47)" stroke-width="2.25" stroke-linecap="round" stroke-linejoin="round"/>
</g>
</svg>
