<svg viewBox="0 0 36 36" fill="none" xmlns="http://www.w3.org/2000/svg">
<g id="Frame">
<path id="Vector" d="M28.5 16.5C28.5 19.2848 27.3938 21.9555 25.4246 23.9246C23.4555 25.8938 20.7848 27 18 27M18 27C15.2152 27 12.5445 25.8938 10.5754 23.9246C8.60625 21.9555 7.5 19.2848 7.5 16.5M18 27V33M18 33H12M18 33H24M18 21C16.8065 21 15.6619 20.5259 14.818 19.682C13.9741 18.8381 13.5 17.6935 13.5 16.5V7.5C13.5 6.30653 13.9741 5.16193 14.818 4.31802C15.6619 3.47411 16.8065 3 18 3C19.1935 3 20.3381 3.47411 21.182 4.31802C22.0259 5.16193 22.5 6.30653 22.5 7.5V16.5C22.5 17.6935 22.0259 18.8381 21.182 19.682C20.3381 20.5259 19.1935 21 18 21Z" stroke="var(--stroke-0, #4D564D)" stroke-width="2.25" stroke-linecap="round" stroke-linejoin="round"/>
</g>
</svg>
