<svg viewBox="0 0 36 36" fill="none" xmlns="http://www.w3.org/2000/svg">
<g id="Frame">
<path id="Vector" d="M25.5 30H33V27C32.9999 26.0648 32.7085 25.1529 32.1662 24.3909C31.6239 23.629 30.8577 23.055 29.9741 22.7486C29.0905 22.4423 28.1334 22.4188 27.2359 22.6815C26.3383 22.9442 25.545 23.4801 24.966 24.2145M25.5 30H10.5M25.5 30V27C25.5 26.016 25.311 25.0755 24.966 24.2145M24.966 24.2145C24.409 22.8224 23.4476 21.6292 22.206 20.7887C20.9644 19.9482 19.4994 19.4989 18 19.4989C16.5006 19.4989 15.0356 19.9482 13.794 20.7887C12.5524 21.6292 11.591 22.8224 11.034 24.2145M10.5 30H3V27C3.00007 26.0648 3.2915 25.1529 3.83379 24.3909C4.37608 23.629 5.14228 23.055 6.02588 22.7486C6.90947 22.4423 7.86657 22.4188 8.76411 22.6815C9.66165 22.9442 10.455 23.4801 11.034 24.2145M10.5 30V27C10.5 26.016 10.689 25.0755 11.034 24.2145M22.5 10.5C22.5 11.6935 22.0259 12.8381 21.182 13.682C20.3381 14.5259 19.1935 15 18 15C16.8065 15 15.6619 14.5259 14.818 13.682C13.9741 12.8381 13.5 11.6935 13.5 10.5C13.5 9.30653 13.9741 8.16193 14.818 7.31802C15.6619 6.47411 16.8065 6 18 6C19.1935 6 20.3381 6.47411 21.182 7.31802C22.0259 8.16193 22.5 9.30653 22.5 10.5ZM31.5 15C31.5 15.7956 31.1839 16.5587 30.6213 17.1213C30.0587 17.6839 29.2956 18 28.5 18C27.7044 18 26.9413 17.6839 26.3787 17.1213C25.8161 16.5587 25.5 15.7956 25.5 15C25.5 14.2044 25.8161 13.4413 26.3787 12.8787C26.9413 12.3161 27.7044 12 28.5 12C29.2956 12 30.0587 12.3161 30.6213 12.8787C31.1839 13.4413 31.5 14.2044 31.5 15ZM10.5 15C10.5 15.7956 10.1839 16.5587 9.62132 17.1213C9.05871 17.6839 8.29565 18 7.5 18C6.70435 18 5.94129 17.6839 5.37868 17.1213C4.81607 16.5587 4.5 15.7956 4.5 15C4.5 14.2044 4.81607 13.4413 5.37868 12.8787C5.94129 12.3161 6.70435 12 7.5 12C8.29565 12 9.05871 12.3161 9.62132 12.8787C10.1839 13.4413 10.5 14.2044 10.5 15Z" stroke="var(--stroke-0, #4D564D)" stroke-width="2.25" stroke-linecap="round" stroke-linejoin="round"/>
</g>
</svg>
