<svg viewBox="0 0 36 36" fill="none" xmlns="http://www.w3.org/2000/svg">
<g id="Frame">
<path id="Vector" d="M25.5 21V18C25.5 16.4087 24.8679 14.8826 23.7426 13.7574C22.6174 12.6321 21.0913 12 19.5 12H10.5C8.9087 12 7.38258 12.6321 6.25736 13.7574C5.13214 14.8826 4.5 16.4087 4.5 18V21C4.5 22.5913 5.13214 24.1174 6.25736 25.2426C7.38258 26.3679 8.9087 27 10.5 27H19.5C21.0913 27 22.6174 26.3679 23.7426 25.2426C24.8679 24.1174 25.5 22.5913 25.5 21ZM25.5 21H28.5C29.2956 21 30.0587 20.6839 30.6213 20.1213C31.1839 19.5587 31.5 18.7956 31.5 18V15C31.5 14.2044 31.1839 13.4413 30.6213 12.8787C30.0587 12.3161 29.2956 12 28.5 12H25.5" stroke="var(--stroke-0, #956A47)" stroke-width="2.25" stroke-linecap="round" stroke-linejoin="round"/>
</g>
</svg>
