<svg viewBox="0 0 45.75 38.25" fill="none" xmlns="http://www.w3.org/2000/svg">
<path id="&#226;&#128;&#157;" d="M4.95 38.25L1.2 35.25C5.4 30.15 8.25 24.75 9.15 18.9C3.9 18.3 0 14.7 0 9.45C0 4.05 4.2 0 9.75 0C14.85 0 19.5 3.45 19.5 10.2C19.5 19.05 14.85 28.95 4.95 38.25ZM31.2 38.25L27.45 35.25C31.65 30.15 34.5 24.75 35.4 18.9C30.15 18.3 26.25 14.7 26.25 9.45C26.25 4.05 30.45 0 36 0C41.1 0 45.75 3.45 45.75 10.2C45.75 19.05 41.1 28.95 31.2 38.25Z" fill="var(--fill-0, #FFF5EC)" fill-opacity="0.1"/>
</svg>
