<svg viewBox="0 0 56.769 41.571" fill="none" xmlns="http://www.w3.org/2000/svg">
<path id="&#226;&#128;&#156;" d="M13.857 41.571C11.473 41.571 9.387 41.124 7.599 40.23C5.811 39.2367 4.37067 37.9453 3.278 36.356C2.28467 34.7667 1.49 32.8793 0.894 30.694C0.298 28.5087 0 26.224 0 23.84C0 18.9727 1.24167 14.4033 3.725 10.132C6.30767 5.86067 10.281 2.48334 15.645 0L16.986 2.682C14.2047 3.97334 11.7213 5.86067 9.536 8.34401C7.45 10.728 6.20833 13.261 5.811 15.943C5.215 18.029 5.16533 20.0653 5.662 22.052C7.84733 19.668 10.7777 18.476 14.453 18.476C17.8303 18.476 20.6117 19.519 22.797 21.605C24.9823 23.5917 26.075 26.373 26.075 29.949C26.075 33.4257 24.9327 36.2567 22.648 38.442C20.3633 40.528 17.433 41.571 13.857 41.571ZM44.551 41.571C42.167 41.571 40.081 41.124 38.293 40.23C36.505 39.2367 35.0647 37.9453 33.972 36.356C32.9787 34.7667 32.184 32.8793 31.588 30.694C30.992 28.5087 30.694 26.224 30.694 23.84C30.694 18.9727 31.9357 14.4033 34.419 10.132C37.0017 5.86067 40.975 2.48334 46.339 0L47.68 2.682C44.8987 3.97334 42.4153 5.86067 40.23 8.34401C38.144 10.728 36.9023 13.261 36.505 15.943C35.909 18.029 35.8593 20.0653 36.356 22.052C38.5413 19.668 41.4717 18.476 45.147 18.476C48.5243 18.476 51.3057 19.519 53.491 21.605C55.6763 23.5917 56.769 26.373 56.769 29.949C56.769 33.4257 55.6267 36.2567 53.342 38.442C51.0573 40.528 48.127 41.571 44.551 41.571Z" fill="var(--fill-0, #FFF5EC)" fill-opacity="0.1"/>
</svg>
