<svg  viewBox="0 0 40 40" fill="none" xmlns="http://www.w3.org/2000/svg">
<g id="SVG">
<path id="Vector" d="M29.4283 27.7617L22.3567 34.8333C22.0474 35.1429 21.6802 35.3885 21.2759 35.556C20.8717 35.7236 20.4384 35.8098 20.0008 35.8098C19.5633 35.8098 19.13 35.7236 18.7257 35.556C18.3215 35.3885 17.9543 35.1429 17.645 34.8333L10.5717 27.7617C8.70704 25.8969 7.43723 23.5212 6.92281 20.9348C6.4084 18.3484 6.67248 15.6675 7.68167 13.2312C8.69086 10.7949 10.3998 8.71257 12.5925 7.24751C14.7851 5.78246 17.3629 5.00049 20 5.00049C22.6371 5.00049 25.2149 5.78246 27.4075 7.24751C29.6002 8.71257 31.3091 10.7949 32.3183 13.2312C33.3275 15.6675 33.5916 18.3484 33.0772 20.9348C32.5628 23.5212 31.293 25.8969 29.4283 27.7617Z" stroke="var(--stroke-0, #FFF5EC)" stroke-width="2.5" stroke-linecap="round" stroke-linejoin="round"/>
<path id="Vector_2" d="M25 18.3333C25 19.6594 24.4732 20.9312 23.5355 21.8689C22.5979 22.8066 21.3261 23.3333 20 23.3333C18.6739 23.3333 17.4021 22.8066 16.4645 21.8689C15.5268 20.9312 15 19.6594 15 18.3333C15 17.0073 15.5268 15.7355 16.4645 14.7978C17.4021 13.8601 18.6739 13.3333 20 13.3333C21.3261 13.3333 22.5979 13.8601 23.5355 14.7978C24.4732 15.7355 25 17.0073 25 18.3333Z" stroke="var(--stroke-0, #FFF5EC)" stroke-width="2.5" stroke-linecap="round" stroke-linejoin="round"/>
</g>
</svg>
