<svg viewBox="0 0 1801.42 2423.65" fill="none" xmlns="http://www.w3.org/2000/svg">
<g id="Group 2">
<path id="Vector" opacity="0.99" d="M1702.4 1804.11C1705.14 1814.04 1703.51 1825.9 1698.25 1834.59C1693 1843.26 1684.19 1848.73 1672.49 1846.07C1666.66 1844.74 1659.81 1839.95 1652.46 1833.12C1645.12 1826.3 1637.33 1817.52 1629.62 1808.28C1621.9 1799.04 1614.27 1789.38 1607.22 1780.8C1600.17 1772.23 1593.7 1764.74 1588.34 1759.89C1582.2 1754.35 1570.34 1746.68 1557.97 1740.94C1551.78 1738.07 1545.44 1735.67 1539.62 1734.27C1533.8 1732.87 1528.44 1732.45 1524.23 1733.58L1502.45 1739.41L1502.6 1739.91C1517.39 1788.52 1552.83 1823.53 1589.18 1857.8C1625.56 1892.11 1662.84 1925.67 1681.61 1971.45C1690.45 1993.01 1694.17 2018.86 1690.74 2043.11C1687.32 2067.36 1676.77 2089.98 1657.11 2105.14C1649.06 2111.35 1636.38 2117.02 1624.45 2118.06C1618.49 2118.58 1612.75 2117.94 1607.87 2115.67C1603 2113.4 1598.97 2109.48 1596.42 2103.39C1595.24 2100.57 1594.39 2096.71 1593.73 2092.26C1593.08 2087.81 1592.64 2082.81 1592.29 2077.72C1591.59 2067.55 1591.23 2056.97 1590.23 2049.85C1579.04 1970.81 1547.97 1889.45 1501.62 1824.41C1496.01 1816.55 1487.18 1804.44 1476.95 1796.45C1471.83 1792.45 1466.33 1789.45 1460.68 1788.54C1455.01 1787.63 1449.22 1788.84 1443.58 1793.19C1437.91 1797.57 1435.21 1803.94 1434.48 1811.28C1433.76 1818.61 1435 1826.94 1437.23 1835.3C1441.69 1852.03 1450.17 1869.04 1455.12 1878.73C1469.48 1906.83 1488.81 1929.67 1506.99 1953.02C1525.18 1976.38 1542.24 2000.27 1552.17 2030.53C1564.29 2067.46 1569.7 2111.08 1562.69 2150.85C1555.69 2190.62 1536.29 2226.51 1498.85 2248.07C1469.51 2264.95 1430.03 2269.77 1397.59 2260.14C1381.37 2255.33 1366.94 2246.91 1356.4 2234.61C1345.87 2222.31 1339.22 2206.11 1338.6 2185.68C1337.65 2154.49 1354.47 2125.13 1374.12 2096.23C1383.93 2081.81 1394.47 2067.47 1403.77 2053.15C1412.79 2039.27 1420.7 2025.35 1425.75 2011.24L1426.23 2009.88C1441.42 1965.82 1436.33 1916.03 1412.66 1875.79C1407.47 1866.96 1398.03 1855.37 1387.11 1848C1376.2 1840.64 1363.67 1837.4 1352.47 1845.61C1346.01 1850.35 1343.5 1856.27 1343.57 1862.72C1343.63 1869.14 1346.24 1876.04 1349.93 1882.82C1353.63 1889.6 1358.44 1896.3 1362.96 1902.32C1367.5 1908.35 1371.72 1913.66 1374.28 1917.72C1388.86 1940.75 1398.92 1975.99 1393.74 2003.09C1391.29 2015.88 1385.12 2026.6 1376.68 2031.73C1372.46 2034.3 1367.67 2035.47 1362.46 2034.83C1357.25 2034.19 1351.58 2031.72 1345.62 2026.93C1335.65 2018.91 1326.35 2006.97 1318.9 1993.89C1311.45 1980.82 1305.87 1966.66 1303.35 1954.22C1299.59 1935.69 1300.89 1915.82 1300.44 1896.26C1300 1876.73 1297.82 1857.57 1287.02 1840.69C1273.05 1818.86 1253.09 1811.31 1236.44 1815.96C1219.79 1820.61 1206.66 1837.41 1206.23 1863.81C1205.77 1892.94 1221.18 1919.57 1239.37 1945.38C1243.91 1951.83 1248.64 1958.24 1253.34 1964.63C1258.04 1971.02 1262.72 1977.39 1267.17 1983.76C1276.06 1996.51 1284.04 2009.27 1289.51 2022.27C1325.57 2108.07 1278.94 2184.46 1207.74 2232.71C1178.77 2252.35 1153.02 2257.18 1131.4 2252.07C1109.77 2246.95 1092.17 2231.85 1079.54 2211.44C1054.27 2170.6 1049.01 2108.66 1071.14 2063.62C1080.35 2044.88 1095.75 2029.57 1111.74 2014.58C1127.7 1999.62 1144.27 1984.96 1155.65 1967.58C1164.7 1953.75 1169.1 1929.68 1168.34 1906.14C1167.96 1894.35 1166.28 1882.67 1163.23 1872.42C1160.19 1862.19 1155.76 1853.36 1149.84 1847.31L1149.84 1847.31C1145.36 1842.73 1137.05 1838.78 1129.44 1837.95C1125.63 1837.54 1121.93 1837.91 1118.97 1839.43C1115.97 1840.96 1113.76 1843.64 1112.9 1847.74C1111.3 1855.37 1111.95 1863.37 1113.47 1871.45C1114.98 1879.51 1117.37 1887.72 1119.26 1895.67C1123.07 1911.65 1124.92 1926.69 1114.36 1938.78C1094.9 1961.06 1061.76 1957.69 1047.63 1931.97C1042.63 1922.87 1041.17 1915.75 1041.9 1909.77C1042.63 1903.79 1045.57 1898.88 1049.53 1894.21C1051.51 1891.87 1053.74 1889.6 1056.07 1887.29C1058.4 1884.98 1060.83 1882.63 1063.18 1880.14C1067.9 1875.17 1072.36 1869.63 1075.25 1862.7C1082.46 1845.48 1077.32 1826.96 1066.46 1811.73C1055.6 1796.5 1038.97 1784.47 1022.99 1780.17C1010.77 1776.89 1003.06 1777.61 998.678 1782.3C996.499 1784.63 995.203 1787.88 994.555 1791.95C993.907 1796.02 993.9 1800.94 994.335 1806.65C995.17 1817.63 997.503 1827.58 999.107 1837.53C1000.71 1847.51 1001.61 1857.56 999.608 1868.89C997.235 1882.32 989.846 1899.3 979.078 1912.26C968.305 1925.23 954.243 1934.06 938.514 1931.46C921.704 1928.69 910.244 1913.16 911.693 1896.34L911.771 1895.54C912.789 1886.28 918.526 1878.6 925.008 1871.01C931.454 1863.46 938.653 1855.97 942.296 1847.19C954.439 1817.91 932.1 1785.09 902.063 1780.69L902.062 1780.69C897.357 1780 893.285 1779.74 889.882 1780.06C886.479 1780.39 883.706 1781.31 881.643 1783.01C877.491 1786.43 876.444 1792.8 878.337 1802.93C879.497 1809.15 881.86 1814.87 884.225 1820.21C886.598 1825.56 888.958 1830.5 890.179 1835.25C891.394 1839.97 891.463 1844.45 889.295 1848.87C887.119 1853.31 882.655 1857.77 874.648 1862.37C867.182 1866.66 859.421 1868.23 852.349 1866.88C845.284 1865.54 838.856 1861.28 834.056 1853.82C827.859 1844.2 829.608 1836.01 831.004 1828.13C831.7 1824.21 832.315 1820.33 831.734 1816.45C831.167 1812.66 829.472 1808.91 825.7 1805.09L825.329 1804.73C822.269 1801.74 819.106 1800.23 815.731 1799.86C812.581 1799.52 809.291 1800.17 805.785 1801.45L805.081 1801.71C799.509 1803.85 793.807 1809.08 788.277 1815.96C782.736 1822.86 777.323 1831.48 772.343 1840.51C762.384 1858.55 754.132 1878.24 750.047 1889.03C748.893 1892.08 747.873 1895.69 746.758 1899C745.63 1902.35 744.399 1905.42 742.803 1907.52C742.009 1908.57 741.141 1909.36 740.175 1909.83C739.215 1910.3 738.131 1910.47 736.873 1910.25C734.322 1909.8 731.029 1907.73 726.716 1903.14C716.33 1892.09 714.54 1876 716.91 1859.54C719.278 1843.09 725.786 1826.38 731.842 1814.2C742.529 1792.71 755.438 1783.87 770.097 1777.68C777.46 1774.56 785.225 1772.13 793.439 1769.09C801.634 1766.05 810.217 1762.43 819.111 1756.95C821.405 1755.54 825.718 1752.17 828.859 1748.41C830.428 1746.53 831.735 1744.51 832.332 1742.56C832.896 1740.72 832.835 1738.89 831.715 1737.32L831.476 1737.01C830.643 1736 829.334 1735.1 827.709 1734.28C826.078 1733.45 824.09 1732.69 821.861 1731.97C817.404 1730.54 811.935 1729.3 806.33 1728.14C800.704 1726.98 794.98 1725.92 789.916 1724.85C785.173 1723.84 781.091 1722.84 778.343 1721.78L777.812 1721.56C768.832 1717.81 760.951 1711.43 757.239 1703.86C755.387 1700.09 754.575 1696.01 755.17 1691.81C755.765 1687.61 757.773 1683.23 761.619 1678.87C773.773 1665.05 791.944 1666.07 809.377 1673.52C826.796 1680.96 843.271 1694.74 851.767 1706.07C855.447 1710.99 858.38 1716.47 861.421 1721.91C864.455 1727.35 867.593 1732.73 871.663 1737.38L871.663 1737.38C876.388 1742.76 884.127 1748.21 893.073 1752.64C902.024 1757.07 912.225 1760.5 921.9 1761.83C931.564 1763.15 940.77 1762.39 947.675 1758.34C954.615 1754.28 959.141 1746.95 959.521 1735.37C960.086 1718.31 950.215 1704.76 938.733 1691.69C932.971 1685.13 926.824 1678.72 921.289 1671.98C915.763 1665.25 910.893 1658.25 907.721 1650.59C901.35 1635.2 898.589 1614.89 903.38 1600.23C905.77 1592.92 910.026 1587.05 916.615 1583.86C923.211 1580.66 932.231 1580.11 944.233 1583.61C964.079 1589.4 978.558 1604.41 987.934 1622.8C997.31 1641.19 1001.56 1662.92 1000.96 1682.04C1000.84 1685.97 1000.18 1690.06 999.376 1694.24C998.573 1698.4 997.612 1702.68 996.898 1706.88C995.469 1715.3 994.984 1723.67 998.682 1731.06C1000.99 1735.67 1004.91 1738.06 1009.65 1739.04C1014.37 1740 1019.93 1739.57 1025.6 1738.52C1031.27 1737.48 1037.1 1735.82 1042.37 1734.3C1047.66 1732.78 1052.36 1731.42 1055.83 1730.94L1055.83 1730.94C1062.43 1730.03 1069.81 1730.63 1077.29 1731.44C1084.74 1732.25 1092.32 1733.27 1099.22 1733.16C1113.29 1732.94 1123.27 1730.56 1129.81 1726.62C1136.37 1722.67 1139.45 1717.14 1139.68 1710.73C1139.91 1704.35 1137.33 1697.17 1132.72 1689.83C1128.1 1682.49 1121.42 1674.96 1113.38 1667.89C1100.05 1656.16 1084.88 1650.77 1070.25 1644.68C1055.61 1638.58 1041.46 1631.76 1029.94 1617.2C1017.53 1601.5 1010.22 1580.22 1012.22 1562.01C1013.21 1552.92 1016.53 1544.6 1022.66 1538.11C1028.79 1531.62 1037.78 1526.92 1050.19 1525.12C1059.31 1523.79 1070.49 1526.44 1082.48 1531.68C1094.46 1536.92 1107.19 1544.71 1119.4 1553.59C1143.82 1571.35 1166.07 1593.38 1175.92 1607.79C1186.51 1623.28 1190.74 1638.18 1190.58 1653.25C1190.42 1667.86 1186.13 1682.67 1179.43 1698.38L1178.77 1699.9C1177.4 1703.05 1175.19 1707.15 1172.69 1711.74C1170.19 1716.32 1167.39 1721.37 1164.85 1726.4C1162.32 1731.44 1160.03 1736.48 1158.54 1741.03C1157.06 1745.57 1156.35 1749.71 1157.05 1752.9C1158.61 1759.95 1161.82 1763.88 1166.03 1765.5C1170.21 1767.1 1175.22 1766.36 1180.27 1764.38C1190.38 1760.43 1201.01 1751.4 1206.28 1745C1229.51 1716.82 1226.32 1681.27 1221.64 1647.11C1219.3 1630 1216.58 1613.25 1216.54 1597.84C1216.51 1582.44 1219.16 1568.46 1227.51 1556.89C1237.98 1542.36 1254.17 1537.46 1269.36 1540.18C1284.55 1542.9 1298.7 1553.24 1305.06 1569.21C1316.26 1597.33 1304.78 1622.92 1290.73 1648.43C1283.71 1661.16 1276.06 1673.87 1270.35 1686.79C1264.65 1699.72 1260.87 1712.9 1261.64 1726.62C1262.42 1740.55 1266.86 1750.78 1273.31 1757.5C1279.77 1764.23 1288.21 1767.4 1296.9 1767.25C1314.29 1766.95 1332.64 1753.41 1338.42 1728.65C1341.07 1717.34 1342.25 1706.57 1343.06 1696.13C1343.88 1685.68 1344.32 1675.6 1345.5 1665.6C1347.85 1645.63 1353.11 1626.09 1370 1605.16C1383.68 1588.21 1405.31 1576.12 1426.6 1573.85C1447.86 1571.57 1468.75 1579.07 1481.12 1601.25C1490.17 1617.48 1489.89 1631.04 1484.54 1643.18C1479.17 1655.36 1468.69 1666.16 1457.22 1676.79C1445.78 1687.39 1433.36 1697.84 1424.3 1709.26C1415.22 1720.7 1409.44 1733.19 1411.36 1747.93C1411.76 1751.03 1412.2 1753.53 1412.83 1755.49C1413.45 1757.45 1414.29 1758.91 1415.52 1759.89C1416.76 1760.87 1418.33 1761.31 1420.33 1761.35C1422.07 1761.39 1424.17 1761.13 1426.71 1760.64L1427.83 1760.42C1452.86 1755.2 1469.69 1736.41 1485.23 1715.81C1493.02 1705.49 1500.47 1694.73 1508.5 1684.9C1516.53 1675.09 1525.11 1666.25 1535.09 1659.8C1565.34 1640.26 1610.13 1633.87 1643.16 1649.64C1651.01 1653.38 1657.54 1658.9 1659.85 1664.92C1661 1667.92 1661.11 1671.04 1659.84 1674.17C1658.55 1677.31 1655.85 1680.51 1651.3 1683.59C1640.73 1690.74 1630.82 1689.85 1620.99 1686.35C1616.06 1684.59 1611.17 1682.19 1606.24 1679.81C1601.62 1677.58 1596.97 1675.38 1592.25 1673.79L1591.3 1673.48C1582.86 1670.8 1572.93 1670.25 1564.79 1672.97C1556.63 1675.7 1550.26 1681.73 1549.1 1692.15L1549.05 1692.54L1549.42 1692.68C1565.4 1698.42 1581.65 1703.93 1597.2 1710.75C1616.52 1719.22 1639.84 1731.74 1659.83 1747.56C1679.83 1763.39 1696.43 1782.49 1702.4 1804.11Z" stroke="var(--stroke-0, #E07B39)"/>
<path id="Vector_2" opacity="0.99" d="M824.11 484.688C826.245 476.951 824.972 467.7 820.873 460.926C816.788 454.178 809.936 449.927 800.838 451.999C796.303 453.033 790.966 456.758 785.212 462.102C779.475 467.43 773.389 474.302 767.352 481.528C761.311 488.761 755.35 496.309 749.827 503.028C744.317 509.73 739.25 515.597 735.044 519.397C730.236 523.74 720.944 529.749 711.256 534.242C706.408 536.49 701.445 538.367 696.878 539.467C692.323 540.563 688.108 540.899 684.787 540.009L667.636 535.413L667.786 534.919C679.369 496.857 707.122 469.449 735.558 442.634C764.029 415.788 793.175 389.543 807.846 353.756C814.754 336.9 817.66 316.695 814.986 297.742C812.313 278.791 804.067 261.126 788.708 249.285C782.425 244.441 772.525 240.01 763.215 239.197C758.564 238.791 754.093 239.291 750.3 241.062C746.518 242.827 743.38 245.869 741.398 250.611C740.481 252.806 739.81 255.814 739.301 259.293C738.793 262.765 738.45 266.676 738.175 270.663C737.625 278.611 737.345 286.897 736.559 292.47C727.799 354.324 703.486 418 667.213 468.9C662.828 475.049 655.906 484.532 647.891 490.798C643.881 493.933 639.56 496.294 635.114 497.007C630.646 497.723 626.088 496.77 621.65 493.348C617.181 489.903 615.059 484.883 614.49 479.121C613.921 473.367 614.893 466.836 616.641 460.287C620.136 447.186 626.773 433.873 630.647 426.292C641.89 404.292 657.022 386.41 671.241 368.148C685.472 349.871 698.807 331.195 706.574 307.536C716.054 278.659 720.276 244.548 714.8 213.45C709.325 182.361 694.165 154.315 664.901 137.469C641.975 124.271 611.114 120.504 585.761 128.031C573.092 131.792 561.818 138.368 553.593 147.973C545.371 157.574 540.174 170.226 539.689 186.189C538.95 210.551 552.087 233.495 567.465 256.108C575.135 267.387 583.38 278.61 590.66 289.813C597.948 301.028 604.31 312.282 608.243 323.693C620.142 358.197 616.154 397.187 597.619 428.696C593.55 435.615 586.153 444.69 577.597 450.467C569.044 456.241 559.183 458.803 550.369 452.335C545.287 448.606 543.307 443.942 543.358 438.861C543.409 433.817 545.461 428.395 548.354 423.088C551.25 417.775 555.018 412.525 558.556 407.819C562.106 403.096 565.402 398.945 567.408 395.776C578.804 377.769 586.659 350.225 582.611 329.061C580.699 319.071 575.887 310.719 569.315 306.723C566.038 304.731 562.315 303.816 558.264 304.314C554.462 304.783 550.34 306.501 546.009 309.797L545.139 310.477C537.357 316.736 530.084 326.069 524.26 336.289C518.436 346.507 514.079 357.579 512.109 367.295C509.169 381.78 510.183 397.307 509.837 412.628C509.498 427.669 507.841 442.458 499.713 455.537L499.321 456.158C488.371 473.269 472.708 479.208 459.623 475.554C446.535 471.898 436.246 458.705 435.912 438.015C435.544 415.187 447.625 394.323 461.852 374.132C465.412 369.08 469.112 364.063 472.789 359.066C476.468 354.068 480.123 349.088 483.602 344.102C490.562 334.128 496.8 324.15 501.071 313.989C529.255 246.934 492.823 187.213 437.137 149.478C414.487 134.126 394.375 130.357 377.495 134.351C360.607 138.346 346.858 150.134 336.988 166.085C317.235 198.009 313.129 246.432 330.423 281.634C337.617 296.274 349.651 308.24 362.161 319.969C374.648 331.674 387.619 343.151 396.533 356.762L396.533 356.762C403.635 367.61 407.079 386.468 406.482 404.899C406.183 414.127 404.871 423.278 402.482 431.302C400.094 439.32 396.621 446.248 391.977 450.994C388.448 454.596 381.925 457.704 375.947 458.351C372.952 458.675 370.04 458.388 367.692 457.186C365.322 455.973 363.569 453.848 362.891 450.609C361.636 444.621 362.147 438.339 363.332 432.015C364.515 425.705 366.387 419.274 367.869 413.06C370.805 400.752 372.231 389.208 364.436 379.872L364.058 379.429C348.882 362.053 323.044 364.679 312.027 384.736C308.122 391.846 306.986 397.394 307.555 402.04C308.125 406.687 310.409 410.51 313.501 414.158C315.048 415.983 316.79 417.756 318.612 419.564C320.43 421.369 322.332 423.212 324.177 425.157C327.869 429.052 331.37 433.398 333.645 438.835C339.304 452.361 335.262 466.889 326.753 478.822C318.377 490.568 305.615 499.891 293.268 503.392L292.681 503.554C283.118 506.122 277.027 505.577 273.552 501.861C271.827 500.015 270.807 497.445 270.298 494.25C269.789 491.055 269.784 487.194 270.125 482.725C270.778 474.128 272.606 466.332 273.859 458.554C275.116 450.755 275.812 442.905 274.253 434.059C272.399 423.566 266.625 410.297 258.212 400.173C249.794 390.043 238.827 383.167 226.577 385.187C213.276 387.38 204.272 399.836 205.745 413.173L205.829 413.846C206.816 420.759 211.162 426.552 216.076 432.309C221.112 438.209 226.761 444.081 229.619 450.97C239.077 473.776 221.888 499.295 198.608 503.069L198.056 503.155C194.371 503.694 191.175 503.898 188.5 503.641C185.825 503.383 183.632 502.661 181.995 501.312C178.697 498.594 177.889 493.553 179.371 485.625C180.281 480.741 182.135 476.257 183.985 472.082C185.844 467.886 187.685 464.033 188.637 460.33C189.584 456.649 189.635 453.175 187.953 449.745C186.264 446.3 182.793 442.826 176.537 439.231C170.714 435.883 164.669 434.668 159.166 435.716C153.67 436.763 148.665 440.077 144.925 445.884C140.102 453.374 141.46 459.742 142.553 465.906C143.097 468.977 143.581 472.028 143.123 475.084C142.662 478.164 141.251 481.215 138.081 484.316C135.672 486.67 133.175 487.86 130.508 488.151C128.021 488.423 125.428 487.909 122.677 486.905L122.125 486.697C117.737 485.012 113.261 480.905 108.932 475.515C104.591 470.111 100.352 463.358 96.4552 456.297C88.6601 442.173 82.2024 426.764 79.0048 418.322L79.0038 418.321C78.1007 415.935 77.2986 413.093 76.4295 410.512C75.5472 407.892 74.5879 405.511 73.351 403.879C72.7367 403.068 72.0707 402.466 71.3341 402.105C70.6051 401.748 69.7798 401.615 68.8167 401.784C66.8576 402.128 64.3022 403.725 60.9311 407.315C52.8395 415.928 51.4349 428.468 53.2876 441.334C55.1383 454.187 60.2249 467.252 64.9601 476.774C73.3081 493.561 83.3856 500.462 94.8349 505.301C100.593 507.736 106.659 509.634 113.093 512.017C119.508 514.394 126.231 517.234 133.198 521.521C135.002 522.631 138.385 525.273 140.851 528.23C142.083 529.707 143.115 531.298 143.588 532.844C144.066 534.406 143.983 535.972 142.899 537.286C142.234 538.093 141.194 538.808 139.917 539.454C138.634 540.103 137.072 540.702 135.325 541.262C131.832 542.382 127.549 543.359 123.163 544.264C118.756 545.173 114.285 546.002 110.321 546.841C106.362 547.68 103.002 548.512 100.87 549.402C93.8607 552.335 87.7199 557.306 84.8313 563.199C83.3905 566.138 82.7602 569.302 83.2221 572.566C83.684 575.831 85.2434 579.232 88.2407 582.637C97.7024 593.39 111.857 592.613 125.482 586.793C139.092 580.98 151.967 570.207 158.603 561.356C161.477 557.521 163.768 553.238 166.149 548.975C168.522 544.725 170.982 540.5 174.174 536.859C177.884 532.634 183.952 528.365 190.959 524.896C197.971 521.424 205.963 518.733 213.546 517.692C221.119 516.653 228.35 517.25 233.782 520.432C239.25 523.636 242.805 529.407 243.103 538.496C243.547 551.893 235.796 562.521 226.812 572.746C222.3 577.883 217.496 582.895 213.167 588.167C208.847 593.427 205.044 598.894 202.568 604.875C197.59 616.901 195.437 632.76 199.174 644.195C201.038 649.897 204.352 654.461 209.474 656.943C214.602 659.427 221.629 659.867 231.003 657.133C246.494 652.614 257.802 640.898 265.128 626.528C272.455 612.156 275.775 595.174 275.308 580.226C275.212 577.165 274.701 573.969 274.07 570.701C273.443 567.449 272.69 564.098 272.132 560.806C271.013 554.214 270.628 547.637 273.537 541.825C275.36 538.182 278.459 536.291 282.195 535.526C285.91 534.765 290.275 535.11 294.712 535.927C299.156 536.745 303.721 538.047 307.843 539.232C311.985 540.422 315.652 541.486 318.357 541.858L318.358 541.858C323.509 542.567 329.268 542.1 335.121 541.466C340.952 540.834 346.885 540.035 352.295 540.12C363.309 540.292 371.14 542.154 376.279 545.251C381.447 548.366 383.877 552.724 384.06 557.778C384.242 562.795 382.209 568.441 378.594 574.188C374.973 579.942 369.739 585.841 363.447 591.38C353 600.573 341.112 604.794 329.674 609.557C318.217 614.328 307.172 619.653 298.178 631.027C288.476 643.291 282.776 659.907 284.333 674.121C285.11 681.219 287.694 687.701 292.474 692.759C297.251 697.814 304.258 701.482 313.946 702.893C321.053 703.929 329.776 701.862 339.15 697.764C348.513 693.671 358.468 687.577 368.014 680.635C387.116 666.746 404.513 649.517 412.212 638.254C420.486 626.153 423.791 614.521 423.662 602.754C423.538 591.342 420.184 579.772 414.946 567.486L414.434 566.295C413.362 563.833 411.64 560.631 409.679 557.042C407.723 553.462 405.534 549.507 403.546 545.564C401.56 541.622 399.766 537.675 398.6 534.103C397.513 530.771 396.95 527.698 397.343 525.245L397.435 524.763C398.658 519.225 401.19 516.108 404.528 514.828C407.83 513.563 411.784 514.151 415.747 515.699C423.432 518.701 431.484 525.441 435.742 530.422L436.142 530.898C454.345 552.989 451.843 580.85 448.182 607.566C446.347 620.958 444.219 634.056 444.192 646.103C444.166 658.139 446.239 669.052 452.753 678.08C460.921 689.405 473.545 693.229 485.387 691.11C497.238 688.988 508.281 680.916 513.24 668.466L513.24 668.465C521.984 646.514 513.028 626.532 502.03 606.575C496.547 596.623 490.55 586.667 486.086 576.554C481.618 566.432 478.656 556.096 479.257 545.342C479.867 534.422 483.35 526.387 488.422 521.107C493.496 515.825 500.128 513.335 506.96 513.452C520.621 513.685 535.014 524.323 539.547 543.733C541.619 552.592 542.543 561.025 543.18 569.193C543.818 577.373 544.167 585.253 545.088 593.076C546.926 608.684 551.033 623.956 564.234 640.308C574.919 653.551 591.813 662.987 608.439 664.765C625.039 666.541 641.339 660.686 650.99 643.384C658.058 630.711 657.835 620.138 653.665 610.673C649.475 601.163 641.284 592.732 632.311 584.415C623.367 576.125 613.64 567.944 606.543 558.999C599.432 550.037 594.896 540.231 596.4 528.66C596.715 526.232 597.057 524.267 597.551 522.727C598.046 521.186 598.707 520.018 599.694 519.234C600.686 518.447 601.943 518.099 603.521 518.063C605.092 518.027 607.025 518.301 609.415 518.798C629.043 522.888 642.228 537.623 654.388 553.74C660.485 561.821 666.31 570.229 672.596 577.915C678.874 585.591 685.574 592.496 693.371 597.532C716.643 612.566 750.921 617.64 776.605 606.046L777.821 605.481C783.953 602.553 789.026 598.256 790.821 593.579C791.712 591.259 791.798 588.844 790.81 586.423C789.818 583.991 787.723 581.507 784.168 579.103C775.943 573.537 768.223 574.225 760.554 576.957C756.705 578.328 752.888 580.207 749.026 582.07C745.416 583.812 741.769 585.539 738.067 586.785L737.326 587.027C730.703 589.131 722.908 589.565 716.516 587.429C710.093 585.281 705.08 580.527 704.163 572.328L704.118 571.935L704.49 571.802C716.992 567.311 729.703 562.994 741.861 557.661C756.97 551.038 775.21 541.251 790.839 528.879C806.477 516.499 819.447 501.575 824.11 484.688Z" stroke="var(--stroke-0, #E07B39)"/>
</g>
</svg>
