<svg viewBox="0 0 2602.46 2001.76" fill="none" xmlns="http://www.w3.org/2000/svg">
<g id="Group 3">
<path id="Vector" opacity="0.99" d="M1748.86 272.73C1753.05 265.349 1760.91 259.385 1769.04 257.385C1777.14 255.393 1785.45 257.338 1790.71 265.694C1793.33 269.861 1794.53 276.637 1794.83 284.927C1795.14 293.194 1794.55 302.874 1793.66 312.78C1792.77 322.695 1791.59 332.788 1790.7 341.93C1789.81 351.052 1789.21 359.217 1789.51 365.195C1789.86 372.027 1792.31 383.453 1796.19 394.044C1798.13 399.343 1800.43 404.45 1803.02 408.681C1805.61 412.901 1808.5 416.295 1811.64 418.107L1827.86 427.471L1828.1 427.015C1847.88 389.94 1847.62 348.745 1846.41 307.475C1845.2 266.159 1843.03 224.778 1858.8 187.082C1866.24 169.328 1879.16 152.06 1895.32 139.897C1911.48 127.735 1930.84 120.696 1951.16 123.325C1959.48 124.4 1970.19 128.488 1977.75 134.839C1981.53 138.012 1984.5 141.728 1986.02 145.89C1987.52 150.041 1987.6 154.664 1985.53 159.693C1984.58 162.021 1982.83 164.771 1980.61 167.75C1978.39 170.724 1975.73 173.902 1972.96 177.085C1967.43 183.434 1961.45 189.831 1957.88 194.579C1918.22 247.321 1888.82 313.041 1877.9 378.149C1876.58 386.018 1874.67 398.267 1875.97 408.93C1876.63 414.265 1878.09 419.249 1880.87 423.098C1883.67 426.964 1887.78 429.653 1893.64 430.411C1899.54 431.174 1904.87 429.014 1909.6 425.138C1914.32 421.268 1918.47 415.667 1922.05 409.47C1929.22 397.077 1934.21 382.178 1936.98 373.622C1945.01 348.794 1947.07 324.139 1950.09 299.875C1953.11 275.594 1957.1 251.679 1968.97 228.201C1983.46 199.547 2005.79 170.91 2033.11 151.769C2060.43 132.633 2092.71 123.005 2127.16 132.283C2154.15 139.551 2180.02 159.794 2193.34 184.36C2200 196.636 2203.51 209.974 2202.48 223.299C2201.45 236.617 2195.88 249.958 2184.31 262.247C2166.66 281.003 2139.7 288.33 2111.32 293.734C2097.17 296.43 2082.63 298.654 2068.82 301.584C2055 304.517 2041.85 308.172 2030.39 313.756C1995.74 330.636 1969.6 362.731 1959.91 400.103C1957.78 408.307 1956.53 420.607 1958.6 431.308C1960.68 442.005 1966.12 451.269 1977.52 453.019C1984.09 454.028 1989.05 452.027 1992.8 448.199C1996.52 444.398 1999.04 438.821 2000.84 432.699C2002.65 426.568 2003.75 419.834 2004.63 413.677C2005.5 407.499 2006.14 401.935 2007.01 398.068C2011.95 376.1 2026.66 349.652 2045.5 336.862C2054.39 330.825 2064.23 328.177 2072.14 330.104C2076.08 331.065 2079.55 333.165 2082.21 336.568C2084.78 339.87 2086.61 344.423 2087.34 350.407L2087.41 350.99C2088.55 361.482 2087.01 373.89 2083.73 385.877C2080.44 397.861 2075.43 409.389 2069.64 418.121C2061.01 431.139 2048.65 441.982 2037.47 453.682C2026.32 465.352 2016.38 477.839 2012.82 494.039C2008.22 514.99 2015.48 531.112 2027.97 538.148C2040.46 545.185 2057.99 543.022 2073.69 527.824C2091.01 511.054 2097.57 486.454 2102.02 460.746C2103.13 454.313 2104.12 447.803 2105.1 441.324C2106.09 434.843 2107.08 428.392 2108.2 422.068C2110.46 409.42 2113.25 397.305 2117.65 386.522C2146.69 315.366 2218.53 297.971 2288.32 311.379C2316.71 316.832 2334.55 329.043 2344.19 344.643C2353.82 360.249 2355.28 379.331 2350.74 398.623C2341.65 437.233 2308.54 476.478 2269.32 489.857C2253 495.421 2235.07 495.369 2216.97 494.785C2198.9 494.202 2180.64 493.085 2163.82 496.594C2150.42 499.39 2133.77 510.899 2120.45 525.11C2113.78 532.225 2107.92 540.039 2103.72 547.814C2099.51 555.584 2096.93 563.349 2096.86 570.356C2096.8 575.676 2099.35 582.862 2103.33 587.806C2105.32 590.282 2107.71 592.239 2110.35 593.093C2113.02 593.954 2115.91 593.678 2118.83 591.77C2124.23 588.237 2128.54 583.166 2132.38 577.559C2136.21 571.963 2139.61 565.764 2143.15 560.013C2150.26 548.446 2157.95 538.62 2171.13 537.726C2195.47 536.081 2212.82 557.36 2206.07 580.59C2203.67 588.822 2200.37 593.82 2196.47 596.87C2192.57 599.92 2188 601.07 2182.96 601.486C2180.44 601.694 2177.82 601.718 2175.1 601.707C2172.4 601.697 2169.6 601.653 2166.77 601.728C2161.11 601.879 2155.25 602.51 2149.49 604.871L2149.49 604.872C2135.17 610.743 2127.35 624.602 2124.79 639.865C2122.23 655.127 2124.92 671.903 2131.76 683.769C2136.99 692.829 2141.94 696.959 2147.29 696.779C2149.95 696.689 2152.63 695.534 2155.39 693.53C2158.15 691.526 2161.04 688.647 2164.12 685.055C2170.05 678.146 2174.51 670.962 2179.39 664.214C2184.27 657.448 2189.62 651.063 2197.4 645.617C2206.62 639.162 2220.85 633.56 2234.7 632.281C2248.56 631.002 2261.9 634.058 2269.55 644.728C2277.73 656.133 2275.35 671.861 2264.71 680.812L2264.2 681.233C2258.22 686.034 2250.4 687.165 2242.18 687.815C2234 688.461 2225.4 688.628 2218.13 691.635C2194.05 701.598 2187.83 733.477 2202.39 753.673L2202.74 754.148C2205.09 757.303 2207.32 759.84 2209.51 761.644C2211.7 763.447 2213.87 764.542 2216.09 764.756C2220.57 765.188 2224.93 762.039 2229.74 755.012C2232.71 750.688 2234.67 745.956 2236.41 741.455C2238.15 736.934 2239.66 732.677 2241.71 729.197C2243.76 725.737 2246.32 723.099 2250.15 721.79C2253.87 720.517 2258.86 720.477 2265.86 722.283L2266.54 722.464C2273.4 724.313 2278.83 727.925 2282.16 732.825C2285.49 737.718 2286.75 743.939 2285.21 751.078C2283.21 760.287 2277.43 764.036 2272.01 767.823C2269.31 769.71 2266.67 771.626 2264.74 774.246C2262.78 776.886 2261.56 780.212 2261.61 784.892C2261.65 788.443 2262.63 791.19 2264.4 793.395C2266.05 795.451 2268.37 797.001 2271.17 798.306L2271.74 798.563C2276.26 800.579 2282.67 800.856 2289.93 800.063C2297.2 799.269 2305.41 797.391 2313.6 795.028C2328.95 790.596 2344.26 784.444 2353.28 780.465L2355 779.698C2357.45 778.59 2360.17 777.069 2362.75 775.789C2365.37 774.491 2367.87 773.426 2370.01 773.13C2371.08 772.983 2372.03 773.031 2372.86 773.314C2373.67 773.594 2374.39 774.114 2374.99 774.965C2376.2 776.692 2376.92 779.802 2376.76 785.003C2376.37 797.493 2368.04 807.916 2357.04 816.145C2346.06 824.365 2332.5 830.325 2321.84 833.902C2303.06 840.208 2290.37 837.834 2278.2 832.895C2272.08 830.411 2266.13 827.298 2259.55 824.273C2252.98 821.257 2245.84 818.358 2237.44 816.357C2235.26 815.839 2230.76 815.285 2226.72 815.652C2224.7 815.835 2222.74 816.251 2221.24 817.05C2219.72 817.857 2218.62 819.082 2218.45 820.861C2218.34 821.955 2218.59 823.261 2219.06 824.696C2219.53 826.138 2220.25 827.751 2221.13 829.473C2222.9 832.917 2225.37 836.846 2227.97 840.797C2230.59 844.767 2233.31 848.727 2235.64 852.314C2237.97 855.898 2239.86 859.03 2240.79 861.29C2243.84 868.721 2244.71 877.029 2242.47 883.596C2241.34 886.872 2239.45 889.711 2236.66 891.809C2234.05 893.775 2230.62 895.108 2226.26 895.518L2225.37 895.588L2224.67 895.624C2209.94 896.204 2200.17 885.159 2194.42 870.858C2188.6 856.344 2187.03 838.676 2188.68 827.103C2189.4 822.09 2190.89 817.178 2192.3 812.215C2193.7 807.268 2195.01 802.278 2195.35 797.177L2195.35 797.176C2195.74 791.254 2194.39 783.537 2191.75 775.715C2189.11 767.886 2185.15 759.91 2180.26 753.471C2175.39 747.041 2169.54 742.091 2163.12 740.413C2156.65 738.724 2149.69 740.375 2142.69 746.935C2132.36 756.602 2130.21 770.321 2129.28 784.668C2128.82 791.874 2128.66 799.208 2127.96 806.38C2127.26 813.537 2126.01 820.464 2123.39 826.784C2118.13 839.489 2107.88 852.95 2096.54 858.704C2090.89 861.573 2084.99 862.51 2079.31 860.534C2073.61 858.557 2068.03 853.629 2063.07 844.582C2054.87 829.627 2055.17 812.421 2060.44 796.21C2065.7 779.997 2075.91 764.828 2087.43 754.008C2089.78 751.792 2092.56 749.786 2095.47 747.816C2098.37 745.855 2101.43 743.915 2104.31 741.874C2110.06 737.786 2115.26 733.165 2117.42 726.66C2118.78 722.587 2117.88 718.868 2115.66 715.512C2113.46 712.174 2109.95 709.174 2106.02 706.47C2102.09 703.763 2097.71 701.326 2093.75 699.132C2089.77 696.928 2086.23 694.983 2083.93 693.238L2083.93 693.237C2079.55 689.917 2075.6 685.264 2071.7 680.417C2067.81 675.59 2063.98 670.564 2059.88 666.587C2051.52 658.491 2044.29 654.036 2038.14 652.512C2031.96 650.981 2026.9 652.42 2023 656.051C2019.12 659.657 2016.43 665.386 2014.83 672.376C2013.24 679.375 2012.74 687.69 2013.31 696.524C2014.24 711.189 2019.97 723.217 2024.95 735.32C2029.95 747.441 2034.22 759.675 2032.44 774.896C2030.53 791.309 2022.37 807.986 2010.59 817.445C2004.7 822.169 1997.92 825.084 1990.57 825.291C1983.22 825.499 1975.24 823.003 1966.94 816.817C1960.85 812.278 1955.88 804.213 1951.94 794.147C1948 784.094 1945.12 772.105 1943.17 759.788C1939.28 735.144 1939.15 709.278 1941.81 695.11C1944.67 679.885 1950.9 668.722 1959.78 660.025C1968.68 651.318 1980.28 645.057 1993.92 639.68C1996.56 638.64 2000.24 637.534 2004.39 636.319C2008.52 635.106 2013.11 633.787 2017.54 632.326C2021.97 630.866 2026.25 629.257 2029.79 627.461C2033.31 625.673 2036.16 623.663 2037.63 621.365L2037.63 621.364C2040.85 616.32 2041.28 612.111 2039.75 608.673C2038.23 605.271 2034.85 602.761 2030.73 600.958C2022.5 597.349 2010.99 596.422 2004.16 597.079C1974.07 599.982 1955.14 622.65 1937.92 645.341C1929.29 656.713 1921.09 668.089 1912.11 677.108C1903.14 686.121 1893.43 692.729 1881.82 694.608L1881.82 694.608C1867.24 696.967 1854.95 690.388 1847.68 679.952C1840.41 669.508 1838.19 655.22 1843.79 642.207C1853.66 619.266 1875.29 611.028 1898.41 604.335C1909.94 600.997 1921.85 598.04 1932.74 593.821C1943.63 589.598 1953.56 584.092 1961.14 575.616C1968.84 567.007 1972.24 558.412 1972.39 550.687C1972.55 542.96 1969.46 536.153 1964.27 531.142C1953.9 521.123 1935.22 518.317 1917.35 529.424L1917.35 529.423C1909.18 534.491 1902.19 540.099 1895.62 545.724C1889.03 551.357 1882.88 556.983 1876.35 562.139C1863.52 572.266 1849.29 580.508 1827.79 583.009L1826.76 583.124L1825.92 583.207C1808.26 584.859 1788.99 579.289 1775.45 568.367C1761.72 557.288 1753.91 540.73 1759.63 520.584C1763.82 505.831 1771.89 498.092 1782.08 494.134C1792.32 490.158 1804.74 489.979 1817.66 490.469C1830.53 490.957 1843.9 492.112 1855.88 490.732C1867.88 489.35 1878.59 485.416 1886.1 475.658C1887.68 473.609 1888.89 471.888 1889.67 470.371C1890.45 468.852 1890.83 467.492 1890.68 466.177C1890.52 464.856 1889.85 463.663 1888.7 462.46C1887.55 461.262 1885.91 460.023 1883.75 458.611C1866.05 447.011 1845.2 448.167 1824.08 451.122C1813.49 452.603 1802.86 454.534 1792.42 455.58C1782 456.624 1771.83 456.778 1762.24 454.715C1733.39 448.511 1703.75 426.392 1693.44 398.22L1693.2 397.554C1690.81 390.784 1690.23 383.776 1692.38 378.932C1693.46 376.528 1695.2 374.655 1697.75 373.581C1700.32 372.503 1703.74 372.213 1708.2 373.073L1708.2 373.072C1718.51 375.061 1723.77 381.35 1727.46 389.125C1729.31 393.025 1730.76 397.281 1732.25 401.557C1733.74 405.822 1735.27 410.102 1737.29 413.995C1740.66 420.51 1746.16 426.651 1752.52 429.826C1758.91 433.016 1766.2 433.209 1773 427.778L1773.3 427.531L1773.14 427.174C1767.15 414.482 1760.88 401.761 1755.78 388.695C1749.44 372.462 1743.13 351.526 1740.7 330.607C1738.26 309.677 1739.72 288.834 1748.86 272.73Z" stroke="var(--stroke-0, #CCAC64)"/>
<path id="Vector_2" opacity="0.99" d="M674.483 1123.96C667.165 1119.66 657.37 1118.43 649.33 1120.76C641.319 1123.09 635.095 1128.93 634.723 1138.79C634.537 1143.71 636.883 1150.18 640.763 1157.51C644.632 1164.82 649.981 1172.91 655.704 1181.05C661.431 1189.19 667.504 1197.34 672.849 1204.81C678.181 1212.26 682.781 1219.03 685.508 1224.36C688.623 1230.45 692.213 1241.57 694.148 1252.69C695.117 1258.25 695.675 1263.82 695.548 1268.78C695.421 1273.73 694.611 1278.11 692.799 1281.25L683.435 1297.47L682.997 1297.2C647.334 1274.98 626.959 1239.17 607.373 1202.83C587.765 1166.44 568.953 1129.52 536.442 1104.76C521.129 1093.1 501.302 1084.61 481.226 1082.15C461.153 1079.7 440.867 1083.28 424.579 1095.72C417.915 1100.81 410.683 1109.71 407.307 1118.99C405.62 1123.63 404.906 1128.33 405.677 1132.69C406.446 1137.04 408.696 1141.08 412.998 1144.4C414.99 1145.94 417.878 1147.45 421.29 1148.92C424.694 1150.39 428.591 1151.81 432.583 1153.18C440.546 1155.91 448.922 1158.46 454.392 1160.79C515.106 1186.64 573.426 1228.85 615.441 1279.77C620.518 1285.93 628.297 1295.58 632.498 1305.47C634.599 1310.42 635.825 1315.46 635.338 1320.19C634.848 1324.94 632.633 1329.32 627.935 1332.91C623.205 1336.52 617.512 1337.31 611.481 1336.32C605.46 1335.33 599.065 1332.55 592.861 1328.98C580.453 1321.83 568.686 1311.42 562.01 1305.4C542.638 1287.91 528.531 1267.59 513.785 1248.08C499.027 1228.57 483.614 1209.85 461.592 1195.45C434.717 1177.88 401.062 1164.25 367.829 1161.33C334.605 1158.42 301.834 1166.22 276.637 1191.48C256.898 1211.27 244.614 1241.74 245.362 1269.67C245.736 1283.63 249.364 1296.94 256.919 1307.96C264.471 1318.98 275.966 1327.75 292.126 1332.61C316.792 1340.03 343.803 1332.89 371.08 1323.38C384.687 1318.64 398.39 1313.3 411.812 1308.93C425.246 1304.56 438.467 1301.15 451.182 1300.25C489.633 1297.55 528.316 1312.27 555.394 1339.79C561.338 1345.83 568.574 1355.86 572.128 1366.16C575.68 1376.47 575.594 1387.21 566.598 1394.43C561.411 1398.59 556.119 1399.33 550.957 1397.89C545.831 1396.46 540.864 1392.89 536.242 1388.49C531.614 1384.08 527.288 1378.8 523.454 1373.91C519.606 1368.99 516.272 1364.49 513.585 1361.58C498.325 1345.03 472.362 1329.48 449.652 1327.82C438.931 1327.04 429.083 1329.66 423.202 1335.29C420.269 1338.09 418.313 1341.64 417.713 1345.92C417.132 1350.07 417.822 1354.93 420.182 1360.47L420.416 1361.01C424.676 1370.67 432.214 1380.64 441.051 1389.38C449.887 1398.12 459.996 1405.59 469.373 1410.26C483.352 1417.22 499.476 1420.43 515.011 1424.98C530.506 1429.5 545.359 1435.35 556.539 1447.6C570.998 1463.44 572.772 1481.04 565.473 1493.37C558.173 1505.72 541.912 1512.61 520.718 1507.29C497.335 1501.43 479.354 1483.4 462.642 1463.37C458.461 1458.35 454.354 1453.21 450.261 1448.09C446.166 1442.97 442.084 1437.88 437.948 1432.96C429.674 1423.14 421.197 1414.04 411.994 1406.9C351.265 1359.8 280.354 1380.66 226.621 1427.16C204.76 1446.08 195.41 1465.58 194.869 1483.9C194.329 1502.23 202.601 1519.49 216.182 1533.93C243.361 1562.82 291.657 1580.25 332.314 1572.23C349.224 1568.89 364.727 1559.88 380.114 1550.32C395.473 1540.78 410.727 1530.68 427.048 1525.31C440.05 1521.03 460.226 1522.67 478.867 1528.32C488.2 1531.15 497.176 1534.99 504.708 1539.62C512.234 1544.25 518.35 1549.68 521.919 1555.71C524.626 1560.29 526.012 1567.79 525.039 1574.06C524.551 1577.2 523.464 1580.09 521.601 1582.15C519.721 1584.23 517.082 1585.43 513.599 1585.24C507.152 1584.88 500.886 1582.65 494.758 1579.71C488.644 1576.78 482.597 1573.11 476.66 1569.9C464.718 1563.44 453.142 1558.77 441.277 1564.59C419.381 1575.33 414.991 1602.44 432.459 1619.18C438.649 1625.11 444.004 1627.79 448.908 1628.48C453.813 1629.17 458.343 1627.88 462.914 1625.72C465.2 1624.64 467.487 1623.35 469.83 1621.99C472.169 1620.62 474.569 1619.19 477.057 1617.84C482.039 1615.14 487.428 1612.75 493.593 1611.92L493.594 1611.92C508.928 1609.85 522.638 1617.93 532.483 1629.87C542.328 1641.81 548.385 1657.69 548.396 1671.38C548.402 1681.84 546.181 1687.89 541.454 1690.41C539.106 1691.66 536.21 1692 532.814 1691.65C529.418 1691.3 525.481 1690.25 521.014 1688.68C512.422 1685.66 504.971 1681.67 497.375 1678.26C489.76 1674.84 481.937 1671.99 472.48 1671.16C461.262 1670.18 446.139 1672.44 433.505 1678.26C420.863 1684.08 410.838 1693.4 409.548 1706.47C408.169 1720.43 418.089 1732.86 431.778 1735.3L432.432 1735.41C440.017 1736.57 447.349 1733.64 454.799 1730.09C462.198 1726.57 469.729 1722.41 477.533 1721.38C503.368 1717.97 524.695 1742.46 522.183 1767.23L522.119 1767.82C521.661 1771.73 520.996 1775.04 520.003 1777.7C519.01 1780.35 517.676 1782.39 515.859 1783.68C512.197 1786.3 506.847 1785.75 499.164 1782.07C494.433 1779.81 490.367 1776.69 486.613 1773.66C482.841 1770.62 479.41 1767.69 475.889 1765.7C472.388 1763.73 468.851 1762.72 464.883 1763.5C461.023 1764.26 456.68 1766.72 451.522 1771.78L451.02 1772.28C446.007 1777.31 443.11 1783.16 442.675 1789.07C442.24 1794.97 444.256 1800.99 449.163 1806.4C455.495 1813.37 462.375 1813.73 468.963 1814.3C472.245 1814.58 475.487 1814.92 478.475 1816.22C481.486 1817.53 484.208 1819.8 486.503 1823.88C488.244 1826.98 488.773 1829.84 488.342 1832.64C487.94 1835.25 486.71 1837.75 484.935 1840.28L484.572 1840.78C481.658 1844.79 476.249 1848.24 469.567 1851.18C462.869 1854.13 454.82 1856.61 446.55 1858.65C431.043 1862.49 414.705 1864.82 404.906 1865.88L403.035 1866.08C400.354 1866.34 397.238 1866.39 394.364 1866.57C391.45 1866.75 388.753 1867.08 386.745 1867.9C385.748 1868.3 384.946 1868.82 384.373 1869.48C383.806 1870.13 383.443 1870.94 383.351 1871.97C383.165 1874.08 384.1 1877.13 386.842 1881.55C393.425 1892.17 405.848 1897.04 419.486 1898.66C433.11 1900.29 447.834 1898.67 458.846 1896.44C478.265 1892.51 488.066 1884.11 496.138 1873.75C500.197 1868.54 503.794 1862.87 507.984 1856.95C512.162 1851.06 516.897 1844.98 523.175 1839.04C524.798 1837.51 528.416 1834.78 532.104 1833.07C533.946 1832.22 535.848 1831.6 537.549 1831.54C539.267 1831.48 540.833 1832 541.87 1833.45C542.508 1834.35 542.951 1835.6 543.261 1837.07C543.573 1838.56 543.757 1840.32 543.851 1842.25C544.038 1846.12 543.864 1850.76 543.588 1855.48C543.311 1860.22 542.935 1865.01 542.708 1869.29C542.481 1873.55 542.411 1877.21 542.737 1879.63C543.813 1887.59 547.209 1895.22 552.438 1899.79C555.047 1902.07 558.108 1903.58 561.572 1904C564.819 1904.39 568.451 1903.84 572.434 1902.01L573.235 1901.63L573.864 1901.31C586.905 1894.45 589.852 1879.99 587.673 1864.74C585.462 1849.25 577.987 1833.17 570.767 1823.97C567.638 1819.99 563.894 1816.48 560.195 1812.89C556.508 1809.3 552.872 1805.64 550.031 1801.39L550.03 1801.39C546.736 1796.45 544.04 1789.1 542.417 1781C540.792 1772.9 540.233 1764.02 541.244 1756C542.253 1747.99 544.837 1740.78 549.563 1736.11C554.319 1731.42 561.169 1729.37 570.516 1731.55C584.296 1734.76 593.016 1745.56 600.993 1757.52C604.999 1763.53 608.801 1769.81 612.997 1775.66C617.183 1781.51 621.724 1786.89 627.153 1791.05C638.066 1799.42 653.665 1805.96 666.364 1805.27C672.697 1804.93 678.269 1802.79 682.207 1798.24C686.15 1793.68 688.52 1786.62 688.294 1776.3C687.918 1759.25 679.049 1744.5 666.386 1733.1C653.721 1721.69 637.297 1713.65 621.912 1710.04C618.761 1709.3 615.358 1708.95 611.851 1708.7C608.361 1708.45 604.738 1708.3 601.227 1707.97C594.196 1707.31 587.387 1705.91 582.258 1701.36C579.047 1698.51 577.968 1694.84 578.208 1690.82C578.448 1686.83 579.991 1682.48 582.037 1678.17C584.086 1673.86 586.662 1669.56 588.998 1665.68C591.345 1661.78 593.434 1658.33 594.554 1655.67L594.553 1655.67C596.686 1650.6 597.784 1644.59 598.738 1638.45C599.688 1632.32 600.495 1626.06 602.059 1620.56C605.245 1609.37 609.285 1601.89 613.845 1597.5C618.43 1593.09 623.532 1591.8 628.729 1593C633.89 1594.18 639.089 1597.79 643.962 1603.05C648.842 1608.32 653.429 1615.27 657.359 1623.2C663.881 1636.37 664.938 1649.65 666.671 1662.62C668.406 1675.62 670.82 1688.35 679.971 1700.64C689.836 1713.9 705.238 1724.26 720.175 1726.56C727.634 1727.71 734.962 1726.84 741.435 1723.35C747.906 1719.85 753.568 1713.7 757.658 1704.2C760.661 1697.22 760.937 1687.75 759.318 1677.06C757.701 1666.39 754.205 1654.56 749.732 1642.92C740.782 1619.63 727.956 1597.17 718.567 1586.23C708.478 1574.47 697.508 1567.92 685.461 1564.83C673.401 1561.74 660.229 1562.11 645.726 1564.28C642.919 1564.7 639.18 1565.58 634.982 1566.6C630.793 1567.62 626.16 1568.77 621.595 1569.72C617.03 1570.67 612.513 1571.42 608.552 1571.63C604.609 1571.84 601.137 1571.53 598.718 1570.27L598.717 1570.27C593.407 1567.51 590.927 1564.08 590.536 1560.34C590.148 1556.63 591.824 1552.77 594.486 1549.15C599.813 1541.91 609.31 1535.35 615.56 1532.5C643.064 1519.98 670.796 1530.14 697.056 1541.18C710.217 1546.71 723.004 1552.47 735.29 1555.79C747.567 1559.11 759.275 1559.98 770.276 1555.8L770.276 1555.8C784.075 1550.55 791.434 1538.71 792.51 1526.04C793.586 1513.35 788.365 1499.87 777.009 1491.4C756.991 1476.47 734.14 1480.15 710.771 1485.91C699.116 1488.79 687.32 1492.18 675.783 1493.97C664.235 1495.76 652.884 1495.96 642.082 1492.41C631.112 1488.8 623.872 1483.06 619.875 1476.44C615.877 1469.83 615.15 1462.39 617.135 1455.46C621.104 1441.6 635.881 1429.83 656.914 1430.51L656.914 1430.51C666.517 1430.81 675.373 1432.18 683.88 1433.76C692.4 1435.34 700.537 1437.14 708.772 1438.34C724.947 1440.7 741.393 1440.72 761.266 1432.13L762.215 1431.72L762.984 1431.37C779.099 1423.97 793.007 1409.51 799.27 1393.28C805.623 1376.82 804.106 1358.58 789.082 1343.99C778.077 1333.31 767.219 1330.64 756.412 1332.31C745.557 1333.99 734.71 1340.04 723.77 1346.93C712.864 1353.79 701.861 1361.47 690.796 1366.27C679.711 1371.07 668.474 1373.02 657.089 1368.32C654.697 1367.34 652.789 1366.45 651.356 1365.53C649.92 1364.6 648.914 1363.61 648.388 1362.4C647.858 1361.18 647.846 1359.81 648.24 1358.19C648.633 1356.58 649.439 1354.69 650.599 1352.38C660.134 1333.49 678.764 1324.06 698.532 1316.06C708.443 1312.05 718.618 1308.41 728.179 1304.09C737.73 1299.79 746.609 1294.84 753.883 1288.26C775.763 1268.46 790.375 1234.48 785.216 1204.93L785.091 1204.23C783.779 1197.17 780.78 1190.81 776.49 1187.7C774.361 1186.15 771.913 1185.4 769.165 1185.75C766.406 1186.1 763.294 1187.56 759.866 1190.53L759.865 1190.53C751.928 1197.41 750.518 1205.48 751.21 1214.06C751.557 1218.36 752.431 1222.77 753.276 1227.22C754.119 1231.66 754.932 1236.14 755.134 1240.51C755.47 1247.84 753.782 1255.91 749.858 1261.84C745.916 1267.8 739.706 1271.61 731.101 1270.3L730.711 1270.24L730.678 1269.85C729.514 1255.87 728.585 1241.72 726.467 1227.85C723.84 1210.62 718.84 1189.33 710.488 1170C702.131 1150.66 690.445 1133.34 674.483 1123.96Z" stroke="var(--stroke-0, #CCAC64)"/>
</g>
</svg>
